<?xml version="1.0" encoding="UTF-8"?> <!-- Generator: Adobe Illustrator 25.2.1, SVG Export Plug-In . SVG Version: 6.00 Build 0) --> <svg xmlns="http://www.w3.org/2000/svg" xmlns:xlink="http://www.w3.org/1999/xlink" version="1.1" id="Слой_1" x="0px" y="0px" viewBox="0 0 701.7 583.7" style="enable-background:new 0 0 701.7 583.7;" xml:space="preserve"> <style type="text/css"> .st0{fill:#73A250;stroke:#FFFFFF;stroke-width:5;stroke-linecap:square;stroke-miterlimit:10;} .st1{fill:#222D42;} .st2{fill:none;} .st3{fill:#84878E;} .st4{fill:#8EC76B;} .st5{fill:#73A250;} .st6{fill:#8FC86B;} .st7{fill:#C7DD71;} .st8{enable-background:new ;} .st9{fill:#FFFFFF;} .st10{fill:#9B5959;} .st11{fill:none;stroke:#8EC76B;stroke-width:3;stroke-miterlimit:10;} </style> <path class="st0" d="M698.6,321c0,0-21.3-9.5-58.4-21.4c0.1-2.6,0.1-5.2,0.1-7.8c0-159.8-129.6-289.4-289.4-289.4 S61.5,132.1,61.5,291.9c0,2.2,0,4.4,0.1,6.6C24.5,310,3.2,319.2,3.2,319.2l72.2,191.1c0,0,0.4-0.2,1.1-0.5c-0.3,0.2-0.6,0.4-0.8,0.5 c9.6,3.4,80.3,6.8,92.6,6.8c0-0.2-25.8-23-30.1-28.8c0,0,0.1,0,0.1,0c52.9,57.2,128.5,93,212.5,93c70.3,0,134.8-25.1,185-66.9 c-2.1,1.9-3.4,3.1-3.4,3.1c12.3,0,84.1-4.2,93.6-7.6c-0.1,0-0.1-0.1-0.2-0.1c0.7,0.3,1,0.5,1,0.5L698.6,321z M101.7,499.9 c9-3.2,20.2-6.9,33.4-10.7C129,491,114.8,495.4,101.7,499.9z M578.5,492.1c5.4,1.7,10.3,3.3,14.8,4.9 C588.1,495.2,583,493.6,578.5,492.1z"></path> <g> <g id="Seo_Blog" transform="translate(-1055.788 -419)"> <circle id="Эллипс_1" class="st1" cx="1406.7" cy="710.9" r="289.4"></circle> <g id="Контур_15" transform="translate(1130.759 435.614)"> <path class="st2" d="M275.9,2.5c150.6,0,272.7,122.1,272.7,272.8S426.6,548,275.9,548S3.2,425.9,3.2,275.3S125.3,2.5,275.9,2.5z"></path> <path class="st3" d="M275.9,2.5c0,0,0.1,0,0.1,0c0,0,0,0,0,0c0,0,0.1,0,0.1,0c0,0,0,0,0,0c0,0,0,0,0.1,0c0,0,0,0,0,0 c0,0,0.1,0,0.1,0c0,0,0,0,0,0c0,0,0.1,0,0.1,0c0,0,0,0,0,0c0,0,0.1,0,0.1,0l0,0c0.1,0,0.2,0,0.2,0h0c0,0,0.1,0,0.1,0l0,0 c0,0,0.1,0,0.1,0c0,0,0,0,0,0c0,0,0.1,0,0.1,0l0,0c0,0,0.1,0,0.1,0c0,0,0,0,0,0c0.5,0,1,0,1.5,0c0,0,0,0,0,0c0,0,0.1,0,0.1,0 c0,0,0,0,0,0c0,0,0.1,0,0.1,0c0,0,0,0,0,0c0,0,0,0,0.1,0c0,0,0,0,0.1,0c0,0,0,0,0,0c0,0,0.1,0,0.1,0c0,0,0,0,0,0 c0.2,0,0.3,0,0.5,0l0,2c-1.3,0-2.7,0-4,0V2.5L275.9,2.5z M283.9,2.6c0.2,0,0.5,0,0.7,0c0,0,0,0,0,0c0,0,0.1,0,0.1,0l0,0 c0,0,0.1,0,0.1,0c0,0,0,0,0,0c0,0,0.1,0,0.1,0c0,0,0.1,0,0.1,0c0,0,0,0,0,0c0,0,0.1,0,0.1,0c0,0,0,0,0,0c0,0,0.1,0,0.1,0 c0,0,0,0,0,0c0,0,0.1,0,0.1,0c0,0,0,0,0,0c0.8,0,1.6,0.1,2.4,0.1l-0.1,2c-1.3-0.1-2.7-0.1-4-0.1L283.9,2.6z M291.9,3 c0.1,0,0.3,0,0.4,0c0,0,0,0,0,0c0,0,0.1,0,0.1,0c0,0,0,0,0,0c0,0,0.1,0,0.1,0c0,0,0,0,0,0c0,0,0,0,0.1,0c0,0,0.1,0,0.1,0 c0,0,0,0,0,0c0,0,0.1,0,0.1,0c0,0,0,0,0,0c0,0,0.1,0,0.1,0c0,0,0,0,0,0c0,0,0.1,0,0.1,0c0,0,0,0,0,0c0,0,0.1,0,0.1,0c0,0,0,0,0,0 c0,0,0.1,0,0.1,0l0,0c0.1,0,0.2,0,0.4,0l0,0c0,0,0.1,0,0.1,0c0,0,0,0,0,0c0,0,0.1,0,0.1,0c0,0,0,0,0,0c0,0,0.1,0,0.1,0 c0,0,0,0,0,0c0,0,0.1,0,0.1,0c0,0,0,0,0,0c0,0,0.1,0,0.1,0c0,0,0,0,0,0c0,0,0.1,0,0.1,0c0,0,0,0,0.1,0c0,0,0,0,0,0 c0,0,0.1,0,0.1,0c0,0,0,0,0,0c0,0,0.1,0,0.1,0c0,0,0,0,0,0c0,0,0.1,0,0.1,0c0,0,0,0,0,0c0.3,0,0.6,0,0.9,0.1l-0.1,2 c-1.3-0.1-2.6-0.2-4-0.3L291.9,3L291.9,3z M299.9,3.5c0.4,0,0.8,0.1,1.2,0.1c0,0,0,0,0,0c0,0,0,0,0.1,0c0,0,0,0,0.1,0 c0,0,0,0,0,0c0,0,0.1,0,0.1,0c0,0,0,0,0,0c0.8,0.1,1.7,0.2,2.5,0.2l-0.2,2c-1.3-0.1-2.6-0.3-4-0.4L299.9,3.5L299.9,3.5z M307.9,4.3c0.3,0,0.6,0.1,0.9,0.1c0,0,0.1,0,0.1,0c0,0,0,0,0,0c0,0,0.1,0,0.1,0l0,0c0,0,0.1,0,0.1,0c0,0,0,0,0,0 c0.5,0.1,1,0.1,1.5,0.2c0,0,0,0,0,0c0,0,0.1,0,0.1,0c0,0,0,0,0,0c0,0,0,0,0.1,0c0,0,0,0,0.1,0c0,0,0,0,0,0c0.3,0,0.6,0.1,0.9,0.1 l-0.3,2c-1.3-0.2-2.6-0.3-3.9-0.5L307.9,4.3z M315.8,5.4c0.8,0.1,1.6,0.2,2.4,0.4c0,0,0,0,0,0c0,0,0.1,0,0.1,0c0,0,0,0,0,0 c0,0,0.1,0,0.1,0c0,0,0,0,0,0c0.1,0,0.2,0,0.3,0c0,0,0,0,0.1,0c0,0,0,0,0,0c0,0,0.1,0,0.1,0c0,0,0,0,0,0c0,0,0.1,0,0.1,0l0,0 c0.2,0,0.5,0.1,0.7,0.1l-0.3,2c-1.3-0.2-2.6-0.4-3.9-0.6L315.8,5.4L315.8,5.4z M323.7,6.7c1.3,0.2,2.6,0.5,3.9,0.7l-0.4,2 c-1.3-0.2-2.6-0.5-3.9-0.7L323.7,6.7z M331.6,8.2c0.2,0,0.5,0.1,0.7,0.1c0,0,0,0,0,0c0,0,0.1,0,0.1,0c0,0,0,0,0,0 c0,0,0.1,0,0.1,0c0,0,0,0,0,0c0,0,0,0,0.1,0c0,0,0,0,0.1,0c0,0,0,0,0.1,0c0,0,0.1,0,0.1,0c0,0,0,0,0.1,0c0,0,0.1,0,0.1,0 c0,0,0,0,0,0c0,0,0.1,0,0.1,0c0,0,0,0,0,0c0,0,0.1,0,0.1,0c0,0,0,0,0,0c0,0,0.1,0,0.1,0c0,0,0,0,0,0c0.1,0,0.2,0,0.2,0.1 c0,0,0,0,0,0c0,0,0.1,0,0.1,0c0,0,0,0,0,0c0,0,0.1,0,0.1,0c0,0,0,0,0,0c0,0,0.1,0,0.1,0c0,0,0,0,0,0c0,0,0.1,0,0.1,0c0,0,0,0,0,0 c0,0,0.1,0,0.1,0l0,0c0,0,0.1,0,0.1,0c0,0,0,0,0,0c0,0,0,0,0.1,0c0,0,0,0,0.1,0c0,0,0,0,0,0c0,0,0,0,0.1,0c0,0,0,0,0,0 c0,0,0.1,0,0.1,0c0,0,0,0,0,0c0.3,0.1,0.5,0.1,0.8,0.2l-0.4,2c-1.3-0.3-2.6-0.6-3.9-0.8L331.6,8.2z M339.4,9.9 c0.2,0,0.3,0.1,0.5,0.1l0,0c0,0,0.1,0,0.1,0c0,0,0,0,0,0c0,0,0,0,0.1,0c0,0,0,0,0,0c0,0,0,0,0,0c0.1,0,0.2,0,0.3,0.1c0,0,0,0,0,0 c0,0,0.1,0,0.1,0c0,0,0,0,0,0c0.4,0.1,0.7,0.2,1.1,0.3c0,0,0,0,0,0c0,0,0,0,0.1,0c0,0,0,0,0,0c0,0,0,0,0.1,0c0,0,0,0,0.1,0 c0,0,0,0,0,0c0,0,0.1,0,0.1,0l0,0c0.4,0.1,0.8,0.2,1.2,0.3l-0.5,1.9c-1.3-0.3-2.6-0.6-3.9-0.9L339.4,9.9z M347.1,11.9 C347.1,11.9,347.1,11.9,347.1,11.9C347.2,11.9,347.2,11.9,347.1,11.9c0.1,0,0.1,0,0.1,0c0,0,0,0,0,0c0.7,0.2,1.5,0.4,2.2,0.6 c0,0,0,0,0,0c0,0,0,0,0.1,0c0,0,0,0,0,0c0,0,0,0,0.1,0c0,0,0,0,0.1,0c0,0,0,0,0,0c0,0,0.1,0,0.1,0c0,0,0,0,0,0c0,0,0.1,0,0.1,0 c0,0,0,0,0,0c0,0,0.1,0,0.1,0c0,0,0,0,0,0c0,0,0.1,0,0.1,0c0,0,0,0,0,0c0,0,0.1,0,0.1,0c0,0,0,0,0,0c0,0,0.1,0,0.1,0l0,0 c0.1,0,0.2,0,0.2,0.1l0,0c0,0,0.1,0,0.1,0c0,0,0,0,0,0c0,0,0.1,0,0.1,0c0,0,0,0,0,0l-0.5,1.9c-1.3-0.4-2.6-0.7-3.8-1.1 L347.1,11.9z M354.8,14.1c0.1,0,0.3,0.1,0.4,0.1c0,0,0,0,0,0c0,0,0.1,0,0.1,0c0,0,0,0,0,0c0,0,0.1,0,0.1,0c0,0,0,0,0,0 c0,0,0.1,0,0.1,0c0,0,0,0,0,0c0.1,0,0.1,0,0.2,0c0,0,0,0,0.1,0c0,0,0,0,0.1,0c0,0,0,0,0.1,0c0,0,0,0,0,0c0,0,0.1,0,0.1,0 c0,0,0,0,0,0c0,0,0.1,0,0.1,0l0,0c0.8,0.2,1.5,0.5,2.3,0.7c0,0,0,0,0,0c0,0,0.1,0,0.1,0c0,0,0,0,0,0c0,0,0,0,0.1,0c0,0,0,0,0,0 l-0.6,1.9c-1.3-0.4-2.5-0.8-3.8-1.2L354.8,14.1z M362.4,16.5c0.6,0.2,1.3,0.4,1.9,0.6l0,0c0,0,0.1,0,0.1,0c0,0,0,0,0,0 c0,0,0.1,0,0.1,0c0,0,0,0,0,0c0,0,0.1,0,0.1,0l0,0c0.1,0,0.2,0.1,0.2,0.1l0,0c0,0,0.1,0,0.1,0c0,0,0,0,0,0c0,0,0.1,0,0.1,0 c0,0,0,0,0,0c0,0,0.1,0,0.1,0l0,0c0.3,0.1,0.6,0.2,0.9,0.3l-0.7,1.9c-1.2-0.4-2.5-0.9-3.8-1.3L362.4,16.5z M370,19.1 c1.1,0.4,2.1,0.8,3.2,1.2c0,0,0,0,0,0c0,0,0,0,0,0c0,0,0,0,0.1,0c0,0,0,0,0,0c0,0,0.1,0,0.1,0l0,0c0.1,0,0.2,0.1,0.2,0.1 l-0.7,1.9c-1.2-0.5-2.5-0.9-3.7-1.4L370,19.1z M377.4,22c0.3,0.1,0.7,0.3,1,0.4c0,0,0,0,0,0c0,0,0.1,0,0.1,0c0,0,0,0,0,0 c0,0,0.1,0,0.1,0l0,0c0.1,0,0.1,0.1,0.2,0.1l0,0c0,0,0.1,0,0.1,0c0,0,0,0,0,0c0,0,0.1,0,0.1,0c0,0,0,0,0,0c0,0,0.1,0,0.1,0 c0,0,0,0,0,0c0.1,0,0.1,0.1,0.2,0.1c0,0,0,0,0,0c0,0,0.1,0,0.1,0c0,0,0,0,0,0c0,0,0.1,0,0.1,0c0,0,0,0,0,0c0,0,0.1,0,0.1,0l0,0 c0.1,0,0.2,0.1,0.2,0.1l0,0c0,0,0.1,0,0.1,0l0,0c0.3,0.1,0.6,0.3,0.9,0.4l-0.8,1.8c-1.2-0.5-2.5-1-3.7-1.5L377.4,22z M384.8,25.1 c1.2,0.5,2.4,1.1,3.7,1.6l-0.8,1.8c-1.2-0.5-2.4-1.1-3.6-1.6L384.8,25.1z M392.1,28.4c0.3,0.1,0.6,0.3,0.8,0.4c0,0,0,0,0,0 c0,0,0,0,0.1,0c0,0,0,0,0,0c0,0,0.1,0,0.1,0c0,0,0,0,0,0c0.1,0,0.2,0.1,0.2,0.1c0,0,0,0,0,0c0,0,0,0,0.1,0c0,0,0,0,0,0 c0,0,0,0,0.1,0c0,0,0,0,0,0c0,0,0,0,0.1,0c0,0,0,0,0,0c0.1,0,0.2,0.1,0.2,0.1c0,0,0,0,0,0c0,0,0,0,0.1,0c0,0,0,0,0,0 c0,0,0,0,0.1,0c0,0,0,0,0,0c0.1,0.1,0.2,0.1,0.3,0.2c0,0,0,0,0,0c0,0,0,0,0.1,0c0,0,0,0,0,0c0,0,0,0,0.1,0c0,0,0,0,0,0 c0.1,0.1,0.2,0.1,0.4,0.2c0,0,0,0,0,0c0,0,0.1,0,0.1,0c0,0,0,0,0,0c0.1,0.1,0.3,0.1,0.4,0.2c0,0,0,0,0,0c0,0,0,0,0,0l-0.9,1.8 c-1.2-0.6-2.4-1.2-3.6-1.7L392.1,28.4z M399.3,31.9c0,0,0.1,0,0.1,0.1c0,0,0,0,0,0c0,0,0,0,0.1,0c0,0,0,0,0,0s0,0,0,0 c0.8,0.4,1.6,0.8,2.4,1.3c0,0,0,0,0,0c0,0,0.1,0,0.1,0c0,0,0,0,0,0c0,0,0.1,0,0.1,0c0,0,0,0,0,0c0,0,0,0,0.1,0c0,0,0.1,0,0.1,0 c0,0,0,0,0,0c0,0,0,0,0.1,0c0,0,0,0,0,0c0,0,0.1,0,0.1,0c0,0,0,0,0,0c0,0,0.1,0,0.1,0.1l0,0c0,0,0.1,0,0.1,0.1l-0.9,1.8 c-1.2-0.6-2.4-1.2-3.5-1.8L399.3,31.9z M406.4,35.7c0.1,0.1,0.2,0.1,0.3,0.2c0,0,0,0,0,0c0,0,0.1,0,0.1,0.1c0,0,0,0,0,0 c0.1,0.1,0.2,0.1,0.3,0.2l0,0c0,0,0.1,0,0.1,0.1l0,0c0.9,0.5,1.7,1,2.6,1.5l-1,1.7c-1.1-0.6-2.3-1.3-3.5-1.9L406.4,35.7z M413.3,39.6C413.4,39.6,413.4,39.6,413.3,39.6C413.4,39.6,413.4,39.6,413.3,39.6c0.1,0.1,0.1,0.1,0.1,0.1c0,0,0,0,0,0 c0.1,0,0.2,0.1,0.2,0.1c0,0,0,0,0,0c0,0,0,0,0.1,0c0,0,0,0,0,0c0,0,0,0,0.1,0c0,0,0,0,0,0c0,0,0,0,0.1,0c0,0,0,0,0,0 c0.1,0,0.1,0.1,0.2,0.1c0,0,0,0,0,0c0,0,0,0,0.1,0c0,0,0,0,0,0c0,0,0,0,0.1,0c0,0,0,0,0,0c0.6,0.3,1.2,0.7,1.7,1c0,0,0,0,0,0 c0,0,0,0,0.1,0c0,0,0,0,0.1,0c0,0,0,0,0,0c0,0,0.1,0,0.1,0c0,0,0,0,0,0c0.1,0.1,0.2,0.1,0.3,0.2l-1,1.7c-1.1-0.7-2.3-1.4-3.4-2 L413.3,39.6L413.3,39.6z M420.2,43.7c0.1,0,0.1,0.1,0.2,0.1c0,0,0,0,0,0c0,0,0.1,0,0.1,0c0,0,0,0,0,0c0,0,0,0,0.1,0 c0,0,0.1,0,0.1,0.1c0,0,0,0,0,0c0,0,0.1,0,0.1,0.1c0,0,0,0,0,0c0,0,0.1,0,0.1,0.1l0,0c0.9,0.6,1.8,1.2,2.7,1.7l-1.1,1.7 c-1.1-0.7-2.2-1.4-3.4-2.1L420.2,43.7L420.2,43.7z M426.9,48.1c0.8,0.6,1.7,1.1,2.5,1.7c0,0,0,0,0,0c0,0,0.1,0,0.1,0.1 c0,0,0,0,0,0c0.1,0,0.2,0.1,0.2,0.2c0,0,0,0,0,0c0,0,0,0,0,0c0,0,0,0,0.1,0c0,0,0,0,0,0c0,0,0,0,0.1,0c0,0,0,0,0,0 c0.1,0,0.1,0.1,0.2,0.1l-1.1,1.6c-1.1-0.7-2.2-1.5-3.3-2.2L426.9,48.1L426.9,48.1z M433.5,52.6c1,0.7,1.9,1.4,2.9,2.1 c0,0,0,0,0,0c0,0,0,0,0.1,0c0,0,0,0,0,0c0,0,0,0,0.1,0c0,0,0,0,0.1,0c0,0,0,0,0,0c0,0,0.1,0,0.1,0.1c0,0,0,0,0,0l-1.2,1.6 c-1.1-0.8-2.1-1.6-3.2-2.3L433.5,52.6L433.5,52.6z M440,57.3C440,57.3,440,57.3,440,57.3C440,57.4,440,57.4,440,57.3 c0.1,0.1,0.1,0.1,0.1,0.1c0,0,0,0,0,0c0.1,0.1,0.3,0.2,0.4,0.3c0,0,0,0,0,0c0,0,0,0,0.1,0.1c0,0,0,0,0,0c0.1,0.1,0.2,0.2,0.3,0.2 c0,0,0,0,0,0c0,0,0,0,0.1,0c0,0,0,0,0,0c0,0,0,0,0,0c0,0,0,0,0.1,0c0,0,0,0,0,0c0.1,0,0.1,0.1,0.2,0.1l0,0c0,0,0.1,0,0.1,0.1l0,0 c0.6,0.4,1.1,0.9,1.7,1.3l-1.2,1.6c-1-0.8-2.1-1.6-3.2-2.4L440,57.3z M446.3,62.2c0.1,0.1,0.3,0.2,0.4,0.3c0,0,0,0,0,0 c0,0,0,0,0.1,0c0,0,0,0,0.1,0c0,0,0,0,0,0c0.7,0.6,1.4,1.1,2.1,1.7c0,0,0,0,0,0c0,0,0,0,0,0c0,0,0,0,0.1,0.1c0,0,0,0,0,0 c0.1,0.1,0.2,0.2,0.3,0.2l-1.3,1.5c-1-0.8-2.1-1.7-3.1-2.5L446.3,62.2z M452.5,67.3c0.7,0.6,1.4,1.2,2.1,1.8c0,0,0,0,0,0 c0,0,0.1,0,0.1,0.1c0,0,0,0,0,0c0,0,0,0,0.1,0.1c0,0,0,0,0,0c0,0,0.1,0,0.1,0.1c0,0,0,0,0,0c0,0,0,0,0,0c0,0,0,0,0.1,0 c0,0,0,0,0,0c0,0,0,0,0.1,0.1c0,0,0,0,0,0c0.1,0.1,0.3,0.3,0.4,0.4l-1.3,1.5c-1-0.9-2-1.7-3-2.6L452.5,67.3z M458.5,72.6 L458.5,72.6c1,0.9,2,1.8,3,2.7l-1.4,1.5c-1-0.9-2-1.8-2.9-2.7L458.5,72.6z M464.3,78c0.4,0.4,0.9,0.9,1.3,1.3l0,0 c0,0,0,0,0.1,0.1c0,0,0,0,0,0c0,0,0,0,0,0c0,0,0,0,0,0c0,0,0,0,0,0c0.4,0.4,0.9,0.9,1.3,1.3l-1.4,1.4c-0.9-0.9-1.9-1.9-2.9-2.8 L464.3,78L464.3,78z M470,83.6c0.8,0.8,1.7,1.7,2.5,2.5c0,0,0,0,0,0c0,0,0,0,0.1,0.1c0,0,0,0,0,0c0.1,0.1,0.1,0.1,0.2,0.2 c0,0,0,0,0.1,0.1l0,0l-1.4,1.4c-0.9-1-1.8-1.9-2.8-2.8L470,83.6L470,83.6z M475.6,89.4c0.1,0.1,0.1,0.1,0.2,0.2l0,0 c0,0,0.1,0.1,0.1,0.1c0,0,0,0,0.1,0.1c0,0,0,0,0,0c0,0,0,0,0.1,0.1c0,0,0,0,0,0c0.4,0.4,0.8,0.8,1.2,1.3c0,0,0,0,0,0 c0,0,0,0,0.1,0.1c0,0,0,0,0,0c0,0,0,0,0.1,0.1c0,0,0,0,0,0c0,0,0.1,0.1,0.1,0.1c0,0,0,0,0,0c0,0,0,0,0,0c0,0,0,0,0,0c0,0,0,0,0,0 c0,0,0,0,0,0.1c0,0,0,0,0,0c0,0,0,0,0.1,0.1c0,0,0,0,0,0c0,0,0,0.1,0.1,0.1c0,0,0,0,0,0c0,0,0,0,0,0.1c0,0,0,0,0,0c0,0,0,0,0,0 c0,0,0,0,0,0.1c0,0,0,0,0,0c0.1,0.1,0.2,0.2,0.3,0.3l-1.5,1.3c-0.9-1-1.8-2-2.7-2.9L475.6,89.4z M480.9,95.3 c0.4,0.5,0.9,1,1.3,1.5l0,0c0,0,0,0.1,0.1,0.1c0,0,0,0,0,0c0,0,0,0,0.1,0.1c0,0,0,0,0,0c0,0,0,0,0.1,0.1c0,0,0,0,0,0 c0,0,0.1,0.1,0.1,0.1c0,0,0,0,0,0c0,0,0,0,0.1,0.1c0,0,0,0,0,0c0,0,0,0,0.1,0.1c0,0,0,0,0,0c0,0,0,0,0.1,0.1c0,0,0,0,0,0 c0,0,0,0.1,0.1,0.1c0,0,0,0,0,0c0,0,0.1,0.1,0.1,0.1l0,0c0,0,0,0.1,0.1,0.1c0,0,0,0,0,0c0.2,0.2,0.3,0.4,0.5,0.6l-1.5,1.3 c-0.9-1-1.7-2-2.6-3L480.9,95.3z M486.1,101.4c0.3,0.4,0.6,0.7,0.9,1.1c0,0,0,0,0,0c0,0,0,0,0.1,0.1c0,0,0,0,0,0c0,0,0,0,0,0 c0,0,0,0,0,0.1c0,0,0,0,0,0c0.5,0.6,1,1.2,1.5,1.8l-1.6,1.3c-0.8-1-1.7-2.1-2.5-3.1L486.1,101.4z M491.1,107.7 c0.7,0.9,1.4,1.8,2.1,2.8c0,0,0,0,0,0c0,0,0,0,0,0c0,0,0,0,0,0.1c0,0,0,0,0,0c0.1,0.1,0.1,0.2,0.2,0.2L492,112 c-0.8-1.1-1.6-2.1-2.4-3.1L491.1,107.7z M496,114c0.1,0.2,0.2,0.3,0.4,0.5c0,0,0,0,0,0c0,0,0,0,0,0.1c0,0,0,0,0,0.1c0,0,0,0,0,0 c0.6,0.8,1.2,1.7,1.9,2.6l-1.6,1.2c-0.8-1.1-1.5-2.2-2.3-3.2L496,114z M500.6,120.6c0.8,1.1,1.5,2.2,2.2,3.3l-1.7,1.1 c-0.7-1.1-1.5-2.2-2.2-3.3L500.6,120.6z M505.1,127.2c0.6,0.9,1.1,1.8,1.7,2.6l0,0c0,0,0,0.1,0.1,0.1l0,0c0,0.1,0.1,0.1,0.1,0.2 c0,0,0,0,0,0c0,0,0,0.1,0.1,0.1c0,0,0,0,0,0c0,0,0,0.1,0,0.1c0,0,0,0,0,0c0,0,0,0,0,0.1c0,0,0,0,0,0c0,0,0,0.1,0.1,0.1l0,0 l-1.7,1.1c-0.7-1.1-1.4-2.2-2.1-3.3L505.1,127.2z M509.3,134c0.1,0.2,0.3,0.5,0.4,0.7c0,0,0,0,0,0c0,0,0,0,0,0.1c0,0,0,0,0,0 c0,0,0,0,0,0.1c0,0,0,0,0,0.1c0,0,0,0,0,0c0,0,0,0.1,0.1,0.1c0,0,0,0,0,0c0,0,0,0.1,0.1,0.1c0,0,0,0,0,0c0,0,0,0.1,0.1,0.1l0,0 c0,0,0,0.1,0.1,0.1l0,0c0.4,0.7,0.8,1.4,1.2,2l-1.7,1c-0.7-1.1-1.4-2.3-2-3.4L509.3,134L509.3,134z M513.4,140.9 c0.2,0.3,0.3,0.6,0.5,0.9c0,0,0,0,0,0c0,0,0,0.1,0.1,0.1l0,0c0.4,0.7,0.8,1.4,1.2,2.1l0,0c0,0.1,0.1,0.1,0.1,0.2c0,0,0,0,0,0 c0,0,0,0.1,0,0.1c0,0,0,0,0,0.1c0,0,0,0,0,0c0,0,0,0,0,0l-1.8,1c-0.6-1.2-1.3-2.3-1.9-3.5L513.4,140.9z M517.2,147.9 c0,0,0,0.1,0.1,0.1l0,0c0,0,0,0.1,0,0.1c0,0,0,0,0,0c0,0,0,0.1,0,0.1c0,0,0,0,0,0c0,0,0,0.1,0.1,0.1c0,0,0,0,0,0c0,0,0,0,0,0 c0,0,0,0,0,0.1c0,0,0,0,0,0c0,0,0,0,0,0.1c0,0,0,0,0,0c0.1,0.1,0.1,0.2,0.2,0.3c0,0,0,0,0,0c0,0,0,0.1,0,0.1c0,0,0,0,0,0 c0.1,0.2,0.2,0.4,0.3,0.5c0,0,0,0,0,0c0.1,0.2,0.2,0.3,0.2,0.4c0,0,0,0,0,0c0,0,0,0.1,0,0.1c0,0,0,0,0,0c0.1,0.1,0.1,0.2,0.2,0.3 c0,0,0,0,0,0c0,0,0,0,0,0.1c0,0,0,0,0,0c0,0,0,0,0,0.1c0,0,0,0,0,0c0,0,0,0,0,0.1c0,0,0,0,0,0.1c0,0,0,0,0,0.1c0,0,0,0,0,0.1 c0,0,0,0,0,0c0,0,0,0,0,0.1c0,0,0,0,0,0c0,0,0,0,0,0.1c0,0,0,0,0,0c0,0,0,0.1,0,0.1c0,0,0,0,0,0c0,0,0,0.1,0.1,0.1l-1.8,0.9 c-0.6-1.2-1.2-2.4-1.8-3.5L517.2,147.9z M520.8,155c0.6,1.2,1.2,2.4,1.7,3.6l-1.8,0.9c-0.6-1.2-1.1-2.4-1.7-3.6L520.8,155z M524.3,162.3C524.3,162.3,524.3,162.3,524.3,162.3c0,0,0,0.1,0,0.1c0,0,0,0,0,0c0,0,0,0.1,0,0.1l0,0c0.2,0.5,0.5,1.1,0.7,1.6 l0,0c0.3,0.6,0.5,1.2,0.8,1.8l-1.8,0.8c-0.5-1.2-1.1-2.4-1.6-3.6L524.3,162.3z M527.5,169.6c0.2,0.4,0.3,0.8,0.5,1.1c0,0,0,0,0,0 c0,0,0,0,0,0.1c0,0,0,0,0,0.1c0,0,0,0,0,0c0,0,0,0,0,0.1c0,0,0,0,0,0c0,0.1,0.1,0.2,0.1,0.3c0,0,0,0,0,0c0,0,0,0.1,0,0.1 c0,0,0,0,0,0c0,0,0,0.1,0,0.1c0,0,0,0,0,0c0,0,0,0.1,0,0.1c0,0,0,0,0,0c0,0.1,0.1,0.2,0.1,0.3c0,0,0,0,0,0c0,0,0,0,0,0.1 c0,0,0,0,0,0c0,0,0,0,0,0.1c0,0,0,0,0,0.1c0,0,0,0,0,0c0,0,0,0.1,0,0.1c0,0,0,0,0,0c0,0,0,0.1,0,0.1c0,0,0,0,0,0c0,0,0,0.1,0,0.1 c0,0,0,0,0,0c0.1,0.3,0.2,0.5,0.3,0.8l-1.9,0.7c-0.5-1.2-1-2.5-1.5-3.7L527.5,169.6z M530.5,177c0.4,1,0.8,2.1,1.2,3.1 c0,0,0,0,0,0c0,0,0,0.1,0,0.1c0,0,0,0,0,0c0,0.1,0.1,0.2,0.1,0.3c0,0,0,0,0,0c0,0,0,0,0,0.1c0,0,0,0,0,0c0,0,0,0,0,0.1 c0,0,0,0,0,0c0,0,0,0,0,0l-1.9,0.7c-0.5-1.2-0.9-2.5-1.4-3.7L530.5,177L530.5,177z M533.2,184.5c0.3,0.7,0.5,1.4,0.8,2.2 c0,0,0,0,0,0c0,0.1,0.1,0.2,0.1,0.4c0,0,0,0,0,0c0,0,0,0.1,0,0.1c0,0,0,0,0,0c0,0,0,0,0,0.1c0,0,0,0,0,0c0,0,0,0.1,0,0.1 c0,0,0,0,0,0c0.1,0.3,0.2,0.6,0.3,0.9l-1.9,0.6c-0.4-1.2-0.9-2.5-1.3-3.8L533.2,184.5z M535.8,192.1c0.4,1.3,0.8,2.5,1.2,3.8 l-1.9,0.6c-0.4-1.3-0.8-2.5-1.2-3.8L535.8,192.1z M538.1,199.7C538.1,199.8,538.1,199.8,538.1,199.7 C538.1,199.8,538.1,199.8,538.1,199.7c0,0.1,0,0.1,0,0.1c0,0,0,0.1,0,0.1c0,0,0,0,0,0c0,0,0,0.1,0,0.1c0,0,0,0,0,0 c0,0,0,0.1,0,0.1c0,0,0,0,0,0c0,0,0,0.1,0,0.1c0,0,0,0,0,0c0,0,0,0.1,0,0.1c0,0,0,0,0,0c0,0.1,0,0.2,0.1,0.2c0,0,0,0,0,0 c0,0,0,0.1,0,0.1c0,0,0,0,0,0c0,0,0,0.1,0,0.1c0,0,0,0,0,0c0,0,0,0.1,0,0.1l0,0c0,0.1,0,0.2,0.1,0.2c0,0,0,0,0,0c0,0,0,0.1,0,0.1 c0,0,0,0,0,0c0,0,0,0,0,0.1c0,0,0,0,0,0c0,0,0,0,0,0.1c0,0,0,0,0,0c0,0,0,0.1,0,0.1c0,0,0,0,0,0c0,0,0,0.1,0,0.1c0,0,0,0,0,0 c0,0,0,0,0,0.1c0,0,0,0,0,0c0,0,0,0,0,0.1c0,0,0,0,0,0c0,0,0,0,0,0.1c0,0,0,0,0,0c0,0,0,0.1,0,0.1c0,0,0,0,0,0c0,0,0,0.1,0,0.1 c0,0,0,0,0,0c0,0,0,0.1,0,0.1c0,0,0,0,0,0c0,0,0,0.1,0,0.1c0,0,0,0,0,0c0,0,0,0.1,0,0.1c0,0,0,0,0,0c0.1,0.2,0.1,0.5,0.2,0.7 l-1.9,0.5c-0.3-1.3-0.7-2.6-1.1-3.8L538.1,199.7z M540.2,207.5c0.3,1.3,0.7,2.6,1,3.9l-1.9,0.5c-0.3-1.3-0.6-2.6-1-3.9 L540.2,207.5z M542.1,215.2c0.2,0.7,0.3,1.4,0.5,2.1l0,0c0,0,0,0.1,0,0.1c0,0,0,0,0,0c0,0,0,0.1,0,0.1c0,0,0,0,0,0 c0,0,0,0.1,0,0.1c0,0,0,0,0,0c0,0,0,0.1,0,0.1c0,0,0,0,0,0c0,0,0,0,0,0.1c0,0,0,0,0,0.1c0,0,0,0,0,0.1c0,0,0,0,0,0.1c0,0,0,0,0,0 c0,0,0,0,0,0.1c0,0,0,0,0,0c0,0,0,0.1,0,0.1c0,0,0,0,0,0.1c0,0,0,0,0,0.1c0,0,0,0,0,0.1c0,0,0,0,0,0c0,0,0,0,0,0.1c0,0,0,0,0,0 c0,0,0,0.1,0,0.1c0,0,0,0,0,0c0,0.1,0.1,0.2,0.1,0.4l-2,0.4c-0.3-1.3-0.6-2.6-0.8-3.9L542.1,215.2z M543.7,223.1 c0.3,1.3,0.5,2.6,0.7,3.9l-2,0.4c-0.2-1.3-0.5-2.6-0.7-3.9L543.7,223.1z M545.1,231c0.2,1.3,0.4,2.6,0.6,4l-2,0.3 c-0.2-1.3-0.4-2.6-0.6-3.9L545.1,231z M546.3,238.9c0.2,1.2,0.3,2.5,0.5,3.7l0,0c0,0,0,0.1,0,0.1c0,0,0,0,0,0c0,0,0,0.1,0,0.1 c0,0,0,0,0,0l-2,0.2c-0.2-1.3-0.3-2.6-0.5-3.9L546.3,238.9z M547.2,246.8c0,0.3,0.1,0.7,0.1,1c0,0,0,0,0,0c0,0,0,0.1,0,0.1 c0,0,0,0,0,0.1c0,0,0,0,0,0.1c0,0,0,0,0,0.1c0,0,0,0,0,0c0,0,0,0,0,0.1c0,0,0,0,0,0c0,0,0,0.1,0,0.1c0,0,0,0,0,0 c0,0.4,0.1,0.8,0.1,1.3c0,0,0,0,0,0c0,0,0,0.1,0,0.1c0,0,0,0,0,0c0,0,0,0.1,0,0.1c0,0,0,0,0,0c0,0,0,0,0,0.1c0,0,0,0,0,0.1 c0,0,0,0,0,0.1c0,0,0,0.1,0,0.1l0,0c0,0,0,0.1,0,0.1l0,0c0,0,0,0.1,0,0.1c0,0,0,0,0,0c0,0.1,0,0.2,0,0.4l-2,0.2 c-0.1-1.3-0.2-2.6-0.4-4L547.2,246.8z M547.9,254.8c0.1,1.2,0.2,2.5,0.2,3.7c0,0,0,0,0,0c0,0,0,0,0,0.1c0,0,0,0,0,0.1 c0,0,0,0,0,0c0,0,0,0.1,0,0.1c0,0,0,0,0,0l-2,0.1c-0.1-1.3-0.2-2.6-0.3-4L547.9,254.8z M548.4,262.8c0,0.3,0,0.6,0,0.8 c0,0,0,0,0,0c0,0,0,0,0,0.1c0,0,0,0,0,0.1c0,0,0,0,0,0.1c0,0,0,0.1,0,0.1c0,0,0,0,0,0c0,0,0,0.1,0,0.1c0,0,0,0,0,0 c0,0,0,0.1,0,0.1l0,0c0,0.9,0.1,1.7,0.1,2.6l-2,0.1c0-1.3-0.1-2.7-0.1-4L548.4,262.8L548.4,262.8z M548.7,270.8 c0,0.9,0,1.8,0,2.7c0,0,0,0,0,0c0,0,0,0,0,0.1c0,0,0,0,0,0c0,0,0,0,0,0.1c0,0,0,0,0,0.1c0,0,0,0,0,0.1c0,0,0,0,0,0.1 c0,0,0,0,0,0.1c0,0,0,0,0,0.1c0,0,0,0,0,0c0,0,0,0.1,0,0.1c0,0,0,0,0,0c0,0,0,0.1,0,0.1c0,0,0,0,0,0c0,0,0,0.1,0,0.1c0,0,0,0,0,0 c0,0,0,0.1,0,0.1c0,0,0,0,0,0c0,0,0,0,0,0.1c0,0,0,0,0,0.1c0,0,0,0,0,0.1c0,0,0,0,0,0l-2,0c0-1.3,0-2.7,0-4L548.7,270.8 L548.7,270.8z M546.7,278.7l2,0c0,0.2,0,0.3,0,0.5l0,0c0,0,0,0.1,0,0.1c0,0,0,0,0,0c0,0,0,0.1,0,0.1v0c0,0.1,0,0.2,0,0.4l0,0 c0,0,0,0.1,0,0.1c0,0,0,0,0,0c0,0,0,0.1,0,0.1c0,0,0,0,0,0c0,0,0,0.1,0,0.1c0,0,0,0,0,0c0,0,0,0.1,0,0.1c0,0,0,0,0,0 c0,0,0,0.1,0,0.1c0,0,0,0,0,0c0,0.1,0,0.2,0,0.2c0,0,0,0,0,0c0,0,0,0.1,0,0.1c0,0,0,0,0,0c0,0,0,0.1,0,0.1c0,0,0,0,0,0 c0,0,0,0.1,0,0.1c0,0,0,0,0,0c0,0,0,0.1,0,0.1c0,0,0,0,0,0c0,0.5,0,1,0,1.5l-2-0.1C546.6,281.4,546.6,280.1,546.7,278.7z M546.4,286.7l2,0.1c0,0.1,0,0.2,0,0.3c0,0,0,0,0,0c0,0,0,0.1,0,0.1c0,0,0,0,0,0c0,0,0,0,0,0.1c0,0,0,0,0,0c0,0,0,0,0,0.1 c0,0,0,0,0,0.1c0,0,0,0,0,0.1c0,0,0,0,0,0.1c0,0,0,0,0,0.1c0,0,0,0,0,0.1c0,0,0,0.1,0,0.1c0,0,0,0,0,0.1c0,0,0,0,0,0.1 c0,0,0,0,0,0.1c0,0,0,0,0,0.1c0,0,0,0,0,0c0,0,0,0.1,0,0.1c0,0,0,0,0,0c0,0,0,0.1,0,0.1c0,0,0,0,0,0c0,0.8-0.1,1.6-0.1,2.4 l-2-0.1C546.3,289.3,546.4,288,546.4,286.7z M546,294.6l2,0.1c-0.1,1.3-0.2,2.7-0.3,4l-2-0.2C545.8,297.3,545.9,295.9,546,294.6z M545.3,302.5l2,0.2c-0.1,1.1-0.2,2.1-0.3,3.2c0,0,0,0,0,0.1c0,0,0,0,0,0c0,0,0,0.1,0,0.1c0,0,0,0,0,0c0,0.2,0,0.4-0.1,0.6 l-2-0.2C545.1,305.2,545.2,303.8,545.3,302.5z M544.4,310.4l2,0.3c0,0.3-0.1,0.6-0.1,0.9v0c0,0,0,0.1,0,0.1l0,0 c0,0.1,0,0.2,0,0.4c0,0,0,0,0,0c0,0,0,0.1,0,0.1c0,0,0,0,0,0c0,0,0,0,0,0.1c0,0,0,0,0,0.1c0,0,0,0,0,0.1c0,0,0,0,0,0.1 c0,0,0,0,0,0c-0.1,0.7-0.2,1.3-0.3,2c0,0,0,0,0,0c0,0,0,0.1,0,0.1c0,0,0,0,0,0c0,0,0,0,0,0.1l-2-0.3 C544.1,313,544.3,311.7,544.4,310.4z M543.3,318.3l2,0.3c-0.2,1.3-0.4,2.6-0.7,3.9l-2-0.3C542.9,320.9,543.1,319.6,543.3,318.3z M541.9,326.1l2,0.4c-0.2,1.1-0.4,2.1-0.6,3.2l0,0c0,0,0,0.1,0,0.1l0,0c0,0,0,0.1,0,0.1c0,0.2-0.1,0.3-0.1,0.5l-2-0.4 C541.4,328.7,541.7,327.4,541.9,326.1z M540.3,333.9l2,0.4c-0.3,1.3-0.6,2.6-0.9,3.9l-1.9-0.5C539.7,336.5,540,335.2,540.3,333.9 z M538.5,341.6l1.9,0.5c-0.1,0.3-0.2,0.6-0.2,1l0,0c0,0,0,0.1,0,0.1c0,0,0,0,0,0c0,0,0,0.1,0,0.1l0,0c0,0.1,0,0.2-0.1,0.2 c0,0,0,0,0,0c0,0,0,0.1,0,0.1c0,0,0,0,0,0c0,0,0,0,0,0.1c0,0,0,0,0,0c0,0,0,0,0,0.1c0,0,0,0,0,0c0,0,0,0.1,0,0.1c0,0,0,0,0,0 c0,0,0,0.1,0,0.1c0,0,0,0,0,0c0,0,0,0.1,0,0.1c0,0,0,0,0,0c0,0,0,0.1,0,0.1c0,0,0,0,0,0c0,0,0,0.1,0,0.1c0,0,0,0,0,0 c-0.1,0.5-0.3,1-0.4,1.4l-1.9-0.5C537.8,344.2,538.2,342.9,538.5,341.6z M536.4,349.3l1.9,0.5c-0.2,0.5-0.3,1.1-0.5,1.6 c0,0,0,0,0,0c0,0,0,0.1,0,0.1c0,0,0,0,0,0c0,0.1-0.1,0.2-0.1,0.2c0,0,0,0,0,0c0,0,0,0,0,0c0,0,0,0,0,0.1c0,0,0,0,0,0 c0,0,0,0.1,0,0.1c0,0,0,0,0,0c-0.2,0.5-0.3,1-0.5,1.5l-1.9-0.6C535.7,351.8,536.1,350.5,536.4,349.3z M534.2,356.9l1.9,0.6 c0,0,0,0.1,0,0.1c0,0,0,0,0,0c0,0,0,0.1,0,0.1c0,0,0,0,0,0c0,0,0,0.1,0,0.1c0,0,0,0,0,0c0,0,0,0,0,0.1c0,0,0,0,0,0.1 c0,0,0,0,0,0.1c0,0,0,0.1,0,0.1c0,0,0,0,0,0c0,0,0,0.1,0,0.1c0,0,0,0,0,0c0,0,0,0,0,0.1c0,0,0,0,0,0c0,0,0,0.1,0,0.1c0,0,0,0,0,0 c0,0,0,0.1,0,0.1l0,0c0,0,0,0.1,0,0.1c0,0,0,0,0,0c0,0,0,0.1,0,0.1c0,0,0,0,0,0c0,0,0,0,0,0.1c0,0,0,0,0,0c0,0,0,0,0,0.1 c0,0,0,0,0,0c0,0,0,0,0,0.1c0,0,0,0,0,0c0,0,0,0.1,0,0.1c0,0,0,0,0,0.1c0,0,0,0,0,0.1c0,0,0,0,0,0.1c0,0,0,0,0,0c0,0,0,0,0,0.1 c0,0,0,0,0,0c0,0,0,0,0,0.1c0,0,0,0,0,0c0,0.1-0.1,0.2-0.1,0.3c0,0,0,0,0,0c0,0,0,0.1,0,0.1c0,0,0,0,0,0c0,0,0,0.1,0,0.1 c0,0,0,0,0,0c0,0,0,0.1,0,0.1c0,0,0,0,0,0c0,0.1-0.1,0.3-0.1,0.4c0,0,0,0,0,0c0,0,0,0,0,0.1c0,0,0,0,0,0c0,0,0,0,0,0.1 c0,0,0,0,0,0c0,0,0,0,0,0.1c0,0,0,0,0,0.1c0,0,0,0,0,0.1c0,0,0,0.1,0,0.1l0,0c0,0,0,0.1,0,0.1c0,0,0,0,0,0l-1.9-0.6 C533.4,359.4,533.8,358.1,534.2,356.9z M531.7,364.4l1.9,0.7c-0.2,0.5-0.4,1-0.5,1.5c0,0,0,0,0,0c0,0,0,0.1,0,0.1c0,0,0,0,0,0 c0,0,0,0,0,0.1c0,0,0,0,0,0c0,0,0,0,0,0.1c0,0,0,0,0,0c0,0,0,0,0,0.1c0,0,0,0.1,0,0.1c0,0,0,0,0,0c0,0,0,0,0,0.1c0,0,0,0,0,0 c0,0,0,0,0,0.1c0,0,0,0,0,0c0,0,0,0,0,0.1c0,0,0,0,0,0c0,0,0,0.1,0,0.1c0,0,0,0,0,0c0,0,0,0.1,0,0.1l0,0c0,0,0,0.1,0,0.1 c0,0,0,0,0,0c0,0,0,0.1,0,0.1c0,0,0,0,0,0c0,0,0,0.1,0,0.1c0,0,0,0,0,0c0,0,0,0.1,0,0.1l0,0c0,0.1-0.1,0.2-0.1,0.2l0,0 c0,0,0,0.1,0,0.1c0,0,0,0,0,0c0,0,0,0.1,0,0.1c0,0,0,0,0,0c0,0.1-0.1,0.2-0.1,0.2l-1.9-0.7C530.8,366.9,531.2,365.7,531.7,364.4z M528.9,371.9l1.9,0.7c0,0,0,0,0,0c0,0,0,0,0,0c0,0,0,0,0,0.1c0,0,0,0,0,0c0,0,0,0,0,0.1c0,0,0,0.1,0,0.1l0,0c0,0,0,0.1,0,0.1 c0,0,0,0,0,0c0,0,0,0.1,0,0.1c0,0,0,0,0,0c0,0,0,0.1,0,0.1c0,0,0,0,0,0c-0.3,0.7-0.6,1.5-0.9,2.2c0,0,0,0,0,0c0,0,0,0.1,0,0.1 c0,0,0,0,0,0c0,0,0,0.1,0,0.1c0,0,0,0,0,0c0,0,0,0,0,0.1c-0.1,0.2-0.1,0.3-0.2,0.5l-1.9-0.7C528,374.3,528.5,373.1,528.9,371.9z M526,379.2l1.8,0.8c-0.2,0.4-0.3,0.8-0.5,1.1c0,0,0,0,0,0c0,0,0,0.1,0,0.1c0,0,0,0,0,0c0,0,0,0,0,0.1c0,0,0,0,0,0c0,0,0,0,0,0 c-0.3,0.7-0.6,1.5-1,2.2l-1.8-0.8C525,381.7,525.5,380.5,526,379.2z M522.8,386.5l1.8,0.8c0,0,0,0,0,0c0,0,0,0,0,0.1c0,0,0,0,0,0 c0,0,0,0,0,0.1c0,0,0,0,0,0c0,0,0,0,0,0c0,0,0,0.1-0.1,0.1c0,0,0,0,0,0c0,0,0,0,0,0.1c0,0,0,0,0,0c0,0,0,0,0,0.1c0,0,0,0,0,0 c-0.5,1-0.9,2-1.4,3l-1.8-0.8C521.7,388.9,522.3,387.7,522.8,386.5z M519.5,393.7l1.8,0.9c-0.2,0.4-0.4,0.9-0.6,1.3c0,0,0,0,0,0 c0,0,0,0.1,0,0.1c0,0,0,0,0,0c0,0,0,0,0,0.1c0,0,0,0,0,0c0,0,0,0,0,0.1c0,0,0,0,0,0.1c0,0,0,0,0,0c0,0,0,0.1-0.1,0.1c0,0,0,0,0,0 c0,0,0,0.1,0,0.1c0,0,0,0,0,0c0,0,0,0.1-0.1,0.1l0,0c-0.2,0.5-0.5,1-0.7,1.4c0,0,0,0,0,0c0,0,0,0,0,0.1c0,0,0,0,0,0l-1.8-0.9 C518.3,396.1,518.9,394.9,519.5,393.7z M515.9,400.8l1.8,0.9c0,0,0,0,0,0.1c0,0,0,0,0,0c0,0,0,0,0,0.1c0,0,0,0,0,0c0,0,0,0,0,0.1 c0,0,0,0,0,0c0,0.1-0.1,0.1-0.1,0.2c0,0,0,0,0,0.1c0,0,0,0,0,0c0,0,0,0,0,0.1c0,0,0,0,0,0c0,0,0,0,0,0.1c0,0,0,0,0,0 c0,0,0,0.1-0.1,0.1c0,0,0,0,0,0c0,0,0,0.1-0.1,0.1l0,0c0,0,0,0.1-0.1,0.1c0,0,0,0,0,0c0,0,0,0.1-0.1,0.1l0,0 c-0.4,0.7-0.7,1.3-1.1,2c0,0,0,0,0,0c0,0,0,0.1,0,0.1c0,0,0,0,0,0c0,0,0,0.1,0,0.1c0,0,0,0,0,0c0,0,0,0.1-0.1,0.1l0,0l-1.8-1 C514.6,403.2,515.3,402,515.9,400.8z M512.1,407.8l1.7,1c-0.1,0.1-0.1,0.2-0.2,0.3c0,0,0,0,0,0c0,0,0,0,0,0.1c0,0,0,0,0,0 c0,0,0,0,0,0.1c0,0,0,0.1,0,0.1c0,0,0,0,0,0c-0.6,1-1.1,2-1.7,2.9l-1.7-1C510.8,410.1,511.4,408.9,512.1,407.8z M508.1,414.6 l1.7,1c-0.1,0.1-0.1,0.2-0.2,0.3c0,0,0,0,0,0c0,0,0,0,0,0.1c0,0,0,0,0,0.1c0,0,0,0,0,0c0,0,0,0,0,0.1c0,0,0,0,0,0 c-0.6,1-1.2,1.9-1.7,2.8L506,418C506.7,416.9,507.4,415.8,508.1,414.6z M503.9,421.4l1.7,1.1l0,0c0,0,0,0.1-0.1,0.1c0,0,0,0,0,0 c0,0,0,0.1-0.1,0.1c0,0,0,0,0,0c0,0,0,0.1-0.1,0.1c0,0,0,0,0,0c0,0,0,0.1-0.1,0.1c0,0,0,0,0,0c0,0,0,0,0,0.1c0,0,0,0,0,0 c0,0,0,0,0,0.1c0,0,0,0,0,0c0,0,0,0.1-0.1,0.1c0,0,0,0,0,0c0,0,0,0.1-0.1,0.1c0,0,0,0,0,0c0,0,0,0,0,0.1c0,0,0,0,0,0 c0,0,0,0,0,0.1c0,0,0,0,0,0c0,0,0,0.1-0.1,0.1l0,0c0,0.1-0.1,0.1-0.1,0.2c0,0,0,0,0,0c0,0,0,0.1-0.1,0.1c0,0,0,0,0,0 c0,0,0,0.1,0,0.1c0,0,0,0,0,0c0,0,0,0.1-0.1,0.1c0,0,0,0,0,0c0,0,0,0.1-0.1,0.1c0,0,0,0,0,0c0,0,0,0.1-0.1,0.1c0,0,0,0,0,0 c0,0,0,0.1-0.1,0.1c0,0,0,0,0,0c0,0,0,0.1-0.1,0.1c0,0,0,0,0,0c0,0.1-0.1,0.1-0.1,0.2c0,0,0,0,0,0c0,0,0,0,0,0.1c0,0,0,0,0,0 c0,0,0,0,0,0.1c0,0,0,0,0,0c0,0,0,0,0,0.1c0,0,0,0,0,0c0,0,0,0,0,0c0,0-0.1,0.1-0.1,0.1c0,0,0,0,0,0c0,0,0,0,0,0.1c0,0,0,0,0,0 c-0.1,0.2-0.2,0.3-0.3,0.5l-1.7-1.1C502.5,423.6,503.2,422.5,503.9,421.4z M499.5,428l1.7,1.1c-0.6,0.9-1.3,1.9-2,2.8 c0,0,0,0,0,0c0,0,0,0,0,0.1c0,0,0,0,0,0.1c0,0,0,0,0,0c-0.1,0.1-0.1,0.2-0.2,0.3l-1.6-1.2C498,430.2,498.8,429.1,499.5,428z M494.9,434.5l1.6,1.2c-0.2,0.3-0.4,0.6-0.6,0.9c0,0,0,0,0,0c0,0,0,0,0,0.1c0,0,0,0,0,0c0,0,0,0,0,0c0,0,0,0,0,0.1c0,0,0,0,0,0 c0,0,0,0-0.1,0.1c0,0,0,0,0,0.1c0,0,0,0,0,0.1c0,0,0,0,0,0c0,0,0,0,0,0c0,0,0,0,0,0c0,0,0,0,0,0c0,0,0,0,0,0.1c0,0,0,0,0,0 c-0.1,0.1-0.1,0.1-0.2,0.2c0,0,0,0,0,0c0,0,0,0.1-0.1,0.1c0,0,0,0,0,0c-0.3,0.5-0.7,0.9-1,1.3l-1.6-1.2 C493.4,436.6,494.2,435.6,494.9,434.5z M490.2,440.8l1.6,1.2c-0.7,0.9-1.3,1.7-2,2.5c0,0,0,0,0,0c0,0,0,0,0,0c0,0,0,0-0.1,0.1 c0,0,0,0,0,0c-0.1,0.1-0.2,0.3-0.4,0.4l-1.6-1.2C488.5,442.9,489.4,441.9,490.2,440.8z M485.2,447.1l1.5,1.3c0,0,0,0,0,0 c0,0,0,0,0,0c0,0,0,0-0.1,0.1c0,0,0,0.1-0.1,0.1c0,0,0,0,0,0c0,0,0,0-0.1,0.1c0,0,0,0,0,0c0,0,0,0.1-0.1,0.1l0,0 c-0.7,0.9-1.5,1.8-2.2,2.7l-1.5-1.3C483.5,449.1,484.4,448.1,485.2,447.1z M480.1,453.1l1.5,1.3c-0.1,0.1-0.2,0.2-0.2,0.3l0,0 c-0.8,0.9-1.6,1.8-2.4,2.7l-1.5-1.3C478.3,455.1,479.2,454.1,480.1,453.1z M474.8,459l1.5,1.4c0,0,0,0,0,0c0,0,0,0.1-0.1,0.1 c0,0,0,0,0,0c0,0,0,0-0.1,0.1c0,0,0,0,0,0c0,0,0,0-0.1,0.1c0,0,0,0,0,0c-0.1,0.1-0.1,0.1-0.2,0.2l0,0c0,0-0.1,0.1-0.1,0.1 c0,0,0,0,0,0c0,0,0,0-0.1,0.1c0,0,0,0,0,0c0,0,0,0.1-0.1,0.1l0,0c-0.1,0.1-0.1,0.1-0.2,0.2c0,0,0,0,0,0c0,0,0,0-0.1,0.1 c0,0,0,0,0,0c0,0,0,0-0.1,0.1c0,0,0,0,0,0c0,0,0,0-0.1,0.1c0,0,0,0,0,0c0,0,0,0.1-0.1,0.1c0,0,0,0,0,0c0,0,0,0,0,0c0,0,0,0,0,0 c0,0,0,0,0,0c0,0,0,0-0.1,0.1c0,0,0,0,0,0c-0.4,0.5-0.9,0.9-1.3,1.4l-1.4-1.4C473,461,473.9,460,474.8,459z M469.3,464.8l1.4,1.4 c-0.1,0.1-0.1,0.1-0.2,0.2c0,0,0,0,0,0c0,0-0.1,0.1-0.1,0.1c0,0,0,0-0.1,0.1c0,0,0,0,0,0c0,0,0,0-0.1,0.1c0,0,0,0,0,0 c0,0-0.1,0.1-0.1,0.1c0,0,0,0,0,0c-0.5,0.5-1,1-1.5,1.5c0,0,0,0,0,0c0,0-0.1,0.1-0.1,0.1c0,0,0,0,0,0c-0.1,0.1-0.2,0.2-0.3,0.3 c0,0,0,0,0,0c0,0,0,0-0.1,0.1c0,0,0,0,0,0c0,0,0,0-0.1,0.1c0,0,0,0,0,0c0,0-0.1,0.1-0.1,0.1l0,0c0,0-0.1,0.1-0.1,0.1c0,0,0,0,0,0 c0,0,0,0-0.1,0.1c0,0,0,0,0,0l-1.4-1.4C467.4,466.7,468.4,465.7,469.3,464.8z M463.7,470.4l1.4,1.4c-0.5,0.5-1.1,1-1.6,1.5 c0,0,0,0,0,0c0,0,0,0-0.1,0.1c0,0,0,0,0,0c0,0,0,0-0.1,0.1c0,0,0,0,0,0c0,0,0,0,0,0c0,0-0.1,0.1-0.1,0.1l0,0c0,0,0,0-0.1,0.1 c0,0,0,0,0,0c0,0-0.1,0.1-0.1,0.1c0,0,0,0,0,0c-0.2,0.2-0.5,0.5-0.7,0.7l0,0c0,0-0.1,0.1-0.1,0.1c0,0,0,0,0,0l-1.4-1.5 C461.7,472.2,462.7,471.3,463.7,470.4z M457.9,475.8l1.3,1.5c-1,0.9-2,1.8-3,2.7l-1.3-1.5C455.9,477.6,456.9,476.7,457.9,475.8z M451.9,481l1.3,1.5c-0.1,0.1-0.1,0.1-0.2,0.2c0,0,0,0,0,0c0,0,0,0,0,0c0,0,0,0-0.1,0c0,0,0,0,0,0c-0.9,0.8-1.8,1.5-2.7,2.3 l-1.3-1.5C449.9,482.8,450.9,481.9,451.9,481z M445.8,486.1l1.3,1.6c-0.3,0.3-0.6,0.5-1,0.8c0,0,0,0,0,0c0,0,0,0-0.1,0.1 c0,0,0,0,0,0c0,0,0,0-0.1,0c0,0,0,0,0,0c0,0,0,0,0,0c-0.1,0.1-0.1,0.1-0.2,0.2c0,0,0,0,0,0c0,0,0,0-0.1,0.1c0,0,0,0,0,0 c-0.2,0.2-0.5,0.4-0.7,0.6c0,0,0,0,0,0c0,0,0,0,0,0c0,0,0,0,0,0c0,0,0,0,0,0c0,0,0,0-0.1,0.1c0,0,0,0,0,0 c-0.2,0.2-0.5,0.4-0.7,0.5l-1.2-1.6C443.7,487.8,444.8,486.9,445.8,486.1z M439.5,491l1.2,1.6c-1.1,0.8-2.1,1.6-3.2,2.4l-1.2-1.6 C437.4,492.6,438.5,491.8,439.5,491z M433.1,495.7l1.2,1.6c0,0-0.1,0.1-0.1,0.1c0,0,0,0,0,0c0,0,0,0-0.1,0 c-0.9,0.6-1.8,1.2-2.6,1.9l0,0c0,0,0,0-0.1,0.1c0,0,0,0,0,0c0,0,0,0-0.1,0c-0.1,0.1-0.2,0.1-0.2,0.2l-1.1-1.6 C431,497.3,432.1,496.5,433.1,495.7z M426.6,500.2l1.1,1.7c-1.1,0.7-2.2,1.5-3.3,2.2l0,0l-1.1-1.7 C424.4,501.7,425.5,501,426.6,500.2z M420,504.6l1.1,1.7c-0.1,0-0.1,0.1-0.2,0.1c0,0,0,0,0,0c0,0-0.1,0-0.1,0.1c0,0,0,0,0,0 c0,0-0.1,0-0.1,0.1c0,0,0,0-0.1,0c0,0,0,0,0,0c0,0,0,0-0.1,0c0,0,0,0,0,0c0,0,0,0-0.1,0c0,0,0,0,0,0c-0.5,0.3-0.9,0.6-1.4,0.9 c0,0,0,0,0,0c-0.4,0.3-0.9,0.5-1.3,0.8l-1-1.7C417.7,506,418.8,505.3,420,504.6z M413.2,508.7l1,1.7c0,0,0,0,0,0c0,0-0.1,0-0.1,0 c0,0,0,0,0,0c0,0-0.1,0-0.1,0.1l0,0c-0.6,0.4-1.3,0.8-1.9,1.1c0,0,0,0,0,0c0,0-0.1,0-0.1,0.1c0,0,0,0,0,0c0,0-0.1,0-0.1,0 c0,0,0,0,0,0c0,0-0.1,0-0.1,0.1c0,0,0,0,0,0c0,0,0,0-0.1,0c0,0,0,0-0.1,0c0,0,0,0,0,0c0,0,0,0-0.1,0c0,0,0,0,0,0 c-0.2,0.1-0.5,0.3-0.7,0.4l-1-1.7C410.9,510,412,509.4,413.2,508.7z M406.3,512.6l1,1.8c-0.1,0.1-0.2,0.1-0.3,0.2c0,0,0,0,0,0 c0,0,0,0-0.1,0c0,0,0,0-0.1,0c0,0,0,0,0,0c-1,0.5-2,1.1-3,1.6c0,0,0,0,0,0c0,0,0,0-0.1,0l-0.9-1.8 C403.9,513.9,405.1,513.3,406.3,512.6z M399.3,516.4l0.9,1.8c-0.2,0.1-0.4,0.2-0.5,0.3c0,0,0,0,0,0c0,0-0.1,0-0.1,0c0,0,0,0,0,0 c0,0,0,0-0.1,0c0,0,0,0,0,0c0,0,0,0-0.1,0c0,0-0.1,0-0.1,0.1c0,0,0,0,0,0c0,0-0.1,0-0.1,0c0,0,0,0,0,0c0,0-0.1,0-0.1,0 c0,0,0,0,0,0c-0.7,0.3-1.3,0.7-2,1c0,0,0,0,0,0c0,0-0.1,0-0.1,0c0,0,0,0,0,0c0,0,0,0-0.1,0c0,0,0,0,0,0c-0.1,0-0.1,0.1-0.2,0.1 l-0.9-1.8C396.9,517.6,398.1,517,399.3,516.4z M392.1,519.9l0.9,1.8c-0.3,0.1-0.6,0.3-0.9,0.4l0,0c0,0-0.1,0-0.1,0c0,0,0,0,0,0 c0,0-0.1,0-0.1,0c0,0,0,0,0,0c0,0-0.1,0-0.1,0c0,0,0,0,0,0c0,0,0,0-0.1,0c0,0,0,0-0.1,0c0,0,0,0,0,0c0,0,0,0-0.1,0c0,0,0,0,0,0 c0,0,0,0-0.1,0c0,0,0,0,0,0c-0.1,0.1-0.2,0.1-0.4,0.2c0,0,0,0,0,0c-0.5,0.3-1.1,0.5-1.6,0.8l-0.8-1.8 C389.7,521,390.9,520.4,392.1,519.9z M384.9,523.2l0.8,1.8c0,0,0,0,0,0c0,0,0,0-0.1,0c0,0,0,0,0,0c0,0,0,0-0.1,0c0,0,0,0,0,0 c0,0-0.1,0-0.1,0c0,0,0,0,0,0c-0.2,0.1-0.3,0.1-0.5,0.2l0,0c0,0-0.1,0-0.1,0l0,0c-0.1,0-0.2,0.1-0.3,0.1l0,0c0,0-0.1,0-0.1,0 c0,0,0,0,0,0c0,0-0.1,0-0.1,0c0,0,0,0,0,0c0,0-0.1,0-0.1,0c0,0,0,0,0,0c0,0-0.1,0-0.1,0c0,0,0,0,0,0c0,0-0.1,0-0.1,0c0,0,0,0,0,0 c0,0,0,0-0.1,0c0,0,0,0,0,0c0,0,0,0-0.1,0c0,0,0,0,0,0c0,0,0,0-0.1,0c0,0,0,0,0,0c0,0-0.1,0-0.1,0c0,0,0,0-0.1,0c0,0,0,0,0,0 c0,0,0,0-0.1,0c0,0,0,0-0.1,0c0,0,0,0-0.1,0c0,0,0,0-0.1,0c0,0,0,0-0.1,0c0,0,0,0-0.1,0c0,0,0,0,0,0c0,0-0.1,0-0.1,0c0,0,0,0,0,0 c0,0-0.1,0-0.1,0c0,0,0,0,0,0c0,0-0.1,0-0.1,0l0,0c-0.2,0.1-0.4,0.2-0.6,0.2l-0.8-1.8C382.5,524.2,383.7,523.7,384.9,523.2z M377.6,526.3l0.8,1.9c-1.2,0.5-2.5,1-3.7,1.5l-0.7-1.9C375.1,527.3,376.4,526.8,377.6,526.3z M370.2,529.1l0.7,1.9 c-0.3,0.1-0.5,0.2-0.8,0.3c0,0,0,0,0,0c0,0-0.1,0-0.1,0c0,0,0,0,0,0c0,0-0.1,0-0.1,0c0,0,0,0,0,0c0,0-0.1,0-0.1,0l0,0 c0,0-0.1,0-0.1,0c0,0,0,0,0,0c0,0-0.1,0-0.1,0c0,0,0,0,0,0c0,0,0,0-0.1,0c0,0,0,0,0,0c0,0,0,0-0.1,0c0,0,0,0,0,0c0,0,0,0-0.1,0 c0,0,0,0,0,0c0,0-0.1,0-0.1,0c0,0,0,0-0.1,0c0,0,0,0-0.1,0c0,0,0,0-0.1,0c0,0,0,0-0.1,0c0,0,0,0-0.1,0c0,0,0,0-0.1,0c0,0,0,0,0,0 c0,0,0,0-0.1,0c0,0,0,0,0,0c0,0-0.1,0-0.1,0c0,0,0,0,0,0c0,0-0.1,0-0.1,0c0,0,0,0,0,0c0,0-0.1,0-0.1,0c0,0,0,0,0,0 c0,0-0.1,0-0.1,0c0,0,0,0,0,0c-0.2,0.1-0.3,0.1-0.5,0.2l0,0c-0.2,0.1-0.3,0.1-0.5,0.2l-0.7-1.9 C367.7,530.1,369,529.6,370.2,529.1z M362.7,531.8l0.6,1.9c0,0,0,0,0,0c0,0-0.1,0-0.1,0l0,0c-1.2,0.4-2.4,0.8-3.7,1.2l-0.6-1.9 C360.2,532.6,361.5,532.2,362.7,531.8z M355.2,534.2l0.6,1.9c-1.3,0.4-2.6,0.8-3.8,1.1l-0.6-1.9 C352.6,535,353.9,534.6,355.2,534.2z M347.5,536.4l0.5,1.9l0,0c0,0-0.1,0-0.1,0c0,0,0,0,0,0c0,0,0,0-0.1,0c0,0,0,0-0.1,0 c0,0,0,0,0,0c0,0-0.1,0-0.1,0c0,0,0,0,0,0c-0.9,0.3-1.9,0.5-2.8,0.8c0,0,0,0,0,0c0,0,0,0-0.1,0c0,0,0,0,0,0c0,0,0,0-0.1,0 c0,0,0,0-0.1,0c0,0,0,0,0,0c0,0-0.1,0-0.1,0c0,0,0,0,0,0c-0.1,0-0.2,0-0.2,0.1l-0.5-1.9C345,537.1,346.3,536.8,347.5,536.4z M339.8,538.4l0.5,1.9c0,0-0.1,0-0.1,0l0,0c0,0-0.1,0-0.1,0c0,0,0,0,0,0c0,0-0.1,0-0.1,0c0,0,0,0,0,0c0,0-0.1,0-0.1,0 c0,0,0,0,0,0c0,0-0.1,0-0.1,0c0,0,0,0,0,0c0,0-0.1,0-0.1,0c0,0,0,0,0,0c0,0-0.1,0-0.1,0c0,0,0,0,0,0c0,0-0.1,0-0.1,0c0,0,0,0,0,0 c0,0-0.1,0-0.1,0c0,0,0,0,0,0c0,0-0.1,0-0.1,0l0,0c-0.1,0-0.2,0.1-0.4,0.1c0,0,0,0,0,0c0,0-0.1,0-0.1,0l0,0 c-0.2,0-0.3,0.1-0.5,0.1l0,0c0,0-0.1,0-0.1,0l0,0c0,0-0.1,0-0.1,0c0,0,0,0,0,0c0,0-0.1,0-0.1,0l0,0c-0.1,0-0.2,0-0.2,0.1 c0,0,0,0-0.1,0c0,0,0,0,0,0c0,0-0.1,0-0.1,0c0,0,0,0,0,0c-0.3,0.1-0.6,0.1-0.9,0.2l-0.4-2C337.3,539,338.6,538.7,339.8,538.4z M332.1,540.2l0.4,2c-1.1,0.2-2.2,0.4-3.2,0.7c0,0,0,0,0,0c0,0,0,0-0.1,0c0,0,0,0-0.1,0c0,0,0,0,0,0c0,0-0.1,0-0.1,0c0,0,0,0,0,0 c-0.1,0-0.2,0-0.4,0.1l-0.4-2C329.5,540.7,330.8,540.4,332.1,540.2z M324.3,541.7l0.4,2c-0.1,0-0.2,0-0.2,0c0,0,0,0,0,0 c0,0-0.1,0-0.1,0c0,0,0,0-0.1,0c0,0,0,0-0.1,0c0,0,0,0-0.1,0c0,0,0,0,0,0c0,0,0,0-0.1,0c0,0,0,0,0,0c-0.1,0-0.3,0-0.4,0.1 c0,0,0,0,0,0c0,0-0.1,0-0.1,0c0,0,0,0,0,0c0,0-0.1,0-0.1,0c0,0,0,0,0,0c0,0-0.1,0-0.1,0c0,0,0,0,0,0c-0.1,0-0.3,0-0.4,0.1 c0,0,0,0,0,0c0,0-0.1,0-0.1,0c0,0,0,0,0,0c0,0-0.1,0-0.1,0c0,0,0,0,0,0c0,0,0,0-0.1,0c0,0,0,0,0,0c-0.1,0-0.2,0-0.3,0 c0,0,0,0,0,0c0,0,0,0-0.1,0c0,0,0,0,0,0c0,0,0,0-0.1,0c0,0,0,0,0,0c0,0,0,0-0.1,0c0,0,0,0,0,0c0,0-0.1,0-0.1,0c0,0,0,0,0,0 c-0.4,0.1-0.7,0.1-1.1,0.2l-0.3-2C321.7,542.2,323,541.9,324.3,541.7z M316.5,543l0.3,2c-0.2,0-0.5,0.1-0.7,0.1l0,0 c-0.1,0-0.2,0-0.4,0.1c0,0,0,0,0,0c0,0-0.1,0-0.1,0c0,0,0,0-0.1,0c0,0,0,0-0.1,0c0,0,0,0-0.1,0c0,0,0,0-0.1,0c0,0,0,0-0.1,0 c0,0,0,0,0,0c0,0-0.1,0-0.1,0c0,0,0,0,0,0c-0.1,0-0.1,0-0.2,0c0,0,0,0,0,0c0,0-0.1,0-0.1,0c0,0,0,0,0,0c0,0-0.1,0-0.1,0 c0,0,0,0,0,0c0,0-0.1,0-0.1,0c0,0,0,0,0,0c0,0-0.1,0-0.1,0c0,0,0,0,0,0c-0.1,0-0.2,0-0.3,0c0,0,0,0,0,0c0,0,0,0-0.1,0 c0,0,0,0-0.1,0c0,0,0,0-0.1,0c0,0,0,0-0.1,0c0,0,0,0-0.1,0c0,0,0,0-0.1,0c0,0,0,0,0,0c0,0-0.1,0-0.1,0l0,0 c-0.3,0-0.6,0.1-0.9,0.1l-0.3-2C313.8,543.4,315.2,543.2,316.5,543z M308.6,544.1l0.2,2c-0.3,0-0.5,0.1-0.8,0.1c0,0,0,0,0,0 c0,0,0,0-0.1,0c0,0,0,0-0.1,0c0,0,0,0,0,0c0,0-0.1,0-0.1,0c0,0,0,0,0,0c-0.9,0.1-1.9,0.2-2.9,0.3l-0.2-2 C306,544.4,307.3,544.2,308.6,544.1z M300.7,544.9l0.2,2c-1.1,0.1-2.1,0.2-3.2,0.3c0,0,0,0,0,0c0,0,0,0-0.1,0c0,0,0,0,0,0 c0,0,0,0-0.1,0c0,0,0,0-0.1,0c0,0,0,0-0.1,0c0,0,0,0-0.1,0c0,0,0,0,0,0c0,0-0.1,0-0.1,0l0,0c-0.1,0-0.2,0-0.2,0l0,0l-0.2-2 C298.1,545.1,299.4,545,300.7,544.9z M292.8,545.5l0.1,2c-0.5,0-0.9,0.1-1.4,0.1l0,0c0,0-0.1,0-0.1,0l0,0c0,0-0.1,0-0.1,0 c0,0,0,0,0,0c0,0,0,0-0.1,0c-0.1,0-0.1,0-0.1,0c0,0,0,0,0,0c-0.7,0-1.4,0.1-2.2,0.1l-0.1-2C290.1,545.6,291.5,545.6,292.8,545.5z M284.8,545.9l0.1,2c0,0-0.1,0-0.1,0c0,0,0,0,0,0c0,0-0.1,0-0.1,0c0,0,0,0,0,0c0,0,0,0-0.1,0c0,0,0,0-0.1,0c0,0,0,0,0,0 c-0.8,0-1.7,0-2.5,0.1c0,0,0,0,0,0c0,0-0.1,0-0.1,0c0,0,0,0,0,0c0,0-0.1,0-0.1,0c0,0-0.1,0-0.1,0c0,0,0,0,0,0c-0.2,0-0.5,0-0.7,0 l0-2C282.2,545.9,283.5,545.9,284.8,545.9z M272.9,546c1,0,2,0,3,0c0.3,0,0.6,0,1,0l0,2c0,0-0.1,0-0.1,0c0,0,0,0,0,0 c0,0-0.1,0-0.1,0c0,0,0,0,0,0c0,0,0,0-0.1,0c0,0,0,0,0,0c0,0-0.1,0-0.1,0c0,0,0,0,0,0c0,0,0,0-0.1,0c0,0,0,0-0.1,0c0,0,0,0-0.1,0 c0,0,0,0-0.1,0c0,0,0,0-0.1,0c0,0,0,0-0.1,0c0,0,0,0,0,0c0,0-0.1,0-0.1,0l0,0c0,0-0.1,0-0.1,0c0,0,0,0,0,0c0,0,0,0-0.1,0 c0,0,0,0,0,0c0,0,0,0-0.1,0c0,0,0,0,0,0c0,0,0,0-0.1,0c0,0,0,0,0,0c0,0-0.1,0-0.1,0c0,0,0,0,0,0c0,0-0.1,0-0.1,0c0,0,0,0,0,0 c0,0-0.1,0-0.1,0c0,0,0,0,0,0c0,0,0,0-0.1,0c0,0,0,0,0,0c0,0,0,0-0.1,0c0,0,0,0,0,0c0,0,0,0-0.1,0c0,0,0,0-0.1,0c0,0,0,0,0,0 c0,0,0,0-0.1,0c0,0,0,0,0,0c-0.1,0-0.2,0-0.2,0l0,0c0,0-0.1,0-0.1,0c0,0,0,0,0,0c0,0-0.1,0-0.1,0h0c-0.4,0-0.9,0-1.3,0L272.9,546 z M265,545.8c1.3,0.1,2.7,0.1,4,0.1l-0.1,2c-0.8,0-1.5,0-2.3-0.1c0,0,0,0,0,0c0,0-0.1,0-0.1,0c0,0,0,0,0,0c0,0-0.1,0-0.1,0 c0,0,0,0,0,0c0,0,0,0-0.1,0c0,0-0.1,0-0.1,0c0,0,0,0,0,0c0,0-0.1,0-0.1,0c0,0,0,0,0,0c0,0-0.1,0-0.1,0c0,0,0,0,0,0 c0,0-0.1,0-0.1,0c0,0,0,0,0,0c0,0-0.1,0-0.1,0l0,0c-0.2,0-0.5,0-0.7,0c0,0,0,0,0,0L265,545.8z M257.1,545.4 c1.3,0.1,2.6,0.2,4,0.2l-0.1,2c-0.9,0-1.8-0.1-2.7-0.2c0,0,0,0,0,0c0,0-0.1,0-0.1,0c0,0,0,0,0,0c0,0-0.1,0-0.1,0c0,0,0,0,0,0 c0,0,0,0-0.1,0c0,0,0,0-0.1,0c0,0,0,0,0,0c-0.3,0-0.5,0-0.8-0.1L257.1,545.4z M249.1,544.7c1.3,0.1,2.6,0.2,4,0.4l-0.2,2 c-0.5,0-0.9-0.1-1.4-0.1c0,0,0,0,0,0c0,0-0.1,0-0.1,0c0,0,0,0,0,0c0,0-0.1,0-0.1,0c0,0,0,0,0,0c0,0,0,0-0.1,0c0,0,0,0-0.1,0 c0,0,0,0,0,0c-0.7-0.1-1.5-0.1-2.2-0.2L249.1,544.7z M241.3,543.8c1.3,0.2,2.6,0.3,3.9,0.5l-0.2,2l0,0c-0.2,0-0.3,0-0.5-0.1 c0,0,0,0,0,0c0,0-0.1,0-0.1,0l0,0c0,0-0.1,0-0.1,0c0,0,0,0,0,0c-0.2,0-0.3,0-0.5-0.1l0,0c0,0-0.1,0-0.1,0c0,0,0,0,0,0 c0,0-0.1,0-0.1,0c0,0,0,0,0,0c0,0-0.1,0-0.1,0l0,0c-0.1,0-0.2,0-0.4,0c0,0,0,0,0,0c0,0-0.1,0-0.1,0c0,0,0,0,0,0c0,0,0,0-0.1,0 c0,0,0,0-0.1,0c0,0,0,0-0.1,0c0,0,0,0-0.1,0c0,0,0,0-0.1,0c-0.1,0-0.3,0-0.4,0c0,0,0,0,0,0c0,0-0.1,0-0.1,0c0,0,0,0,0,0 c-0.3,0-0.7-0.1-1-0.1L241.3,543.8z M233.4,542.7c1.3,0.2,2.6,0.4,3.9,0.6l-0.3,2c-0.5-0.1-1.1-0.2-1.6-0.2c0,0,0,0,0,0 c0,0-0.1,0-0.1,0c0,0,0,0,0,0c0,0,0,0-0.1,0c0,0,0,0,0,0c0,0-0.1,0-0.1,0c0,0,0,0,0,0c0,0,0,0-0.1,0c0,0,0,0-0.1,0c0,0,0,0,0,0 c0,0-0.1,0-0.1,0c0,0,0,0,0,0c0,0-0.1,0-0.1,0c0,0,0,0,0,0c0,0-0.1,0-0.1,0c0,0,0,0,0,0c0,0-0.1,0-0.1,0c0,0,0,0,0,0 c0,0-0.1,0-0.1,0l0,0c-0.1,0-0.2,0-0.4-0.1l0,0c0,0-0.1,0-0.1,0c0,0,0,0,0,0c0,0-0.1,0-0.1,0c0,0,0,0,0,0c-0.2,0-0.4-0.1-0.6-0.1 L233.4,542.7z M225.6,541.3c1.3,0.2,2.6,0.5,3.9,0.7l-0.3,2c-0.3-0.1-0.6-0.1-0.9-0.2c0,0,0,0,0,0c0,0,0,0-0.1,0c0,0,0,0-0.1,0 c0,0,0,0-0.1,0c0,0,0,0-0.1,0c0,0,0,0,0,0c-0.7-0.1-1.5-0.3-2.2-0.4l0,0c0,0-0.1,0-0.1,0c0,0,0,0,0,0c0,0-0.1,0-0.1,0 c-0.1,0-0.2,0-0.3-0.1L225.6,541.3z M217.8,539.7c1.3,0.3,2.6,0.6,3.9,0.8l-0.4,2c-0.8-0.2-1.6-0.3-2.4-0.5l0,0 c-0.2,0-0.3-0.1-0.5-0.1c0,0,0,0,0,0c0,0-0.1,0-0.1,0c0,0,0,0,0,0c0,0-0.1,0-0.1,0c0,0,0,0,0,0c0,0,0,0-0.1,0c0,0,0,0,0,0 c0,0,0,0-0.1,0c0,0-0.1,0-0.1,0c0,0,0,0,0,0c0,0,0,0-0.1,0c0,0,0,0,0,0c0,0-0.1,0-0.1,0c0,0,0,0,0,0c0,0-0.1,0-0.1,0c0,0,0,0,0,0 c0,0,0,0-0.1,0L217.8,539.7z M210.1,537.9c1.3,0.3,2.6,0.6,3.9,0.9l-0.5,1.9c-1.1-0.3-2.2-0.5-3.3-0.8l0,0c0,0-0.1,0-0.1,0 c0,0,0,0,0,0c0,0,0,0,0,0c-0.1,0-0.3-0.1-0.4-0.1L210.1,537.9z M202.4,535.9c1.3,0.4,2.6,0.7,3.8,1l-0.5,1.9 c-1.3-0.3-2.6-0.7-3.9-1.1L202.4,535.9z M194.8,533.6c1.3,0.4,2.5,0.8,3.8,1.2l-0.6,1.9c-0.2,0-0.3-0.1-0.5-0.1l0,0 c0,0-0.1,0-0.1,0c0,0,0,0,0,0c0,0,0,0-0.1,0c0,0,0,0-0.1,0c0,0,0,0,0,0c0,0-0.1,0-0.1,0c0,0,0,0,0,0c-1-0.3-2-0.6-3-0.9 L194.8,533.6z M187.2,531.1c1.2,0.4,2.5,0.9,3.8,1.3l-0.6,1.9c0,0,0,0,0,0c-0.1,0-0.2-0.1-0.2-0.1c0,0,0,0,0,0c0,0-0.1,0-0.1,0 c0,0,0,0,0,0c0,0-0.1,0-0.1,0c0,0,0,0,0,0c0,0-0.1,0-0.1,0c0,0,0,0,0,0c0,0-0.1,0-0.1,0c0,0,0,0,0,0c0,0-0.1,0-0.1,0c0,0,0,0,0,0 c0,0,0,0-0.1,0c0,0,0,0-0.1,0c0,0,0,0-0.1,0c0,0,0,0-0.1,0c0,0,0,0-0.1,0c0,0,0,0-0.1,0c0,0,0,0,0,0c-0.1,0-0.2-0.1-0.3-0.1 c0,0,0,0,0,0c0,0-0.1,0-0.1,0c0,0,0,0,0,0c0,0-0.1,0-0.1,0c0,0,0,0,0,0c-0.7-0.2-1.4-0.5-2.1-0.7L187.2,531.1z M179.8,528.4 c1.2,0.5,2.5,0.9,3.7,1.4l-0.7,1.9c-0.8-0.3-1.5-0.6-2.3-0.9c0,0,0,0,0,0c0,0-0.1,0-0.1,0c0,0,0,0,0,0c0,0-0.1,0-0.1,0 c0,0,0,0,0,0c0,0,0,0-0.1,0c0,0,0,0-0.1,0c0,0,0,0-0.1,0c0,0-0.1,0-0.1,0c0,0,0,0,0,0c0,0,0,0-0.1,0c0,0,0,0,0,0c0,0,0,0-0.1,0 c0,0,0,0,0,0c0,0-0.1,0-0.1,0c0,0,0,0,0,0c0,0-0.1,0-0.1,0c0,0,0,0,0,0c0,0-0.1,0-0.1,0c0,0,0,0,0,0c0,0-0.1,0-0.1,0c0,0,0,0,0,0 c0,0-0.1,0-0.1,0c0,0,0,0,0,0c0,0-0.1,0-0.1,0c0,0,0,0,0,0L179.8,528.4z M172.4,525.5c1.2,0.5,2.5,1,3.7,1.5l-0.7,1.9 c-0.8-0.3-1.6-0.6-2.4-1c0,0,0,0,0,0c0,0-0.1,0-0.1,0l0,0c-0.4-0.2-0.8-0.3-1.2-0.5L172.4,525.5z M165.1,522.4 c1.2,0.5,2.4,1.1,3.6,1.6l-0.8,1.8c-0.8-0.3-1.5-0.7-2.3-1l0,0c0,0-0.1,0-0.1,0l0,0c0,0-0.1,0-0.1,0c0,0,0,0,0,0 c-0.1,0-0.1-0.1-0.2-0.1c0,0,0,0,0,0c0,0-0.1,0-0.1,0c0,0,0,0,0,0c0,0-0.1,0-0.1,0c0,0,0,0,0,0c0,0-0.1,0-0.1,0c0,0,0,0,0,0 c0,0-0.1,0-0.1,0l0,0c0,0-0.1,0-0.1-0.1l0,0c0,0-0.1,0-0.1,0c0,0,0,0,0,0c0,0-0.1,0-0.1,0c0,0,0,0,0,0c0,0-0.1,0-0.1,0l0,0 L165.1,522.4z M157.9,519c1.2,0.6,2.4,1.1,3.6,1.7l-0.8,1.8c0,0,0,0,0,0c0,0,0,0-0.1,0c0,0,0,0,0,0c0,0-0.1,0-0.1,0c0,0,0,0,0,0 c-0.1,0-0.1-0.1-0.2-0.1l0,0c0,0-0.1,0-0.1,0c0,0,0,0,0,0c0,0-0.1,0-0.1,0c0,0,0,0,0,0c-0.6-0.3-1.3-0.6-1.9-0.9l0,0 c0,0-0.1,0-0.1,0c0,0,0,0,0,0c0,0,0,0-0.1,0c0,0,0,0-0.1,0c0,0,0,0,0,0c-0.2-0.1-0.5-0.2-0.7-0.4L157.9,519z M150.8,515.4 c1.2,0.6,2.4,1.2,3.5,1.8l-0.9,1.8c-0.9-0.5-1.9-1-2.8-1.4c0,0,0,0-0.1,0c0,0,0,0,0,0c0,0-0.1,0-0.1,0c0,0,0,0,0,0 c-0.2-0.1-0.4-0.2-0.5-0.3L150.8,515.4z M143.8,511.6c1.1,0.6,2.3,1.3,3.5,1.9l-1,1.8c-0.5-0.3-1-0.6-1.5-0.8l0,0 c0,0-0.1,0-0.1-0.1l0,0c0,0-0.1,0-0.1-0.1c0,0,0,0,0,0c-0.1-0.1-0.2-0.1-0.3-0.2c0,0,0,0,0,0c0,0-0.1,0-0.1-0.1l0,0 c-0.4-0.2-0.9-0.5-1.3-0.7L143.8,511.6z M137,507.7c1.1,0.7,2.3,1.4,3.4,2l-1,1.7c-0.1,0-0.1-0.1-0.2-0.1c0,0,0,0,0,0 c0,0-0.1,0-0.1-0.1c0,0,0,0,0,0c-0.1-0.1-0.3-0.2-0.4-0.2l0,0c0,0-0.1,0-0.1-0.1c0,0,0,0,0,0c-0.1-0.1-0.2-0.1-0.3-0.2 c0,0,0,0,0,0c0,0-0.1,0-0.1-0.1l0,0c0,0-0.1,0-0.1-0.1l0,0c-0.1,0-0.1-0.1-0.2-0.1l0,0c0,0-0.1,0-0.1-0.1c0,0,0,0,0,0 c0,0-0.1,0-0.1-0.1c0,0,0,0,0,0c0,0-0.1,0-0.1-0.1l0,0c-0.1,0-0.1-0.1-0.2-0.1c0,0,0,0,0,0c0,0-0.1,0-0.1-0.1c0,0,0,0,0,0 c0,0-0.1,0-0.1,0c0,0,0,0,0,0c0,0-0.1,0-0.1-0.1l0,0c0,0-0.1,0-0.1-0.1c0,0,0,0,0,0c0,0-0.1,0-0.1-0.1c0,0,0,0,0,0 c0,0-0.1,0-0.1,0c0,0,0,0,0,0c0,0-0.1,0-0.1,0c0,0,0,0,0,0c0,0-0.1,0-0.1-0.1l0,0c0,0-0.1,0-0.1-0.1c0,0,0,0,0,0c0,0,0,0-0.1,0 c0,0,0,0,0,0c0,0,0,0-0.1,0c0,0,0,0,0,0c0,0,0,0-0.1,0c0,0,0,0,0,0L137,507.7z M130.2,503.5c1.1,0.7,2.2,1.4,3.4,2.1l-1.1,1.7 c-0.4-0.3-0.8-0.5-1.3-0.8c0,0,0,0,0,0c0,0,0,0-0.1,0c0,0,0,0,0,0c0,0,0,0-0.1,0c0,0,0,0,0,0c0,0,0,0-0.1,0c0,0,0,0-0.1,0 c0,0,0,0-0.1,0c0,0,0,0,0,0c0,0,0,0,0,0c0,0,0,0,0,0c0,0,0,0,0,0c0,0,0,0-0.1,0c0,0,0,0,0,0c0,0,0,0-0.1,0c0,0,0,0-0.1,0 c0,0-0.1,0-0.1,0c0,0,0,0-0.1,0c0,0,0,0,0,0c0,0,0,0-0.1,0c0,0,0,0,0,0c0,0,0,0-0.1,0c0,0,0,0,0,0c0,0-0.1,0-0.1-0.1c0,0,0,0,0,0 c0,0-0.1,0-0.1-0.1l0,0c0,0-0.1,0-0.1-0.1c0,0,0,0,0,0c0,0-0.1,0-0.1-0.1l0,0c-0.2-0.1-0.4-0.2-0.5-0.3L130.2,503.5z M123.6,499.1c1.1,0.7,2.2,1.5,3.3,2.2l-1.1,1.7c-0.8-0.5-1.6-1-2.3-1.6c0,0,0,0,0,0c-0.1-0.1-0.2-0.1-0.3-0.2c0,0,0,0,0,0 c0,0,0,0-0.1,0c0,0,0,0,0,0c0,0,0,0-0.1,0c0,0,0,0,0,0c0,0,0,0-0.1,0c0,0,0,0-0.1,0c0,0,0,0,0,0c0,0-0.1,0-0.1-0.1c0,0,0,0,0,0 c0,0-0.1,0-0.1-0.1c0,0,0,0,0,0c0,0-0.1,0-0.1-0.1l0,0L123.6,499.1z M117.1,494.5c1.1,0.8,2.2,1.6,3.2,2.3l-1.2,1.6 c-0.5-0.4-1.1-0.8-1.6-1.2c0,0,0,0,0,0c0,0-0.1,0-0.1-0.1c0,0,0,0,0,0c0,0,0,0-0.1,0c0,0,0,0,0,0c0,0,0,0,0,0c0,0,0,0-0.1,0 c0,0,0,0,0,0c-0.4-0.3-0.9-0.6-1.3-0.9L117.1,494.5z M110.7,489.8c1,0.8,2.1,1.6,3.2,2.4l-1.2,1.6c-1-0.7-2-1.5-3-2.3l0,0 c0,0-0.1,0-0.1-0.1c0,0,0,0,0,0c0,0,0,0-0.1,0c0,0,0,0,0,0L110.7,489.8z M104.5,484.8c1,0.8,2.1,1.7,3.1,2.5l-1.2,1.6 c-0.4-0.3-0.8-0.6-1.2-1c0,0,0,0,0,0c-0.1-0.1-0.2-0.2-0.3-0.2c0,0,0,0,0,0c0,0,0,0-0.1,0c0,0,0,0,0,0c0,0,0,0-0.1,0c0,0,0,0,0,0 c0,0,0,0,0,0c0,0,0,0-0.1,0c0,0,0,0,0,0c0,0,0,0-0.1-0.1c0,0,0,0,0,0c0,0,0,0-0.1-0.1c0,0,0,0,0,0c0,0,0,0-0.1-0.1c0,0,0,0,0,0 c-0.3-0.3-0.6-0.5-1-0.8L104.5,484.8z M98.4,479.7c1,0.9,2,1.7,3,2.6l-1.3,1.5c0,0-0.1-0.1-0.1-0.1l0,0c0,0-0.1,0-0.1-0.1 c0,0,0,0,0,0c0,0,0,0-0.1,0c0,0,0,0,0,0c0,0,0,0,0,0c0,0,0,0,0,0c0,0,0,0,0,0c0,0-0.1-0.1-0.1-0.1c0,0,0,0,0,0c0,0,0,0-0.1-0.1 c0,0,0,0,0,0c0,0,0,0-0.1-0.1c0,0,0,0,0,0c-0.1-0.1-0.2-0.2-0.3-0.3c0,0,0,0,0,0c0,0,0,0-0.1-0.1c0,0,0,0,0,0c0,0,0,0-0.1-0.1 c0,0,0,0,0,0c-0.1-0.1-0.2-0.1-0.2-0.2c0,0,0,0,0,0c0,0,0,0-0.1-0.1c0,0,0,0,0,0c0,0,0,0-0.1,0c0,0,0,0,0,0c0,0,0,0-0.1,0 c0,0,0,0,0,0c0,0-0.1,0-0.1-0.1c0,0,0,0-0.1,0c0,0,0,0,0,0c0,0,0,0-0.1,0c0,0,0,0,0,0c0,0,0,0-0.1-0.1c0,0,0,0,0,0 c-0.3-0.3-0.7-0.6-1-0.9L98.4,479.7z M92.5,474.4c1,0.9,2,1.8,2.9,2.7l-1.3,1.5c-1-0.9-2-1.8-3-2.7L92.5,474.4z M86.8,468.9 c0.9,0.9,1.9,1.8,2.9,2.8l-1.4,1.5c-0.6-0.6-1.3-1.2-1.9-1.9c0,0,0,0,0,0c0,0,0,0,0,0c0,0,0,0,0,0c0,0,0,0,0,0c0,0,0,0,0,0 c0,0,0,0,0,0c0,0-0.1-0.1-0.1-0.1l0,0c0,0-0.1-0.1-0.1-0.1c0,0,0,0,0,0c0,0,0,0-0.1-0.1c0,0,0,0,0,0c0,0,0,0-0.1-0.1c0,0,0,0,0,0 c0,0-0.1,0-0.1-0.1l0,0c-0.1-0.1-0.1-0.1-0.2-0.2c0,0,0,0,0,0c0,0,0,0-0.1-0.1c0,0,0,0,0,0L86.8,468.9z M81.2,463.3 c0.9,0.9,1.9,1.9,2.8,2.8l-1.4,1.4l0,0c-0.1-0.1-0.2-0.2-0.3-0.3l0,0c0,0-0.1-0.1-0.1-0.1l0,0c-0.8-0.8-1.5-1.5-2.3-2.3 c0,0,0,0,0,0c0,0,0,0-0.1-0.1c0,0,0,0,0,0c0,0,0,0,0,0c0,0,0,0,0,0L81.2,463.3z M75.7,457.5c0.9,1,1.8,2,2.7,2.9l-1.5,1.4 c-0.1-0.1-0.2-0.2-0.3-0.3c0,0,0,0,0,0c0,0,0,0-0.1-0.1c0,0,0,0,0,0c0,0-0.1-0.1-0.1-0.1c0,0,0,0,0,0c0,0,0,0,0,0c0,0,0,0,0,0 c0,0,0,0,0,0c0,0,0,0,0-0.1c0,0,0,0,0,0c0,0,0,0-0.1-0.1c0,0,0,0,0,0c0,0-0.1-0.1-0.1-0.1c0,0,0,0,0,0c0,0,0,0-0.1-0.1 c0,0,0,0,0,0c0,0,0,0-0.1-0.1c0,0,0,0,0,0c0,0,0,0,0-0.1c0,0,0,0,0,0c0,0,0,0,0-0.1c0,0,0,0-0.1-0.1c0,0,0,0,0-0.1c0,0,0,0,0,0 c0,0,0,0,0,0c0,0,0,0-0.1-0.1c0,0,0,0,0,0c0,0,0,0-0.1-0.1c0,0,0,0,0,0c-0.4-0.5-0.8-0.9-1.2-1.3L75.7,457.5z M70.5,451.6 c0.9,1,1.7,2,2.6,3l-1.5,1.3c-0.5-0.6-1.1-1.2-1.6-1.8c0,0,0,0,0,0c0,0,0-0.1-0.1-0.1c0,0,0,0,0,0c-0.1-0.1-0.2-0.2-0.3-0.3 c0,0,0,0,0,0c0,0,0,0-0.1-0.1c0,0,0,0,0,0c0,0,0,0-0.1-0.1c0,0,0,0,0,0c-0.2-0.2-0.4-0.4-0.5-0.6L70.5,451.6z M65.4,445.5 c0.8,1,1.7,2.1,2.5,3.1l-1.5,1.3c-0.9-1-1.7-2.1-2.5-3.1L65.4,445.5z M60.5,439.2c0.8,1,1.6,2.1,2.4,3.1l-1.6,1.2l0,0 c0,0,0-0.1-0.1-0.1c0,0,0,0,0,0c-0.3-0.4-0.7-0.8-1-1.3l0,0c0,0,0-0.1-0.1-0.1l0,0c0-0.1-0.1-0.1-0.1-0.2c0,0,0,0,0,0 c0,0,0,0,0-0.1c0,0,0,0,0,0c0,0,0,0,0,0c0,0,0,0,0-0.1c0,0,0,0,0,0c-0.3-0.4-0.6-0.8-1-1.2L60.5,439.2z M55.7,432.8 c0.8,1.1,1.6,2.2,2.3,3.2l-1.6,1.2c0,0,0,0,0,0c0,0,0-0.1-0.1-0.1l0,0c0-0.1-0.1-0.1-0.1-0.2c0,0,0,0,0,0c0,0,0,0,0-0.1 c0,0,0,0,0,0c0,0,0,0,0-0.1c0,0,0,0,0,0c0,0,0,0,0,0c-0.1-0.1-0.1-0.1-0.2-0.2c0,0,0,0,0,0c0,0,0-0.1-0.1-0.1c0,0,0,0,0,0 c-0.6-0.8-1.1-1.5-1.7-2.3c0,0,0,0,0,0c0,0,0,0,0,0L55.7,432.8z M51.2,426.3c0.7,1.1,1.5,2.2,2.2,3.3l-1.6,1.1 c-0.1-0.1-0.1-0.2-0.2-0.3c0,0,0,0,0,0c0,0,0,0,0-0.1c0,0,0,0,0,0c0,0,0,0,0,0c0,0,0,0,0-0.1c0,0,0,0,0,0 c-0.3-0.4-0.6-0.8-0.9-1.2c0,0,0,0,0,0c0,0,0-0.1-0.1-0.1c0,0,0,0,0,0c0,0,0,0-0.1-0.1c0,0,0,0,0,0c0-0.1-0.1-0.1-0.1-0.2 c0,0,0,0,0,0c0,0,0,0,0-0.1c0,0,0,0,0,0c0,0,0,0,0-0.1c0,0,0,0,0,0c0,0,0,0,0,0c0,0,0,0,0-0.1c0,0,0,0,0,0c0,0,0-0.1-0.1-0.1 c0,0,0,0,0,0c0,0,0-0.1-0.1-0.1c0,0,0,0,0,0c0,0,0,0,0-0.1c0,0,0,0,0,0c0,0,0,0,0-0.1c0,0,0,0,0,0c0,0,0-0.1-0.1-0.1l0,0 c0,0,0-0.1-0.1-0.1c0,0,0,0,0,0c0,0,0,0,0-0.1c0,0,0,0,0,0c0,0,0,0,0,0c0,0,0,0,0,0L51.2,426.3z M46.9,419.7 c0.7,1.1,1.4,2.2,2.1,3.3l-1.7,1.1c-0.1-0.2-0.2-0.3-0.3-0.5l0,0c-0.1-0.1-0.1-0.2-0.2-0.3c0,0,0,0,0,0c0,0,0,0,0-0.1 c0,0,0,0,0,0c0,0,0,0,0-0.1c0,0,0,0,0,0c0,0,0,0,0-0.1c0,0,0,0,0,0c0,0,0-0.1-0.1-0.1c0,0,0,0,0,0c0,0,0,0,0,0c0,0,0,0,0-0.1 c0,0,0,0,0,0c0,0,0,0,0-0.1c0,0,0,0,0,0c0,0,0,0,0-0.1c0,0,0,0,0,0c0-0.1-0.1-0.1-0.1-0.2c0,0,0,0,0,0c0,0,0,0,0-0.1c0,0,0,0,0,0 c0,0,0,0,0-0.1c0,0,0,0,0,0c-0.3-0.5-0.6-0.9-0.9-1.4L46.9,419.7z M42.7,412.9c0.7,1.1,1.4,2.3,2,3.4l-1.7,1l0,0c0,0,0,0,0-0.1 c0,0,0,0,0,0c0,0,0,0,0,0c-0.5-0.7-0.9-1.5-1.4-2.2c0,0,0,0,0,0c0,0,0,0,0-0.1c0,0,0,0,0,0c0,0,0,0,0-0.1c0,0,0,0,0-0.1 c0,0,0,0,0,0c-0.1-0.2-0.3-0.5-0.4-0.7L42.7,412.9z M38.8,406c0.6,1.2,1.3,2.3,1.9,3.5l-1.7,1c0,0,0-0.1-0.1-0.1c0,0,0,0,0,0 c0,0,0-0.1-0.1-0.1c0,0,0,0,0,0c0,0,0-0.1-0.1-0.1l0,0c0,0,0-0.1-0.1-0.1l0,0c0,0,0-0.1-0.1-0.1c0,0,0,0,0,0c0,0,0,0,0-0.1 c0,0,0,0,0,0c0,0,0,0,0-0.1c0,0,0,0,0,0c0,0,0,0,0-0.1c0,0,0,0,0,0c0,0,0-0.1-0.1-0.1c0,0,0,0,0-0.1c0,0,0,0,0,0c0,0,0,0,0-0.1 c0,0,0,0,0,0c0,0,0,0,0-0.1c0,0,0,0,0,0c-0.4-0.7-0.8-1.5-1.2-2.2L38.8,406z M35.1,399c0.6,1.2,1.2,2.4,1.8,3.5l-1.8,0.9 c-0.3-0.6-0.6-1.2-1-1.8c0,0,0,0,0,0c0,0,0-0.1,0-0.1c0,0,0,0,0,0c0,0,0,0,0-0.1c0,0,0,0,0-0.1c0,0,0,0,0,0 c0-0.1-0.1-0.1-0.1-0.2l0,0c-0.2-0.4-0.4-0.8-0.6-1.2L35.1,399z M31.5,391.9c0.6,1.2,1.2,2.4,1.7,3.6l-1.8,0.9c0,0,0,0,0,0 c0,0,0,0,0,0c0,0,0,0,0-0.1c0,0,0,0,0-0.1c0,0,0,0,0,0c0,0,0-0.1,0-0.1c0,0,0,0,0,0c0,0,0-0.1-0.1-0.1c0,0,0,0,0,0 c0,0,0-0.1,0-0.1c0,0,0,0,0,0c0,0,0-0.1,0-0.1c0,0,0,0,0,0c0,0,0-0.1,0-0.1c0,0,0,0,0,0c0-0.1-0.1-0.1-0.1-0.2c0,0,0,0,0,0 c0,0,0-0.1,0-0.1c0,0,0,0,0,0c0,0,0,0,0-0.1c0,0,0,0,0,0c0,0,0,0,0-0.1c0,0,0,0,0,0c0,0,0-0.1,0-0.1c0,0,0,0,0,0c0,0,0,0,0-0.1 c0,0,0,0,0,0c0,0,0,0,0-0.1c0,0,0,0,0,0c0,0,0,0,0-0.1c0,0,0,0,0-0.1c0,0,0,0,0-0.1c0,0,0,0,0,0c0,0,0-0.1,0-0.1c0,0,0,0,0,0 c0,0,0,0,0-0.1c0,0,0,0,0,0c0,0,0,0,0-0.1c0,0,0,0,0,0c0,0,0,0,0-0.1c0,0,0,0,0,0c0,0,0-0.1,0-0.1l0,0c0,0,0-0.1-0.1-0.1l0,0 c0,0,0-0.1,0-0.1c0,0,0,0,0,0c-0.1-0.3-0.3-0.6-0.4-0.9L31.5,391.9z M28.2,384.7c0.5,1.2,1.1,2.4,1.6,3.6l-1.8,0.8 c-0.2-0.5-0.5-1-0.7-1.5c0,0,0,0,0,0c0,0,0-0.1,0-0.1c0,0,0,0,0,0c-0.1-0.1-0.1-0.2-0.2-0.4c0,0,0,0,0,0c0,0,0,0,0-0.1 c0,0,0,0,0,0c0,0,0,0,0-0.1c0,0,0,0,0,0c-0.2-0.5-0.4-1-0.6-1.4L28.2,384.7z M25.1,377.4c0.5,1.2,1,2.5,1.5,3.7l-1.8,0.8 c-0.2-0.5-0.4-1-0.6-1.5l0,0c0,0,0-0.1,0-0.1c0,0,0,0,0,0c0,0,0-0.1,0-0.1c0,0,0,0,0,0c0,0,0-0.1,0-0.1c0,0,0,0,0,0 c0,0,0,0,0-0.1c0,0,0,0,0-0.1c0,0,0,0,0-0.1c0,0,0,0,0-0.1c0,0,0,0,0,0c0,0,0,0,0-0.1c0,0,0,0,0,0c0-0.1-0.1-0.2-0.1-0.3 c0,0,0,0,0,0c0,0,0,0,0-0.1c0,0,0,0,0,0c0,0,0,0,0-0.1c0,0,0,0,0,0c0,0,0-0.1,0-0.1c0,0,0,0,0,0c0-0.1,0-0.1-0.1-0.2c0,0,0,0,0,0 c0,0,0,0,0-0.1c0,0,0,0,0-0.1c0,0,0,0,0,0c0,0,0,0,0-0.1c0,0,0,0,0,0c0,0,0-0.1,0-0.1l0,0c0-0.1-0.1-0.2-0.1-0.3L25.1,377.4z M22.2,370c0.5,1.2,0.9,2.5,1.4,3.7l-1.9,0.7c-0.2-0.5-0.4-1-0.6-1.5l0,0c0,0,0-0.1,0-0.1c0,0,0,0,0,0c0,0,0-0.1,0-0.1l0,0 c0,0,0-0.1,0-0.1l0,0c0,0,0-0.1,0-0.1c0,0,0,0,0,0c0,0,0,0,0-0.1c0,0,0,0,0,0c0,0,0,0,0-0.1c0,0,0,0,0,0c0,0,0-0.1,0-0.1 c0,0,0,0,0,0c0,0,0-0.1,0-0.1l0,0c0,0,0-0.1,0-0.1c0,0,0,0,0,0c0,0,0-0.1,0-0.1c0,0,0,0,0,0c0,0,0-0.1,0-0.1c0,0,0,0,0,0 c-0.1-0.3-0.2-0.6-0.4-0.9L22.2,370z M19.5,362.5c0.4,1.2,0.9,2.5,1.3,3.7l-1.9,0.7c0,0,0,0,0,0c0,0,0,0,0,0 c0-0.1-0.1-0.2-0.1-0.4c0,0,0,0,0,0c0,0,0-0.1,0-0.1c0,0,0,0,0,0c0,0,0-0.1,0-0.1c0,0,0,0,0,0c0-0.1-0.1-0.3-0.1-0.4c0,0,0,0,0,0 c0,0,0-0.1,0-0.1c0,0,0,0,0,0c-0.1-0.2-0.1-0.4-0.2-0.6c0,0,0,0,0,0c0,0,0-0.1,0-0.1c0,0,0,0,0,0c0-0.1-0.1-0.3-0.1-0.4 c0,0,0,0,0,0c0,0,0-0.1,0-0.1c0,0,0,0,0,0c0,0,0,0,0-0.1c0,0,0,0,0,0c0,0,0-0.1,0-0.1c0,0,0,0,0,0c0-0.1,0-0.1-0.1-0.2 c0,0,0,0,0,0c0,0,0,0,0-0.1c0,0,0,0,0,0c0,0,0,0,0-0.1c0,0,0,0,0,0c0,0,0,0,0-0.1c0,0,0,0,0-0.1c0,0,0,0,0-0.1c0,0,0,0,0-0.1 c0,0,0,0,0-0.1c0,0,0-0.1,0-0.1c0,0,0,0,0,0c0,0,0,0,0-0.1c0,0,0,0,0,0c0,0,0,0,0-0.1c0,0,0,0,0,0c0,0,0,0,0-0.1c0,0,0,0,0,0 c0,0,0-0.1,0-0.1c0,0,0,0,0,0L19.5,362.5z M17.1,354.9c0.4,1.3,0.8,2.5,1.2,3.8l-1.9,0.6c-0.4-1.3-0.8-2.5-1.2-3.8L17.1,354.9z M14.9,347.3c0.3,1.3,0.7,2.6,1.1,3.8l-1.9,0.6c-0.4-1.3-0.7-2.6-1.1-3.9L14.9,347.3z M12.9,339.6c0.3,1.3,0.6,2.6,1,3.9 l-1.9,0.5c-0.1-0.4-0.2-0.7-0.3-1.1c0,0,0,0,0,0c0,0,0-0.1,0-0.1c0,0,0,0,0-0.1c0,0,0,0,0-0.1c0,0,0,0,0-0.1c0,0,0,0,0,0 c-0.1-0.6-0.3-1.1-0.4-1.7c0,0,0,0,0,0c0,0,0,0,0-0.1c0,0,0,0,0-0.1c0,0,0,0,0,0c0,0,0-0.1,0-0.1c0,0,0,0,0,0 c0-0.2-0.1-0.3-0.1-0.5L12.9,339.6z M11.1,331.9c0.3,1.3,0.6,2.6,0.9,3.9l-1.9,0.4c-0.1-0.5-0.2-1-0.3-1.5c0,0,0,0,0,0 c0,0,0-0.1,0-0.1l0,0c0-0.2-0.1-0.4-0.1-0.6l0,0c0,0,0-0.1,0-0.1c0,0,0,0,0,0c0-0.1-0.1-0.2-0.1-0.4l0,0c0,0,0-0.1,0-0.1 c0,0,0,0,0,0c0,0,0-0.1,0-0.1c0,0,0,0,0,0c0,0,0,0,0-0.1c0,0,0,0,0-0.1c0,0,0,0,0,0c-0.1-0.3-0.1-0.5-0.2-0.8L11.1,331.9z M9.6,324.1c0.2,1.3,0.5,2.6,0.7,3.9l-2,0.4c0-0.1-0.1-0.3-0.1-0.4c0,0,0,0,0,0c0,0,0-0.1,0-0.1c0,0,0,0,0,0c0,0,0,0,0-0.1 c0,0,0,0,0-0.1c0,0,0,0,0,0c0,0,0-0.1,0-0.1c0,0,0,0,0,0c-0.1-0.6-0.2-1.1-0.3-1.7c0,0,0,0,0,0c0,0,0-0.1,0-0.1c0,0,0,0,0,0 c0,0,0,0,0-0.1c0,0,0,0,0-0.1c0,0,0,0,0,0c-0.1-0.3-0.1-0.7-0.2-1L9.6,324.1z M8.3,316.3c0.2,1.3,0.4,2.6,0.6,3.9l-2,0.3l0,0 c0-0.1,0-0.2-0.1-0.4l0,0c0,0,0-0.1,0-0.1c0,0,0,0,0,0c0,0,0-0.1,0-0.1c0,0,0,0,0,0c0,0,0-0.1,0-0.1l0,0c0-0.2-0.1-0.3-0.1-0.5 l0,0c-0.1-0.9-0.3-1.8-0.4-2.7L8.3,316.3z M7.2,308.4c0.2,1.3,0.3,2.6,0.5,3.9l-2,0.3c0-0.2,0-0.3-0.1-0.5c0,0,0,0,0-0.1 c0,0,0,0,0,0c0,0,0-0.1,0-0.1c0,0,0,0,0,0c0,0,0-0.1,0-0.1c0,0,0,0,0,0c-0.1-1.1-0.3-2.1-0.4-3.2L7.2,308.4z M6.3,300.5 c0.1,1.3,0.3,2.6,0.4,4l-2,0.2c0-0.4-0.1-0.8-0.1-1.2c0,0,0,0,0,0c0,0,0-0.1,0-0.1c0,0,0,0,0,0c0,0,0-0.1,0-0.1c0,0,0,0,0,0 c0,0,0-0.1,0-0.1c0,0,0,0,0,0c0,0,0-0.1,0-0.1l0,0c0,0,0-0.1,0-0.1c0,0,0,0,0,0c0,0,0,0,0-0.1c0,0,0,0,0-0.1c0,0,0,0,0-0.1 c0,0,0,0,0-0.1c0,0,0,0,0-0.1c0,0,0,0,0-0.1c0,0,0,0,0-0.1c0,0,0,0,0,0c0,0,0-0.1,0-0.1c0,0,0,0,0,0c0,0,0-0.1,0-0.1c0,0,0,0,0,0 c0,0,0-0.1,0-0.1c0,0,0,0,0,0c0,0,0-0.1,0-0.1c0,0,0,0,0,0c0,0,0-0.1,0-0.1c0,0,0,0,0,0c0,0,0-0.1,0-0.1l0,0 c0-0.3-0.1-0.6-0.1-0.9L6.3,300.5z M5.7,292.6c0.1,1.3,0.2,2.6,0.3,4l-2,0.2c0-0.5-0.1-0.9-0.1-1.4c0,0,0,0,0,0c0,0,0-0.1,0-0.1 c0,0,0,0,0,0c0,0,0-0.1,0-0.1c0,0,0,0,0,0c0,0,0,0,0-0.1c0,0,0,0,0,0c0,0,0,0,0-0.1c0-0.1,0-0.2,0-0.3c0,0,0,0,0,0 c0,0,0-0.1,0-0.1c0,0,0,0,0,0c0-0.6-0.1-1.2-0.1-1.8L5.7,292.6z M5.3,284.7c0,1.3,0.1,2.6,0.2,4l-2,0.1c0-0.7-0.1-1.4-0.1-2 c0,0,0,0,0,0c0,0,0-0.1,0-0.1c0,0,0,0,0,0c0-0.1,0-0.2,0-0.3c0,0,0,0,0-0.1c0,0,0,0,0,0c0,0,0-0.1,0-0.1c0,0,0,0,0,0 c0,0,0-0.1,0-0.1c0,0,0,0,0,0c0,0,0-0.1,0-0.1c0,0,0,0,0,0c0,0,0-0.1,0-0.1l0,0c0-0.2,0-0.3,0-0.5l0,0c0,0,0-0.1,0-0.1 c0,0,0,0,0,0c0,0,0-0.1,0-0.1c0,0,0,0,0,0c0,0,0-0.1,0-0.1c0,0,0,0,0,0c0,0,0-0.1,0-0.1c0,0,0,0,0,0L5.3,284.7z M5.2,276.7 c0,1.3,0,2.7,0,4l-2,0c0-0.2,0-0.3,0-0.5c0,0,0,0,0,0c0-0.1,0-0.2,0-0.2c0,0,0,0,0-0.1c0,0,0,0,0,0c0,0,0,0,0-0.1c0,0,0,0,0,0 c0,0,0-0.1,0-0.1c0,0,0,0,0,0c0,0,0,0,0-0.1c0,0,0,0,0,0c0,0,0-0.1,0-0.1c0,0,0,0,0,0c0,0,0-0.1,0-0.1c0,0,0,0,0,0 c0-0.1,0-0.2,0-0.3c0,0,0,0,0,0c0,0,0,0,0-0.1c0,0,0,0,0-0.1c0,0,0,0,0-0.1c0,0,0,0,0-0.1c0,0,0,0,0-0.1c0,0,0,0,0-0.1 c0,0,0,0,0,0c0,0,0-0.1,0-0.1c0,0,0,0,0,0c0-0.2,0-0.3,0-0.5l0,0c0,0,0-0.1,0-0.1l0,0c0,0,0-0.1,0-0.1c0,0,0,0,0,0 c0-0.2,0-0.3,0-0.5c0,0,0,0,0,0c0,0,0-0.1,0-0.1c0,0,0,0,0,0c0,0,0,0,0-0.1c0,0,0,0,0-0.1c0,0,0,0,0,0c0,0,0-0.1,0-0.1 c0,0,0,0,0,0c0,0,0,0,0-0.1L5.2,276.7z M3.3,268.7l2,0c0,1.3-0.1,2.6-0.1,4l-2,0c0-0.1,0-0.2,0-0.3c0,0,0,0,0,0c0,0,0-0.1,0-0.1 c0,0,0,0,0,0c0,0,0,0,0-0.1c0,0,0,0,0-0.1c0,0,0,0,0,0c0,0,0-0.1,0-0.1c0,0,0,0,0,0c0-0.5,0-0.9,0-1.4c0,0,0,0,0,0 c0,0,0-0.1,0-0.1l0,0c0,0,0-0.1,0-0.1c0,0,0,0,0,0c0,0,0-0.1,0-0.1l0,0c0,0,0-0.1,0-0.1c0,0,0,0,0,0c0-0.1,0-0.2,0-0.2 c0,0,0,0,0,0c0,0,0-0.1,0-0.1c0,0,0,0,0,0c0,0,0,0,0-0.1c0,0,0,0,0,0c0,0,0,0,0-0.1c0,0,0,0,0-0.1c0,0,0,0,0-0.1c0,0,0,0,0,0 c0,0,0-0.1,0-0.1c0,0,0,0,0,0c0-0.1,0-0.2,0-0.2c0,0,0,0,0,0c0,0,0-0.1,0-0.1c0,0,0,0,0,0C3.3,268.8,3.3,268.8,3.3,268.7 C3.3,268.7,3.3,268.7,3.3,268.7z M3.6,260.7l2,0.1c-0.1,1.3-0.1,2.6-0.2,4l-2-0.1c0-0.5,0-0.9,0.1-1.4l0,0c0,0,0-0.1,0-0.1 c0,0,0,0,0,0c0,0,0-0.1,0-0.1l0,0c0-0.1,0-0.2,0-0.2c0,0,0,0,0,0c0,0,0,0,0-0.1c0,0,0,0,0-0.1c0,0,0,0,0-0.1c0,0,0,0,0-0.1 c0,0,0,0,0-0.1c0,0,0-0.1,0-0.1c0,0,0,0,0,0c0,0,0,0,0-0.1c0,0,0,0,0,0c0,0,0,0,0-0.1c0,0,0,0,0,0c0-0.1,0-0.1,0-0.2c0,0,0,0,0,0 c0,0,0,0,0-0.1c0,0,0,0,0-0.1c0,0,0,0,0-0.1c0,0,0,0,0-0.1c0,0,0,0,0-0.1c0,0,0,0,0-0.1c0,0,0,0,0,0c0,0,0-0.1,0-0.1c0,0,0,0,0,0 C3.5,261.2,3.5,261,3.6,260.7z M4.1,252.7l2,0.2c-0.1,1.3-0.2,2.6-0.3,4l-2-0.1C3.9,255.4,4,254.1,4.1,252.7z M4.9,244.8l2,0.2 c-0.1,1.3-0.3,2.6-0.4,4l-2-0.2c0-0.3,0.1-0.6,0.1-1c0,0,0,0,0,0c0,0,0-0.1,0-0.1c0,0,0,0,0,0c0,0,0-0.1,0-0.1c0,0,0,0,0,0 c0,0,0,0,0-0.1c0,0,0,0,0,0c0,0,0,0,0-0.1c0,0,0-0.1,0-0.1c0,0,0,0,0,0c0,0,0-0.1,0-0.1c0,0,0,0,0,0c0,0,0-0.1,0-0.1c0,0,0,0,0,0 c0,0,0-0.1,0-0.1c0,0,0,0,0,0c0,0,0-0.1,0-0.1c0,0,0,0,0,0C4.7,246.1,4.8,245.4,4.9,244.8C4.9,244.8,4.9,244.8,4.9,244.8z M5.9,236.8l2,0.3c-0.2,1.3-0.4,2.6-0.5,3.9l-2-0.3c0-0.3,0.1-0.7,0.1-1l0,0c0-0.2,0-0.3,0.1-0.5l0,0c0,0,0-0.1,0-0.1 c0,0,0,0,0,0c0,0,0-0.1,0-0.1l0,0C5.7,238.3,5.8,237.6,5.9,236.8z M7.1,228.9l2,0.3c-0.2,1.3-0.4,2.6-0.6,3.9l-2-0.3 C6.7,231.6,6.9,230.2,7.1,228.9L7.1,228.9z M8.6,221.1l2,0.4c-0.3,1.3-0.5,2.6-0.8,3.9l-2-0.4c0.1-0.3,0.1-0.6,0.2-0.9 c0,0,0,0,0,0c0,0,0,0,0-0.1c0,0,0,0,0-0.1c0,0,0,0,0-0.1c0,0,0,0,0-0.1c0,0,0,0,0,0c0,0,0-0.1,0-0.1l0,0c0.1-0.6,0.2-1.2,0.4-1.8 c0,0,0,0,0,0c0,0,0-0.1,0-0.1c0,0,0,0,0,0c0,0,0-0.1,0-0.1c0,0,0,0,0,0c0,0,0,0,0-0.1c0,0,0,0,0,0c0,0,0,0,0,0 C8.5,221.3,8.5,221.2,8.6,221.1L8.6,221.1z M10.3,213.3l1.9,0.5c-0.3,1.3-0.6,2.6-0.9,3.9l-2-0.4C9.7,215.8,10,214.5,10.3,213.3z M12.2,205.5l1.9,0.5c-0.3,1.3-0.7,2.6-1,3.8l-1.9-0.5c0,0,0,0,0,0c0,0,0,0,0,0c0-0.1,0-0.2,0.1-0.2c0,0,0,0,0,0c0,0,0,0,0-0.1 c0,0,0,0,0,0c0,0,0-0.1,0-0.1c0,0,0,0,0,0c0,0,0,0,0-0.1c0,0,0,0,0,0c0-0.1,0-0.2,0.1-0.3c0,0,0,0,0,0c0,0,0-0.1,0-0.1 c0,0,0,0,0,0c0,0,0,0,0-0.1c0,0,0,0,0,0c0,0,0,0,0-0.1c0,0,0,0,0,0c0,0,0-0.1,0-0.1c0,0,0,0,0,0c0-0.1,0-0.1,0-0.2c0,0,0,0,0,0 c0,0,0,0,0-0.1c0,0,0,0,0,0c0,0,0,0,0-0.1c0,0,0,0,0,0c0,0,0-0.1,0-0.1c0,0,0,0,0,0c0,0,0,0,0-0.1c0,0,0,0,0,0 c0-0.1,0-0.2,0.1-0.3c0,0,0,0,0,0c0,0,0-0.1,0-0.1c0,0,0,0,0,0c0,0,0-0.1,0-0.1c0,0,0,0,0,0C11.9,206.4,12.1,206,12.2,205.5 L12.2,205.5z M14.3,197.8l1.9,0.6c-0.4,1.3-0.7,2.5-1.1,3.8l-1.9-0.5c0,0,0,0,0,0c0,0,0,0,0-0.1c0,0,0,0,0,0 c0.3-0.9,0.5-1.8,0.8-2.8l0,0c0,0,0-0.1,0-0.1c0,0,0,0,0,0c0,0,0-0.1,0-0.1c0,0,0,0,0,0c0,0,0,0,0-0.1c0,0,0,0,0,0c0,0,0,0,0,0 C14.2,198.1,14.3,198,14.3,197.8L14.3,197.8z M16.7,190.1l1.9,0.6c-0.4,1.3-0.8,2.5-1.2,3.8l-1.9-0.6 C15.9,192.7,16.3,191.4,16.7,190.1L16.7,190.1z M19.3,182.6l1.9,0.7c-0.4,1.2-0.9,2.5-1.3,3.7l-1.9-0.7c0.1-0.4,0.3-0.8,0.4-1.2 c0,0,0,0,0,0c0,0,0-0.1,0-0.1c0,0,0,0,0,0c0-0.1,0.1-0.2,0.1-0.4c0,0,0,0,0,0c0,0,0-0.1,0-0.1c0,0,0,0,0,0c0,0,0-0.1,0-0.1 c0,0,0,0,0,0C18.9,183.8,19.1,183.2,19.3,182.6L19.3,182.6z M22.2,175.1l1.9,0.7c-0.5,1.2-1,2.5-1.4,3.7l-1.9-0.7 c0.1-0.3,0.2-0.5,0.3-0.8c0,0,0,0,0,0c0,0,0,0,0-0.1c0,0,0,0,0,0c0,0,0,0,0-0.1c0,0,0,0,0-0.1c0,0,0,0,0,0c0-0.1,0.1-0.2,0.1-0.2 l0,0c0,0,0-0.1,0-0.1l0,0c0.3-0.7,0.6-1.5,0.9-2.2l0,0C22.1,175.2,22.1,175.1,22.2,175.1C22.2,175.1,22.2,175.1,22.2,175.1z M25.2,167.7l1.8,0.8c-0.5,1.2-1,2.4-1.5,3.7l-1.8-0.8C24.2,170.2,24.7,168.9,25.2,167.7L25.2,167.7z M28.5,160.4l1.8,0.8 c-0.6,1.2-1.1,2.4-1.6,3.6l-1.8-0.8c0.3-0.6,0.6-1.3,0.8-1.9c0,0,0,0,0,0c0,0,0-0.1,0-0.1c0,0,0,0,0,0c0.1-0.1,0.1-0.2,0.2-0.4 c0,0,0,0,0,0c0,0,0,0,0-0.1c0,0,0,0,0,0c0,0,0,0,0-0.1c0,0,0,0,0,0c0,0,0,0,0-0.1c0,0,0,0,0,0c0-0.1,0.1-0.2,0.1-0.3c0,0,0,0,0,0 c0,0,0,0,0-0.1c0,0,0,0,0,0c0,0,0-0.1,0-0.1c0,0,0,0,0,0C28.3,160.7,28.4,160.6,28.5,160.4z M31.9,153.2l1.8,0.9 c-0.6,1.2-1.2,2.4-1.8,3.6l-1.8-0.9c0,0,0,0,0,0c0,0,0,0,0,0c0,0,0,0,0-0.1c0,0,0,0,0,0c0,0,0,0,0-0.1c0,0,0,0,0,0 c0.5-1,1-2,1.5-3.1c0,0,0,0,0,0c0,0,0-0.1,0-0.1c0,0,0,0,0,0C31.9,153.3,31.9,153.3,31.9,153.2C31.9,153.3,31.9,153.2,31.9,153.2 C31.9,153.2,31.9,153.2,31.9,153.2z M35.6,146.1l1.8,0.9c-0.6,1.2-1.2,2.3-1.9,3.5l-1.8-0.9l0,0c0,0,0-0.1,0-0.1c0,0,0,0,0-0.1 c0,0,0,0,0,0c0,0,0,0,0-0.1c0,0,0,0,0,0c0,0,0,0,0-0.1c0,0,0,0,0,0C34.5,148.2,35.1,147.1,35.6,146.1L35.6,146.1z M39.5,139.1 l1.7,1c-0.7,1.1-1.3,2.3-2,3.5l-1.7-1c0.4-0.7,0.8-1.5,1.2-2.2c0,0,0,0,0,0c0-0.1,0.1-0.1,0.1-0.2c0,0,0,0,0,0c0,0,0-0.1,0.1-0.1 c0,0,0,0,0,0c0,0,0,0,0,0c0,0,0,0,0-0.1c0,0,0,0,0,0c0,0,0,0,0-0.1c0,0,0,0,0,0C39.3,139.6,39.4,139.4,39.5,139.1L39.5,139.1z M43.6,132.2l1.7,1.1c-0.7,1.1-1.4,2.3-2.1,3.4l-1.7-1C42.2,134.5,42.9,133.4,43.6,132.2z M47.9,125.5l1.7,1.1 c-0.7,1.1-1.5,2.2-2.2,3.3l-1.7-1.1C46.5,127.7,47.2,126.6,47.9,125.5z M52.4,118.9l1.6,1.1c-0.8,1.1-1.5,2.2-2.3,3.3l-1.7-1.1 c0.1-0.1,0.2-0.2,0.2-0.3c0,0,0,0,0,0c0,0,0,0,0-0.1c0,0,0,0,0,0c0,0,0,0,0-0.1c0,0,0-0.1,0.1-0.1c0,0,0,0,0,0c0,0,0-0.1,0.1-0.1 c0,0,0,0,0,0c0,0,0-0.1,0.1-0.1c0,0,0,0,0,0c0.1-0.1,0.1-0.2,0.2-0.3l0,0c0,0,0-0.1,0.1-0.1l0,0c0,0,0-0.1,0.1-0.1c0,0,0,0,0,0 c0-0.1,0.1-0.1,0.1-0.2c0,0,0,0,0,0c0,0,0-0.1,0.1-0.1c0,0,0,0,0,0c0,0,0,0,0-0.1c0,0,0,0,0,0c0,0,0,0,0-0.1c0,0,0,0,0,0 c0,0,0,0,0,0c0,0,0.1-0.1,0.1-0.1c0,0,0,0,0,0c0,0,0,0,0-0.1c0,0,0,0,0,0c0,0,0,0,0-0.1c0,0,0,0,0,0c0.2-0.3,0.4-0.5,0.6-0.8 c0,0,0,0,0,0c0,0,0,0,0-0.1c0,0,0,0,0,0C52.3,119,52.4,119,52.4,118.9C52.4,118.9,52.4,118.9,52.4,118.9 C52.4,118.9,52.4,118.9,52.4,118.9z M57.1,112.4l1.6,1.2c-0.8,1.1-1.6,2.1-2.4,3.2l-1.6-1.2C55.5,114.5,56.3,113.5,57.1,112.4z M62,106.1l1.6,1.2c-0.8,1-1.6,2.1-2.4,3.1l-1.6-1.2C60.3,108.2,61.2,107.1,62,106.1L62,106.1z M67,99.9l1.5,1.3 c-0.8,1-1.7,2-2.5,3.1l-1.5-1.3c0,0,0,0,0.1-0.1c0,0,0,0,0,0c0,0,0,0,0-0.1c0,0,0,0,0,0c0,0,0,0,0,0 C65.5,101.8,66.2,100.8,67,99.9z M72.3,93.8l1.5,1.3c-0.9,1-1.8,2-2.6,3l-1.5-1.3c0.2-0.2,0.3-0.4,0.5-0.6c0,0,0,0,0,0 c0,0,0,0,0.1-0.1c0,0,0,0,0,0c0,0,0,0,0,0C70.9,95.3,71.6,94.6,72.3,93.8C72.3,93.8,72.3,93.8,72.3,93.8 C72.3,93.8,72.3,93.8,72.3,93.8z M77.7,87.9l1.5,1.4c-0.9,1-1.8,1.9-2.7,2.9L75,90.8c0.1-0.1,0.2-0.2,0.3-0.4c0,0,0,0,0,0 c0,0,0.1-0.1,0.1-0.1c0,0,0,0,0,0c0,0,0.1-0.1,0.1-0.1l0,0c0.1-0.1,0.1-0.1,0.2-0.2c0,0,0,0,0,0c0,0,0,0,0.1-0.1c0,0,0,0,0,0 c0,0,0,0,0.1-0.1c0,0,0,0,0,0c0,0,0,0,0.1-0.1c0,0,0,0,0,0c0,0,0.1-0.1,0.1-0.1c0,0,0,0,0,0c0,0,0,0,0,0c0,0,0,0,0,0c0,0,0,0,0,0 c0,0,0,0,0,0c0,0,0,0,0,0c0,0,0,0,0,0c0,0,0,0,0,0c0,0,0.1-0.1,0.1-0.1c0,0,0,0,0,0c0,0,0,0,0.1-0.1c0,0,0,0,0,0c0,0,0,0,0.1-0.1 c0,0,0,0,0,0c0.1-0.1,0.2-0.2,0.3-0.3c0,0,0,0,0,0c0,0,0,0,0.1-0.1c0,0,0,0,0,0c0,0,0,0,0.1-0.1c0,0,0,0,0,0 c0.1-0.1,0.2-0.2,0.3-0.3c0,0,0,0,0,0c0,0,0,0,0.1-0.1c0,0,0,0,0,0c0,0,0,0,0.1-0.1c0,0,0,0,0,0c0,0,0.1-0.1,0.1-0.1c0,0,0,0,0,0 c0,0,0,0,0,0c0,0,0,0,0,0C77.6,88,77.6,88,77.7,87.9C77.6,88,77.7,87.9,77.7,87.9C77.7,87.9,77.7,87.9,77.7,87.9z M83.3,82.2 l1.4,1.4c-0.9,0.9-1.9,1.9-2.8,2.8L80.5,85l0,0c0,0,0,0,0.1-0.1c0,0,0,0,0,0c0,0,0.1-0.1,0.1-0.1c0,0,0,0,0,0c0,0,0,0,0,0 c0,0,0,0,0,0c0,0,0,0,0,0c0,0,0,0,0-0.1c0,0,0,0,0,0c0.1-0.1,0.2-0.2,0.3-0.3c0,0,0,0,0,0c0,0,0,0,0.1-0.1c0,0,0,0,0,0 c0.1-0.1,0.2-0.2,0.4-0.4c0,0,0,0,0,0c0.1-0.1,0.2-0.2,0.4-0.4c0,0,0,0,0,0c0,0,0,0,0.1-0.1c0,0,0,0,0,0c0.1-0.1,0.2-0.2,0.3-0.3 c0,0,0,0,0,0c0,0,0,0,0.1-0.1c0,0,0,0,0,0c0,0,0,0,0.1-0.1c0,0,0,0,0,0c0.1-0.1,0.1-0.1,0.2-0.2c0,0,0,0,0,0c0,0,0,0,0.1-0.1 c0,0,0,0,0,0c0,0,0,0,0.1-0.1c0,0,0,0,0,0c0,0,0,0,0.1-0.1c0,0,0,0,0,0c0,0,0.1-0.1,0.1-0.1c0,0,0,0,0,0c0,0,0,0,0,0c0,0,0,0,0,0 c0,0,0,0,0.1-0.1c0,0,0,0,0,0C83.2,82.3,83.2,82.3,83.3,82.2C83.2,82.2,83.2,82.2,83.3,82.2C83.2,82.2,83.3,82.2,83.3,82.2z M89,76.6l1.4,1.5c-1,0.9-1.9,1.8-2.9,2.7l-1.4-1.4c0.3-0.3,0.7-0.6,1-0.9c0,0,0,0,0,0c0,0,0,0,0.1-0.1c0,0,0,0,0,0 c0,0,0,0,0.1-0.1c0,0,0,0,0,0c0,0,0,0,0.1-0.1c0,0,0,0,0.1-0.1c0,0,0,0,0,0c0,0,0,0,0.1,0c0,0,0,0,0,0c0,0,0,0,0.1-0.1 c0,0,0,0,0,0c0,0,0,0,0.1-0.1c0,0,0,0,0,0c0.1-0.1,0.1-0.1,0.2-0.2c0,0,0,0,0,0c0,0,0,0,0.1-0.1c0,0,0,0,0,0c0,0,0,0,0.1-0.1 c0,0,0,0,0,0c0.1-0.1,0.1-0.1,0.2-0.2c0,0,0,0,0,0c0,0,0,0,0,0c0,0,0,0,0,0c0,0,0,0,0,0c0,0,0,0,0,0c0,0,0,0,0,0 c0.1-0.1,0.1-0.1,0.2-0.2l0,0c0,0,0.1-0.1,0.1-0.1l0,0C88.8,76.8,88.9,76.7,89,76.6z M94.9,71.2l1.3,1.5c-1,0.9-2,1.8-3,2.7 L92,73.9c0,0,0,0,0.1,0c0,0,0,0,0,0c0,0,0,0,0.1-0.1c0,0,0,0,0,0c0,0,0,0,0.1-0.1c0,0,0,0,0,0c0.1-0.1,0.1-0.1,0.2-0.2 c0,0,0,0,0,0c0,0,0,0,0.1-0.1c0,0,0,0,0,0c0,0,0,0,0.1,0c0,0,0,0,0,0c0,0,0,0,0.1,0c0,0,0,0,0,0c0,0,0.1-0.1,0.1-0.1c0,0,0,0,0,0 c0,0,0,0,0.1,0c0,0,0,0,0,0c0,0,0,0,0.1,0c0,0,0,0,0,0c0,0,0,0,0.1-0.1c0,0,0,0,0,0c0.1-0.1,0.1-0.1,0.2-0.2c0,0,0,0,0,0 c0,0,0,0,0.1-0.1c0,0,0,0,0,0c0,0,0,0,0.1-0.1c0,0,0,0,0,0C93.9,72.1,94.4,71.7,94.9,71.2L94.9,71.2z M101,66l1.3,1.5 c-1,0.8-2,1.7-3,2.6l-1.3-1.5c0.1-0.1,0.2-0.2,0.4-0.3c0,0,0,0,0,0c0,0,0,0,0.1-0.1c0,0,0,0,0,0c0,0,0,0,0.1-0.1c0,0,0,0,0,0 c0,0,0,0,0.1-0.1c0,0,0,0,0,0c0,0,0,0,0.1-0.1c0,0,0,0,0.1,0c0,0,0,0,0,0c0,0,0,0,0.1,0c0,0,0,0,0,0c0,0,0,0,0.1-0.1c0,0,0,0,0,0 c0.5-0.4,1-0.9,1.6-1.3c0,0,0,0,0,0c0,0,0,0,0.1-0.1c0,0,0,0,0,0c0,0,0,0,0.1-0.1c0,0,0,0,0,0c0,0,0,0,0.1-0.1c0,0,0,0,0,0 c0,0,0,0,0.1-0.1c0,0,0,0,0.1,0C100.9,66.1,100.9,66.1,101,66C100.9,66,101,66,101,66L101,66z M107.2,60.9l1.2,1.6 c-1,0.8-2.1,1.7-3.1,2.5l-1.3-1.6c0.8-0.6,1.6-1.3,2.3-1.9l0,0c0,0,0.1,0,0.1-0.1c0,0,0,0,0,0c0,0,0,0,0,0c0,0,0,0,0.1,0 c0,0,0,0,0,0C106.8,61.2,107,61.1,107.2,60.9L107.2,60.9z M113.5,56.1l1.2,1.6c-1.1,0.8-2.1,1.6-3.2,2.4l-1.2-1.6 c0.1-0.1,0.3-0.2,0.4-0.3c0,0,0,0,0,0c0,0,0.1,0,0.1-0.1c0,0,0,0,0,0c0,0,0.1,0,0.1-0.1c0,0,0,0,0,0c0,0,0,0,0.1,0c0,0,0,0,0.1,0 c0,0,0,0,0,0c0,0,0,0,0.1,0c0,0,0,0,0,0c0,0,0,0,0.1-0.1c0,0,0,0,0,0c0.4-0.3,0.8-0.6,1.2-0.9c0,0,0,0,0,0c0,0,0,0,0.1-0.1 c0,0,0,0,0,0c0.1-0.1,0.1-0.1,0.2-0.2c0,0,0,0,0,0c0,0,0,0,0,0c0,0,0,0,0.1,0c0,0,0,0,0,0c0,0,0,0,0.1,0c0,0,0,0,0,0 C113.2,56.3,113.4,56.2,113.5,56.1z M120,51.4l1.1,1.6c-1.1,0.8-2.2,1.5-3.2,2.3l-1.2-1.6C117.9,52.9,118.9,52.2,120,51.4 L120,51.4z M126.7,46.9l1.1,1.7c-1.1,0.7-2.2,1.5-3.3,2.2l-1.1-1.7c0.1,0,0.1-0.1,0.2-0.1c0,0,0,0,0,0c0,0,0,0,0.1,0c0,0,0,0,0,0 c0,0,0,0,0,0c0,0,0,0,0.1,0c0,0,0,0,0,0c0,0,0.1,0,0.1-0.1l0,0c0.1,0,0.1-0.1,0.2-0.1c0,0,0,0,0,0c0,0,0.1,0,0.1-0.1l0,0 c0.3-0.2,0.6-0.4,0.9-0.6l0,0c0,0,0.1,0,0.1-0.1l0,0c0.1,0,0.1-0.1,0.2-0.1c0,0,0,0,0,0c0,0,0,0,0.1,0c0,0,0,0,0,0c0,0,0,0,0.1,0 c0,0,0,0,0,0c0,0,0,0,0,0C126,47.4,126.3,47.1,126.7,46.9L126.7,46.9z M133.4,42.6l1,1.7c-1.1,0.7-2.3,1.4-3.4,2.1l-1.1-1.7 c0.2-0.1,0.5-0.3,0.7-0.4c0,0,0,0,0,0c0,0,0,0,0.1,0c0,0,0,0,0.1,0c0,0,0,0,0,0c0,0,0,0,0.1,0c0,0,0,0,0,0 c0.6-0.4,1.3-0.8,1.9-1.2l0,0c0,0,0.1,0,0.1-0.1l0,0c0.1,0,0.1-0.1,0.2-0.1c0,0,0,0,0,0c0,0,0,0,0.1,0 C133.3,42.7,133.3,42.7,133.4,42.6C133.4,42.7,133.4,42.7,133.4,42.6C133.4,42.7,133.4,42.7,133.4,42.6z M140.3,38.6l1,1.7 c-1.1,0.7-2.3,1.3-3.4,2l-1-1.7c0.3-0.2,0.6-0.3,0.8-0.5c0,0,0,0,0,0c0,0,0.1,0,0.1,0c0,0,0,0,0,0c0,0,0,0,0.1,0c0,0,0,0,0,0 c0,0,0,0,0.1,0c0,0,0,0,0,0c0,0,0,0,0.1,0c0,0,0.1,0,0.1-0.1c0,0,0,0,0,0c0,0,0,0,0.1,0c0,0,0,0,0,0c0,0,0,0,0.1,0c0,0,0,0,0,0 c0,0,0.1,0,0.1,0l0,0c0.1,0,0.1-0.1,0.2-0.1l0,0c0,0,0.1,0,0.1-0.1l0,0c0,0,0.1,0,0.1-0.1c0,0,0,0,0,0c0.1-0.1,0.2-0.1,0.3-0.2 c0,0,0,0,0,0c0,0,0.1,0,0.1-0.1l0,0c0,0,0.1,0,0.1-0.1c0,0,0,0,0,0c0,0,0.1,0,0.1-0.1l0,0c0,0,0.1,0,0.1-0.1c0,0,0,0,0,0 c0,0,0,0,0.1,0c0,0,0,0,0.1,0c0,0,0,0,0,0c0,0,0,0,0.1,0c0,0,0,0,0,0C140,38.7,140.2,38.6,140.3,38.6L140.3,38.6z M147.3,34.7 l0.9,1.8c-1.2,0.6-2.3,1.3-3.5,1.9l-1-1.7c0.1-0.1,0.3-0.2,0.4-0.2c0,0,0,0,0,0c0,0,0,0,0.1,0c0,0,0,0,0.1,0c0,0,0,0,0,0 c0,0,0.1,0,0.1,0c0,0,0,0,0,0c0.8-0.4,1.6-0.9,2.4-1.3c0,0,0,0,0,0c0,0,0.1,0,0.1,0c0,0,0,0,0,0 C147.1,34.8,147.2,34.7,147.3,34.7L147.3,34.7z M154.4,31l0.9,1.8c-1.2,0.6-2.4,1.2-3.5,1.8l-0.9-1.8c0.1-0.1,0.2-0.1,0.3-0.2 l0,0c0,0,0.1,0,0.1,0c0,0,0,0,0,0c0.1,0,0.1-0.1,0.2-0.1c0,0,0,0,0,0c0,0,0.1,0,0.1,0c0,0,0,0,0,0c0,0,0,0,0.1,0c0,0,0,0,0,0 c0,0,0,0,0.1,0c0,0,0,0,0,0c0,0,0,0,0.1,0c0,0,0,0,0.1,0c0,0,0,0,0.1,0c0,0,0,0,0.1,0c0,0,0,0,0,0c0,0,0,0,0.1,0c0,0,0,0,0,0 c0,0,0,0,0.1,0c0,0,0,0,0,0c0.1-0.1,0.2-0.1,0.3-0.2c0,0,0,0,0,0c0,0,0.1,0,0.1,0c0,0,0,0,0,0C153.3,31.5,153.9,31.3,154.4,31 L154.4,31z M161.6,27.5l0.8,1.8c-1.2,0.6-2.4,1.1-3.6,1.7l-0.9-1.8c0.2-0.1,0.4-0.2,0.6-0.3c0,0,0,0,0,0c0,0,0.1,0,0.1,0 c0,0,0,0,0,0c0,0,0.1,0,0.1,0c0,0,0,0,0,0c0,0,0.1,0,0.1,0c0,0,0,0,0,0c0,0,0.1,0,0.1,0c0,0,0,0,0,0c0,0,0,0,0.1,0c0,0,0,0,0,0 c0,0,0,0,0.1,0c0,0,0,0,0,0c0,0,0,0,0.1,0c0,0,0,0,0,0c0,0,0,0,0.1,0c0,0,0,0,0.1,0c0,0,0,0,0.1,0c0,0,0,0,0,0c0,0,0,0,0.1,0 c0,0,0,0,0,0c0,0,0,0,0.1,0c0,0,0,0,0,0c0,0,0,0,0.1,0c0,0,0,0,0,0c0,0,0.1,0,0.1,0c0,0,0,0,0,0c0,0,0.1,0,0.1,0c0,0,0,0,0,0 c0,0,0.1,0,0.1,0c0,0,0,0,0,0c0,0,0.1,0,0.1,0c0,0,0,0,0,0c0.1-0.1,0.2-0.1,0.3-0.2l0,0c0,0,0.1,0,0.1,0l0,0 C161.1,27.8,161.3,27.7,161.6,27.5z M168.9,24.3l0.8,1.8c-1.2,0.5-2.4,1.1-3.6,1.6l-0.8-1.8c0.1-0.1,0.2-0.1,0.3-0.2l0,0 c0,0,0.1,0,0.1,0c0,0,0,0,0.1,0c0,0,0,0,0,0c0,0,0,0,0.1,0c0,0,0,0,0,0C166.9,25.2,167.9,24.7,168.9,24.3L168.9,24.3z M176.3,21.3l0.7,1.9c-1.2,0.5-2.5,1-3.7,1.5l-0.8-1.9c0.1-0.1,0.3-0.1,0.4-0.2c0,0,0,0,0,0c0,0,0,0,0.1,0c0,0,0,0,0,0 c0,0,0,0,0.1,0c0,0,0,0,0.1,0c0,0,0,0,0,0c0,0,0.1,0,0.1,0c0,0,0,0,0,0c0,0,0.1,0,0.1,0c0,0,0,0,0,0c0,0,0.1,0,0.1,0l0,0 c0,0,0.1,0,0.1,0l0,0c0.5-0.2,1-0.4,1.5-0.6l0,0c0,0,0.1,0,0.1,0l0,0c0,0,0.1,0,0.1,0l0,0c0.1,0,0.1-0.1,0.2-0.1c0,0,0,0,0,0 c0,0,0.1,0,0.1,0c0,0,0,0,0,0c0,0,0,0,0.1,0c0,0,0,0,0.1,0c0,0,0,0,0,0c0,0,0,0,0.1,0c0,0,0,0,0,0 C176.2,21.3,176.3,21.3,176.3,21.3z M183.8,18.4l0.7,1.9c-1.2,0.4-2.5,0.9-3.7,1.4l-0.7-1.9c0.3-0.1,0.7-0.3,1-0.4c0,0,0,0,0,0 c0,0,0.1,0,0.1,0c0,0,0,0,0,0c0,0,0,0,0.1,0c0,0,0,0,0,0c0,0,0,0,0.1,0c0.1,0,0.2-0.1,0.2-0.1c0,0,0,0,0,0c0,0,0.1,0,0.1,0 c0,0,0,0,0,0c0.2-0.1,0.4-0.1,0.6-0.2c0,0,0,0,0,0c0.2-0.1,0.3-0.1,0.5-0.2c0,0,0,0,0,0c0,0,0,0,0.1,0c0,0,0,0,0.1,0c0,0,0,0,0,0 c0,0,0.1,0,0.1,0l0,0C183.3,18.6,183.6,18.5,183.8,18.4z M191.4,15.9l0.6,1.9c-1.3,0.4-2.5,0.8-3.8,1.3l-0.6-1.9 c1.2-0.4,2.4-0.8,3.6-1.2c0,0,0,0,0,0C191.3,15.9,191.3,15.9,191.4,15.9C191.3,15.9,191.3,15.9,191.4,15.9 C191.4,15.9,191.4,15.9,191.4,15.9z M199,13.5l0.6,1.9c-1.3,0.4-2.5,0.8-3.8,1.1l-0.6-1.9c0,0,0,0,0,0c0,0,0,0,0,0 c0.1,0,0.2-0.1,0.3-0.1c0,0,0,0,0,0c0,0,0.1,0,0.1,0c0,0,0,0,0,0c0,0,0.1,0,0.1,0c0,0,0,0,0,0C196.8,14.1,197.9,13.8,199,13.5z M206.7,11.4l0.5,1.9c-1.3,0.3-2.6,0.7-3.8,1l-0.5-1.9c0.1,0,0.1,0,0.2-0.1c0,0,0,0,0,0c0,0,0,0,0.1,0c0,0,0,0,0,0c0,0,0,0,0.1,0 c0,0,0,0,0.1,0c0,0,0,0,0.1,0c0,0,0,0,0.1,0c0,0,0,0,0,0c0.1,0,0.2,0,0.2-0.1l0,0c0,0,0.1,0,0.1,0c0,0,0,0,0,0c0,0,0.1,0,0.1,0 l0,0C204.9,11.8,205.8,11.6,206.7,11.4z M214.5,9.4l0.4,1.9c-1.3,0.3-2.6,0.6-3.9,0.9l-0.5-1.9c1-0.3,2.1-0.5,3.1-0.8l0,0 c0,0,0.1,0,0.1,0c0,0,0,0,0,0c0,0,0.1,0,0.1,0c0,0,0,0,0,0c0,0,0,0,0.1,0c0.1,0,0.1,0,0.1,0c0,0,0,0,0,0c0,0,0.1,0,0.1,0 c0,0,0,0,0,0C214.4,9.5,214.5,9.5,214.5,9.4z M222.3,7.8l0.4,2c-1.3,0.3-2.6,0.5-3.9,0.8l-0.4-2c0,0,0,0,0.1,0c0,0,0,0,0,0 c0,0,0.1,0,0.1,0c0,0,0,0,0,0c0,0,0,0,0.1,0c0,0,0.1,0,0.1,0c0,0,0,0,0,0C220,8.2,221.1,8,222.3,7.8z M230.2,6.3l0.3,2 c-1.3,0.2-2.6,0.5-3.9,0.7l-0.4-2c0.3-0.1,0.7-0.1,1-0.2c0,0,0.1,0,0.1,0l0,0c0,0,0.1,0,0.1,0c0,0,0,0,0,0c0,0,0.1,0,0.1,0l0,0 c0.4-0.1,0.8-0.1,1.2-0.2l0,0c0,0,0.1,0,0.1,0c0,0,0,0,0,0c0,0,0.1,0,0.1,0c0,0,0,0,0,0c0,0,0,0,0.1,0c0,0,0,0,0.1,0c0,0,0,0,0,0 C229.6,6.4,229.9,6.4,230.2,6.3L230.2,6.3z M238.1,5.1l0.3,2c-1.3,0.2-2.6,0.4-3.9,0.6l-0.3-2c0.9-0.1,1.9-0.3,2.8-0.4 c0,0,0,0,0,0c0,0,0.1,0,0.1,0c0,0,0,0,0,0c0,0,0.1,0,0.1,0c0,0,0,0,0.1,0c0,0,0,0,0,0C237.5,5.2,237.8,5.1,238.1,5.1z M246,4.1 l0.2,2c-1.3,0.1-2.6,0.3-3.9,0.5l-0.2-2C243.4,4.4,244.7,4.3,246,4.1z M254,3.4l0.2,2c-1.3,0.1-2.6,0.2-4,0.3l-0.2-2 c0,0,0,0,0.1,0c0,0,0,0,0,0c0,0,0.1,0,0.1,0c0,0,0,0,0,0c0,0,0.1,0,0.1,0c0,0,0,0,0,0c0,0,0.1,0,0.1,0c0,0,0,0,0,0 c0.1,0,0.2,0,0.3,0c0,0,0,0,0,0c0,0,0,0,0.1,0c0,0,0,0,0,0c0,0,0,0,0.1,0c0,0,0,0,0,0c0,0,0,0,0.1,0c0,0,0,0,0.1,0c0,0,0,0,0.1,0 c0,0,0,0,0.1,0c0,0,0,0,0.1,0c0,0,0.1,0,0.1,0l0,0c0,0,0.1,0,0.1,0c0,0,0,0,0,0c0,0,0.1,0,0.1,0c0,0,0,0,0,0c0,0,0,0,0.1,0 c0,0,0,0,0,0c0,0,0.1,0,0.1,0c0,0,0,0,0,0c0,0,0.1,0,0.1,0c0,0,0,0,0,0c0,0,0.1,0,0.1,0c0,0,0,0,0,0c0,0,0.1,0,0.1,0c0,0,0,0,0,0 c0,0,0.1,0,0.1,0c0,0,0,0,0,0c0,0,0,0,0.1,0c0,0,0,0,0.1,0c0,0,0,0,0.1,0c0,0,0,0,0.1,0c0,0,0,0,0.1,0c0,0,0,0,0.1,0c0,0,0,0,0,0 C253.2,3.4,253.6,3.4,254,3.4z M262,2.9l0.1,2c-1.3,0.1-2.7,0.1-4,0.2l-0.1-2c0.3,0,0.7,0,1-0.1l0,0c0,0,0.1,0,0.1,0c0,0,0,0,0,0 c0,0,0.1,0,0.1,0c0,0,0,0,0,0c0,0,0,0,0.1,0c0,0,0,0,0.1,0c0,0,0,0,0,0C260.3,2.9,261.1,2.9,262,2.9L262,2.9z M270,2.6l0,2 c-1.3,0-2.7,0.1-4,0.1l-0.1-2c0,0,0,0,0.1,0c0,0,0,0,0,0c1.1,0,2.2-0.1,3.3-0.1c0,0,0,0,0,0c0,0,0,0,0.1,0c0,0,0,0,0.1,0 c0,0,0,0,0.1,0c0,0,0.1,0,0.1,0c0,0,0,0,0,0C269.7,2.6,269.9,2.6,270,2.6z M275.9,2.5v2c-0.6,0-1.3,0-1.9,0l0-2 c0.3,0,0.7,0,1.1,0c0,0,0,0,0,0c0,0,0.1,0,0.1,0c0,0,0,0,0,0c0,0,0,0,0.1,0c0,0,0,0,0,0c0,0,0.1,0,0.1,0c0,0,0,0,0,0 c0,0,0,0,0.1,0c0,0,0,0,0.1,0c0,0,0,0,0.1,0c0,0,0,0,0.1,0c0,0,0,0,0.1,0c0,0,0,0,0.1,0c0,0,0,0,0,0 C275.9,2.5,275.9,2.5,275.9,2.5L275.9,2.5z"></path> </g> <g id="Сгруппировать_1" transform="translate(1055.788 553.908)"> <path id="Контур_1" class="st4" d="M3.2,184.2c0,0,150.4-64.9,348.3-64.9s347.1,66.7,347.1,66.7l-72.6,188.8 c0,0-105.1-51.1-274.5-50.5s-276.1,51-276.1,51L3.2,184.2z"></path> <path id="Контур_2" class="st5" d="M75.7,375.4c9.6,3.4,80.3,6.8,92.6,6.8c0-0.2-25.9-23.2-30.2-28.9 C138.2,353.3,83.2,369.9,75.7,375.4z"></path> <path id="Контур_3" class="st5" d="M626.1,375c-9.6,3.4-81.3,7.6-93.6,7.6c0-0.2,27.2-24.3,31.4-30.1 C563.9,352.5,618.7,369.5,626.1,375z"></path> </g> <g id="Сгруппировать_8" transform="translate(54.838 497.988)"> <g id="Сгруппировать_3" transform="translate(1130.788 46.465)"> <path id="Контур_4" class="st6" d="M46.3,2.5v24.6c0,0,23.2,22.9,23.2,36.1s-5.4,19.1-20.4,27.9V47.8h-5.6v63.8 c0,0,43.7-12.1,42-47.8C83.8,35.9,46.3,2.5,46.3,2.5z"></path> <path id="Контур_7" class="st7" d="M46.3,2.5l0,24.6c0,0-23.4,22.9-23.4,36.1s7.3,19.9,15.4,25c0-0.6-0.1,19.1,0,19.1 C28,101.5,6.2,88.5,6.9,63.8C8.5,35.9,46.3,2.5,46.3,2.5z"></path> <path id="Контур_5" class="st6" d="M48.9,59.1l5.8-5.6L58,57l-9.1,9.2L48.9,59.1z"></path> <path id="Контур_6" class="st6" d="M48.9,74.5l5.8-5.6l3.3,3.5l-9.1,9.2L48.9,74.5z"></path> </g> <g id="Сгруппировать_7" transform="translate(1220.573 46.738)"> <g class="st8"> <path class="st9" d="M16.1,69.5C20.5,74.1,27.3,78,36,78c7.3,0,10.9-3.5,10.9-7c0-4.7-5.5-6.3-12.7-8 C24,60.6,10.8,57.8,10.8,43.8c0-10.4,9-18.9,23.8-18.9c10,0,18.2,3,24.4,8.7l-7.4,9.8c-5.1-4.7-11.8-6.9-18-6.9 c-6,0-9.2,2.6-9.2,6.4c0,4.2,5.3,5.5,12.5,7.2c10.3,2.3,23.5,5.5,23.5,19.4c0,11.5-8.2,20.1-25.1,20.1c-12,0-20.7-4-26.6-10 L16.1,69.5z"></path> <path class="st9" d="M65.8,25.8h44.4v11.5h-31v13.6h30.4v11.5H79.2v14.6h31v11.6H65.8V25.8z"></path> <path class="st9" d="M146.7,24.8c19,0,32.8,13.5,32.8,32.4c0,18.9-13.8,32.4-32.8,32.4c-18.9,0-32.7-13.5-32.7-32.4 C114,38.3,127.8,24.8,146.7,24.8z M146.7,36.6c-11.6,0-19,8.8-19,20.6c0,11.7,7.4,20.6,19,20.6s19.1-8.9,19.1-20.6 C165.8,45.5,158.2,36.6,146.7,36.6z"></path> </g> <g id="Сгруппировать_6" transform="translate(182.452 24.152)"> <g id="Сгруппировать_5" transform="translate(0)"> <g id="Линия_1"> <rect x="7.3" y="2.5" class="st9" width="4" height="64.3"></rect> </g> <g id="Контур_12" transform="translate(0 20.02)"> <g> <path class="st2" d="M30,2.5c8.8,0,16.3,5.7,19.6,14.2c1,2.7,1.5,5.5,1.5,8.4c0,2.6-0.4,5.2-1.3,7.7 C47.1,41.5,39.1,47.5,30,47.6c-10,0-18.4-7.4-20.6-17.7c-0.3-1.6-0.5-3.2-0.5-4.9C8.8,12.6,18.3,2.5,30,2.5z"></path> </g> <g> <path class="st9" d="M30,5.5c-4.8,0-9.3,2-12.7,5.7c-1.7,1.8-3,3.9-3.9,6.2c-1,2.4-1.4,5-1.4,7.7c0,1.5,0.2,3,0.4,4.2 c2,9,9.2,15.3,17.7,15.3c3.8,0,7.4-1.2,10.5-3.6c1.5-1.1,2.8-2.5,3.9-4.1c1.1-1.6,2-3.3,2.6-5.1c0.8-2.3,1.1-4.5,1.1-6.8 c0-2.6-0.5-5.1-1.3-7.3c-1.4-3.7-3.7-6.7-6.7-8.9C37.1,6.7,33.6,5.5,30,5.5 M30,2.5c8.8,0,16.3,5.7,19.6,14.2 c0.9,2.4,1.5,5.3,1.5,8.4c0,2.6-0.4,5.1-1.3,7.7C47,41.3,39.2,47.6,30,47.6c-10,0-18.4-7.4-20.6-17.7 c-0.3-1.4-0.5-3.1-0.5-4.9C8.8,12.6,18.3,2.5,30,2.5z"></path> </g> </g> </g> <g id="Контур_9"> <path class="st9" d="M73.6,68.6c-2,0-3.9-0.4-5.8-1.1C60.7,64.3,58.9,57,59,53.6c0-1.7,0-11.1-0.1-27.2 C58.8,14,58.7,2.5,58.7,2.5l4,0c0,0,0.1,11.5,0.2,23.9c0.1,11.2,0.2,25,0.1,27.3c-0.1,2.9,1.6,8,6.4,10.1 c1.4,0.6,3,0.9,4.7,0.8l0.1,4C74,68.6,73.8,68.6,73.6,68.6z"></path> </g> <g id="Контур_10"> <path class="st9" d="M101.8,68.5L101.8,68.5c-1.1,0-24.3-1.1-23.8-22.7c0.4-17.5,12.6-23.8,23.8-23.8h0c4.6,0,9.1,1.3,13,3.8 c4.2,2.8,9.4,8.5,9.6,20c0,7-2.6,12.7-7.5,16.9C112.6,66.2,107.4,68.2,101.8,68.5L101.8,68.5z M101.8,25.9 c-4.5,0-19.3,1.4-19.8,19.9C81.6,63,99.3,64.4,101.8,64.5c4.6-0.3,8.9-1.9,12.5-4.9c4-3.5,6-8,6.1-13.8 c-0.2-9.7-4.3-14.4-7.8-16.6C109.4,27.1,105.6,26,101.8,25.9z"></path> </g> <g id="Сгруппировать_4" transform="translate(122.915 20.646)"> <g id="Контур_17"> <rect x="24.5" y="2.4" class="st9" width="15.6" height="3"></rect> </g> <g id="Контур_16"> <g> <path class="st2" d="M24.2,2.5C32.6,2.4,39.4,9,39.6,17.4c0,4.4-2,8.5-5.3,11.3c-2.8,2.4-6.4,3.7-10,3.6 C15.9,32.4,9,25.7,8.8,17.4C9,9,15.9,2.4,24.2,2.5z"></path> </g> <g> <path class="st9" d="M24.2,5.5c-3.3,0-6.4,1.2-8.8,3.5c-2.3,2.2-3.6,5.2-3.6,8.4s1.3,6.1,3.6,8.4c2.3,2.3,5.5,3.5,8.8,3.5 c3,0,6-1.1,8.1-2.9c1.4-1.2,2.4-2.6,3.2-4.1c0.7-1.5,1.1-3.2,1.1-4.9c0-3.2-1.3-6.1-3.6-8.4C30.6,6.7,27.5,5.5,24.2,5.5 M24.2,2.5c8.5,0,15.4,6.7,15.4,14.9c0,4.4-2,8.4-5.3,11.3c-2.5,2.2-6.1,3.6-10,3.6c-8.5,0-15.4-6.7-15.4-14.9 S15.7,2.5,24.2,2.5z"></path> </g> </g> <g id="Контур_11"> <path class="st9" d="M24,68c-3.2,0-7-0.9-11.6-3.3l1.4-2.7c12.4,6.6,17.8,0.5,19.9-1.7c1.6-2,2.9-3.4,1.3-8.7 c-1-2.9-3.8-5.1-8.2-6.5c-2.8-0.9-5.5-1.4-7.7-1.8c-1.6-0.3-2.8-0.5-3.7-0.8c-0.9-0.3-1.6-0.9-2.1-1.9 c-1.8-3.6,0.6-11.3,1.1-12.8l2.8,1c-1.1,3.3-2.2,8.6-1.3,10.5c0.1,0.3,0.3,0.3,0.3,0.4c0.7,0.2,1.9,0.4,3.3,0.7 c2.3,0.4,5.2,0.9,8.1,1.9c5.4,1.7,8.8,4.5,10.2,8.4c1.9,6.4,0.3,8.9-1.9,11.6C34.4,63.9,30.8,68,24,68z"></path> </g> </g> </g> </g> </g> </g> <g> <g> <path class="st9" d="M258.6,437.8c-0.5,1-1.3,1.9-2.5,2.6c-1.1,0.8-2.6,1.3-4.4,1.6c-1.7,0.3-3.3,0.3-4.7,0 c-1.4-0.3-2.6-0.8-3.5-1.6c-0.9-0.8-1.5-1.8-1.8-2.9c1.4-0.3,2.2-0.4,3.6-0.6c0.2,0.6,0.5,1.2,1,1.7c0.5,0.5,1.2,0.9,2.1,1.2 c0.9,0.3,1.9,0.3,3,0.1c1.5-0.2,2.6-0.8,3.3-1.6c0.7-0.8,1-1.7,0.9-2.8c-0.1-0.9-0.5-1.6-1.1-2.1c-0.6-0.5-1.4-0.8-2.2-1 c-0.9-0.2-2-0.4-3.5-0.5c-1.7-0.2-3.1-0.4-4.2-0.6c-1.1-0.2-2-0.7-2.8-1.4c-0.8-0.7-1.3-1.7-1.5-3c-0.2-1.2,0-2.2,0.6-3.2 c0.5-1,1.4-1.9,2.6-2.6c1.2-0.7,2.6-1.2,4.3-1.5c2.6-0.4,4.8-0.2,6.5,0.6s2.7,2,3.2,3.6c-1.5,0.2-2.2,0.3-3.7,0.6 c-0.3-0.9-0.9-1.5-1.9-2.1c-1-0.5-2.2-0.7-3.7-0.4c-1.4,0.2-2.5,0.7-3.2,1.5c-0.8,0.7-1.1,1.7-0.9,2.8c0.1,0.9,0.5,1.5,1.1,2 s1.3,0.7,2.2,0.9c0.8,0.2,2,0.3,3.4,0.5c1.8,0.2,3.2,0.4,4.3,0.7c1.1,0.3,2.1,0.8,2.9,1.5c0.8,0.7,1.3,1.8,1.5,3.2 C259.3,435.8,259.1,436.8,258.6,437.8z"></path> <path class="st9" d="M265.6,419.4c0.3,3.1,0.5,4.6,0.8,7.6c4-0.6,6.1-0.8,10.1-1.3c0.1,0.9,0.1,1.3,0.2,2.2 c-4,0.5-6.1,0.8-10.1,1.3c0.3,3.1,0.5,4.7,0.8,7.8c4.4-0.6,6.7-0.9,11.1-1.5c0.1,0.9,0.1,1.4,0.2,2.3c-5.8,0.7-8.7,1.1-14.5,1.9 c-1-8.9-1.5-13.4-2.5-22.3c5.9-0.9,8.9-1.3,14.9-2c0.1,0.9,0.1,1.4,0.2,2.3C272.4,418.4,270.1,418.7,265.6,419.4z"></path> <path class="st9" d="M300.4,414.3c2.1,0.8,3.7,2,5,3.7c1.2,1.7,1.9,3.6,2.1,5.8c0.1,2.2-0.3,4.2-1.4,6.1c-1,1.8-2.5,3.3-4.4,4.5 c-1.9,1.1-4.1,1.8-6.5,2.1c-2.4,0.2-4.7,0-6.7-0.8c-2.1-0.8-3.7-1.9-5-3.6c-1.3-1.6-2-3.5-2.2-5.7c-0.2-2.2,0.2-4.2,1.2-6.1 c1-1.9,2.5-3.4,4.4-4.6c1.9-1.2,4.2-1.9,6.7-2.1C296.1,413.2,298.4,413.5,300.4,414.3z M288.9,417.7c-1.4,0.9-2.5,2-3.2,3.4 c-0.7,1.4-1,3-0.8,4.8c0.1,1.8,0.7,3.3,1.6,4.5c0.9,1.2,2.1,2.1,3.6,2.7c1.5,0.6,3.1,0.8,5,0.6c1.8-0.2,3.4-0.7,4.8-1.5 c1.4-0.8,2.4-2,3.2-3.4c0.7-1.4,1-3,0.9-4.7c-0.1-1.8-0.6-3.3-1.5-4.6c-0.9-1.3-2.1-2.2-3.6-2.8c-1.5-0.6-3.2-0.8-5-0.6 C291.9,416.3,290.3,416.8,288.9,417.7z"></path> <path class="st9" d="M337.2,428.3c-4.7,0.1-7,0.2-11.7,0.4c-0.8,2.1-1.2,3.2-2,5.3c-1.5,0.1-2.2,0.1-3.7,0.2 c3.5-9,5.3-13.5,9.1-22.5c1.6-0.1,2.4-0.1,4-0.1c4.2,8.7,6.3,13,10.3,21.8c-1.5,0-2.2,0-3.7,0.1 C338.6,431.4,338.2,430.4,337.2,428.3z M336.2,426.1c-2-4.5-3.1-6.7-5.2-11.2c-1.8,4.6-2.8,6.9-4.5,11.5 C330.4,426.3,332.3,426.2,336.2,426.1z"></path> <path class="st9" d="M366.6,412.6c2.1,1.3,3.5,3.1,4.2,5.4c-1.5,0-2.2-0.1-3.7-0.1c-0.6-1.4-1.7-2.5-3.1-3.3 c-1.5-0.8-3.2-1.3-5.3-1.3c-1.8,0-3.5,0.3-4.9,1.1c-1.5,0.7-2.6,1.7-3.4,3.1c-0.8,1.3-1.2,2.9-1.2,4.7c0,1.8,0.4,3.4,1.3,4.7 c0.8,1.3,2,2.3,3.5,3c1.5,0.7,3.1,1.1,5,1.1c1.6,0,3.1-0.3,4.5-0.8c1.4-0.6,2.5-1.4,3.4-2.5c0.9-1.1,1.4-2.4,1.6-4 c-4.2-0.1-6.3-0.1-10.5-0.1c0-0.9,0-1.3,0-2.2c5.4,0,8.1,0.1,13.4,0.2c0,1.1,0,1.6-0.1,2.7c-0.3,1.8-0.9,3.4-2.1,4.8 s-2.6,2.5-4.4,3.4c-1.8,0.8-3.9,1.2-6.2,1.2c-2.5,0-4.8-0.5-6.7-1.5c-2-1-3.5-2.3-4.6-4c-1.1-1.7-1.7-3.7-1.7-5.9 c0-2.2,0.5-4.2,1.6-6c1.1-1.7,2.6-3.1,4.6-4.1c2-1,4.3-1.5,6.9-1.5C361.9,410.6,364.5,411.3,366.6,412.6z"></path> <path class="st9" d="M379.7,413.6c-0.1,3.1-0.1,4.6-0.2,7.7c4.1,0.2,6.1,0.3,10.2,0.5c0,0.9-0.1,1.3-0.1,2.2 c-4.1-0.2-6.1-0.3-10.1-0.5c-0.1,3.1-0.1,4.7-0.2,7.8c4.5,0.2,6.7,0.3,11.2,0.5c0,0.9-0.1,1.4-0.1,2.4c-5.8-0.3-8.7-0.5-14.5-0.6 c0.2-9,0.3-13.5,0.6-22.5c6,0.2,9,0.3,14.9,0.7c0,0.9-0.1,1.4-0.1,2.4C386.6,413.9,384.3,413.8,379.7,413.6z"></path> <path class="st9" d="M415.1,436.1c-1.4-0.1-2-0.2-3.4-0.3c-5-7.6-7.5-11.3-12.7-18.8c-0.4,7.1-0.6,10.6-0.9,17.7 c-1.4-0.1-2-0.1-3.4-0.2c0.4-9,0.7-13.5,1.1-22.4c1.4,0.1,2.1,0.1,3.5,0.2c5.2,7.5,7.8,11.3,12.8,18.8c0.5-7.1,0.7-10.6,1.2-17.7 c1.4,0.1,2.1,0.2,3.5,0.3C416.1,422.7,415.8,427.2,415.1,436.1z"></path> <path class="st9" d="M442.3,418.5c2,1.6,3.3,3.7,3.8,6.1c-1.5-0.2-2.2-0.3-3.6-0.5c-0.5-1.6-1.5-2.9-2.9-4 c-1.4-1.1-3.3-1.8-5.5-2c-1.8-0.2-3.4,0-4.8,0.5c-1.4,0.5-2.6,1.4-3.5,2.7c-0.9,1.2-1.4,2.7-1.6,4.5c-0.1,1.8,0.1,3.3,0.8,4.7 c0.7,1.4,1.7,2.5,3,3.4c1.3,0.9,2.8,1.4,4.5,1.6c2.2,0.3,4,0.1,5.6-0.6c1.6-0.7,2.8-1.7,3.6-3.1c1.4,0.2,2.2,0.3,3.6,0.5 c-1.1,2.2-2.7,3.8-4.9,4.9c-2.2,1.1-4.9,1.4-8.1,1c-2.5-0.3-4.6-1-6.4-2.2c-1.8-1.2-3.2-2.7-4.1-4.5c-0.9-1.8-1.3-3.9-1.1-6.1 c0.2-2.2,0.9-4.1,2.1-5.8c1.2-1.6,2.8-2.8,4.9-3.6c2-0.7,4.3-1,6.8-0.7C437.6,415.9,440.3,416.9,442.3,418.5z"></path> <path class="st9" d="M470.6,421.2c-4.3,4.9-6.4,7.3-10.6,12.3c-0.4,3.4-0.6,5.1-1.1,8.4c-1.4-0.2-2-0.3-3.4-0.6 c0.4-3.4,0.6-5.1,1-8.4c-2.8-6.1-4.2-9.1-7.1-15.2c1.6,0.2,2.4,0.4,4,0.6c2.1,4.7,3.2,7.1,5.2,11.8c3.1-3.9,4.7-5.8,7.9-9.6 C468.3,420.8,469.1,420.9,470.6,421.2z"></path> </g> </g> <g> <g> <path class="st9" d="M91.1,343.1c-6.7,1.8-10,2.8-16.7,4.7c-0.9-4.7-1.4-7.1-2.4-11.9c17.5-5,35.1-9.5,52.9-13.8 c0.8,4.8,1.1,7.2,1.9,12c-6.6,1.5-9.9,2.3-16.4,3.9c4.4,25.6,8.8,51.2,13.2,76.8c-7.3,1.8-10.9,2.8-18.2,4.7 C100.6,394.1,95.8,368.6,91.1,343.1z"></path> <path class="st9" d="M151.8,401.8c-5.2-4-8.6-10.7-10-20.3c-1.7-11.1-3.4-22.3-5.1-33.4c-1.5-9.5-0.2-17.1,3.8-23 c4-5.9,11.6-10,22.7-12.1c11-2.1,19.2-1,24.5,3.1c5.3,4.1,8.4,10.9,9.5,20.5c1.2,11.2,2.4,22.5,3.7,33.7c1,9.5-0.5,17.2-4.4,23 c-4,5.8-11,9.5-21.2,11.5C164.7,406.7,157,405.8,151.8,401.8z M181.3,387.7c1.1-2.5,1.4-6,0.9-10.3c-1.7-13.8-3.4-27.5-5.1-41.3 c-0.5-4.4-1.7-7.5-3.4-9.5s-4.8-2.5-9.1-1.7c-4.4,0.8-7.1,2.5-8.3,5.1c-1.2,2.5-1.5,5.9-0.9,10.2c1.9,13.7,3.8,27.4,5.7,41.2 c0.6,4.3,1.8,7.5,3.5,9.5c1.7,2,4.7,2.6,8.8,1.8C177.6,391.9,180.2,390.3,181.3,387.7z"></path> <path class="st9" d="M208.5,306.5c10.5-1.5,21.1-2.9,31.6-4c15.7-2.8,28.2,7.3,29,23c0.8,15.8-11.2,26.4-26.5,27.2 c-4.2,0.5-6.2,0.7-10.4,1.2c1.1,13.4,2.3,26.7,3.4,40.1c-7.3,0.9-11,1.4-18.3,2.4C214.4,366.5,211.5,336.5,208.5,306.5z M238.7,341.5c5.2-0.6,8.6-1.9,10.3-4c1.7-2.1,2.4-5.6,2-10.5c-0.2-3.6-0.7-6.3-1.5-8.1c-0.7-1.8-2.1-3.1-4.1-3.9 c-2-0.8-4.9-0.9-8.9-0.5c-3,0.3-4.5,0.5-7.5,0.9c0.9,10.8,1.4,16.2,2.3,26.9C234.2,342,235.7,341.9,238.7,341.5z"></path> <path class="st9" d="M311,297.3c10.4-0.4,15.6-0.5,26-0.6c11.4-0.1,19.9,1.8,25.4,5.5c5.5,3.7,8.2,10,8.1,18.8 c-0.1,5.7-1.2,10.4-3.2,14c-2,3.6-5.4,6.1-10.1,7.7c4.7,14.9,9.4,29.9,13.8,44.9c-7.4-0.2-11.1-0.2-18.5-0.3 c-4-13.9-8.1-27.7-12.3-41.5c-3.6,0-5.4,0-9,0.1c0.2,13.8,0.3,27.7,0.5,41.5c-7.3,0.1-11,0.2-18.4,0.5 C312.6,357.7,311.8,327.5,311,297.3z M337.2,335.5c5.5-0.1,9.3-1.1,11.6-3.3c2.3-2.2,3.5-5.7,3.5-10.6c0-4.8-1-8.2-3.1-10.4 c-2.1-2.2-5.8-3.3-11.2-3.2c-2.9,0-4.4,0-7.3,0.1c0.1,11,0.2,16.5,0.3,27.5C333.5,335.5,334.7,335.5,337.2,335.5z"></path> <path class="st9" d="M402,298.1c8.4,0.5,12.6,0.8,21.1,1.4c5.5,30.7,10.6,61.4,15.4,92.2c-6.8-0.7-10.2-1-17.1-1.5 c-1.1-8.5-1.7-12.7-2.9-21.2c-7.1-0.5-10.7-0.8-17.9-1.2c-2,8.3-3,12.4-4.9,20.7c-6.9-0.4-10.4-0.5-17.4-0.8 C385.8,357.8,393.7,327.9,402,298.1z M417,358.4c-1.7-12.8-3.5-25.7-5.3-38.5c-3,12.5-5.9,25-8.8,37.5 C408.5,357.8,411.3,358,417,358.4z"></path> <path class="st9" d="M460.1,315.4c-6.8-0.8-10.2-1.2-17-1.8c0.3-4.9,0.5-7.3,0.8-12.2c17.9,1.9,35.7,4.1,53.5,6.8 c-0.5,4.8-0.8,7.3-1.3,12.1c-6.6-1-9.9-1.5-16.6-2.4c-2.5,26-4.9,51.9-7.4,77.9c-7.4-1-11-1.5-18.4-2.3 C456,367.4,458.1,341.4,460.1,315.4z"></path> <path class="st9" d="M507.3,309.7c15,2.6,30,5.4,45,8.5c-0.7,4.6-1,6.9-1.7,11.5c-10.1-2.1-15.2-3.2-25.3-5 c-1.3,10.3-2,15.5-3.3,25.8c7.8,1.5,11.7,2.2,19.5,3.8c-0.6,4.5-1,6.8-1.6,11.4c-7.7-1.6-11.6-2.4-19.4-3.8 c-1.3,9.9-2.5,19.8-3.8,29.7c9.7,1.8,14.6,2.8,24.3,4.8c-0.7,4.5-1,6.7-1.6,11.1c-14.1-2.9-28.2-5.6-42.3-8 C500.5,369.6,503.9,339.7,507.3,309.7z"></path> <path class="st9" d="M563.9,320.8c10.1,2.3,15.1,3.5,25.1,6c8.6,2.2,15.1,4.9,19.6,8.2c4.5,3.3,7.4,7.2,8.6,11.7 c1.3,4.5,1.2,10.1-0.1,16.6c-2.1,10.7-4.3,21.4-6.4,32.1c-1.3,6.7-3.4,11.8-6.1,15.4c-2.7,3.6-6.6,5.8-11.5,6.6 c-4.9,0.8-11.2,0.2-18.9-1.7c-9.7-2.5-14.5-3.6-24.3-5.8C554.7,380.2,559.3,350.5,563.9,320.8z M575.8,404.2c4,1,7.1,1.2,9.1,0.4 c2-0.8,3.5-2.2,4.4-4.3c0.9-2.1,1.8-5.3,2.6-9.7c2.1-11.3,4.2-22.6,6.2-33.9c0.7-3.9,1-7,0.7-9.2c-0.2-2.2-1.2-4.1-3-5.5 c-1.8-1.5-4.7-2.8-8.9-3.8c-2.3-0.6-3.4-0.9-5.7-1.4c-3.7,22-7.5,44-11.2,66C572.4,403.4,573.5,403.7,575.8,404.2z"></path> </g> </g> <g> <path class="st9" d="M306,520l8.8-10.1l0.7-0.8c1.1-1.2,1.9-2.3,2.4-3.1c0.5-0.8,0.8-1.7,0.8-2.7c0-0.9-0.2-1.5-0.7-2 c-0.4-0.5-1.1-0.7-2-0.7c-1.2,0-2.1,0.4-2.5,1.1c-0.5,0.7-0.7,1.7-0.7,2.9v1.2H306v-1.3c0-2.5,0.8-4.5,2.4-6 c1.6-1.5,4.1-2.2,7.4-2.2c3.1,0,5.5,0.6,7.1,1.8c1.6,1.2,2.4,3,2.4,5.2c0,1.4-0.3,2.6-1,3.7c-0.7,1.1-1.7,2.5-3.2,4.1l-0.5,0.6 l-6.9,7.8h10.7v4.1H306V520z"></path> <path class="st9" d="M331.6,522c-1.6-1.4-2.5-3.3-2.5-5.7v-12.1c0-2.5,0.8-4.4,2.4-5.8c1.6-1.4,4-2.1,7.2-2.1 c3.2,0,5.6,0.7,7.2,2.1c1.6,1.4,2.4,3.3,2.4,5.8v12.1c0,2.4-0.8,4.2-2.5,5.7c-1.7,1.4-4,2.1-7.1,2.1 C335.7,524.1,333.3,523.4,331.6,522z M341.4,516.2v-11.9c0-1-0.2-1.8-0.5-2.5c-0.3-0.7-1-1-2.1-1c-1.1,0-1.9,0.3-2.2,1 c-0.3,0.7-0.5,1.5-0.5,2.5v11.9c0,2.2,0.9,3.4,2.7,3.4C340.6,519.6,341.4,518.4,341.4,516.2z"></path> <path class="st9" d="M352.7,520l8.8-10.1l0.7-0.8c1.1-1.2,1.9-2.3,2.4-3.1c0.5-0.8,0.8-1.7,0.8-2.7c0-0.9-0.2-1.5-0.7-2 c-0.4-0.5-1.1-0.7-2-0.7c-1.2,0-2.1,0.4-2.5,1.1c-0.5,0.7-0.7,1.7-0.7,2.9v1.2h-6.7v-1.3c0-2.5,0.8-4.5,2.4-6 c1.6-1.5,4.1-2.2,7.4-2.2c3.1,0,5.5,0.6,7.1,1.8c1.6,1.2,2.4,3,2.4,5.2c0,1.4-0.3,2.6-1,3.7c-0.7,1.1-1.7,2.5-3.2,4.1l-0.5,0.6 l-6.9,7.8h10.7v4.1h-18.4V520z"></path> <path class="st9" d="M378.3,522c-1.6-1.4-2.5-3.3-2.5-5.7v-12.1c0-2.5,0.8-4.4,2.4-5.8c1.6-1.4,4-2.1,7.2-2.1 c3.2,0,5.6,0.7,7.2,2.1c1.6,1.4,2.4,3.3,2.4,5.8v12.1c0,2.4-0.8,4.2-2.5,5.7c-1.7,1.4-4,2.1-7.1,2.1 C382.3,524.1,379.9,523.4,378.3,522z M388.1,516.2v-11.9c0-1-0.2-1.8-0.5-2.5c-0.3-0.7-1-1-2.1-1c-1.1,0-1.9,0.3-2.2,1 c-0.3,0.7-0.5,1.5-0.5,2.5v11.9c0,2.2,0.9,3.4,2.7,3.4C387.2,519.6,388.1,518.4,388.1,516.2z"></path> </g> <g> <line class="st10" x1="276.8" y1="511.1" x2="294.2" y2="511.1"></line> <rect x="276.8" y="510.1" class="st4" width="17.4" height="2"></rect> </g> <g> <line class="st10" x1="405.6" y1="510.4" x2="423" y2="510.4"></line> <rect x="405.6" y="509.4" class="st4" width="17.4" height="2"></rect> </g> <g> <circle class="st11" cx="350.9" cy="107.2" r="11"></circle> <line class="st11" x1="350.9" y1="38.3" x2="350.9" y2="96.2"></line> </g> </g> </svg> 