<?xml version="1.0" encoding="UTF-8"?> <svg xmlns="http://www.w3.org/2000/svg" xmlns:xlink="http://www.w3.org/1999/xlink" id="TDA" width="518.6" height="518.6" viewBox="0 0 518.6 518.6"><defs><linearGradient id="linear-gradient" y1="0.5" x2="1" y2="0.5" gradientUnits="objectBoundingBox"><stop offset="0" stop-color="#282631"></stop><stop offset="1" stop-color="#4f0238"></stop></linearGradient></defs><path id="Контур_5" data-name="Контур 5" d="M217,0C336.846,0,434,97.154,434,217S336.846,434,217,434,0,336.846,0,217,97.154,0,217,0Z" transform="translate(42.3 42.3)" fill="url(#linear-gradient)"></path><path id="Контур_1" data-name="Контур 1" d="M259.3,0C116.1,0,0,116.1,0,259.3S116.1,518.6,259.3,518.6,518.6,402.5,518.6,259.3,402.5,0,259.3,0Zm0,496.5c-131,0-237.2-106.2-237.2-237.2S128.3,22.1,259.3,22.1,496.5,128.3,496.5,259.3,390.3,496.5,259.3,496.5Z" fill="url(#linear-gradient)"></path><g id="Сгруппировать_1" data-name="Сгруппировать 1"><path id="Контур_2" data-name="Контур 2" d="M140.5,313.7a12.48,12.48,0,0,1-3.3-9V223H112.4c-7.5,0-11.3-3.4-11.3-10.3,0-6.8,3.8-10.2,11.3-10.2h73.3c7.5,0,11.3,3.4,11.3,10.2,0,6.9-3.8,10.3-11.3,10.3H161v81.7a12.521,12.521,0,0,1-3.2,9c-2.1,2.3-5,3.4-8.7,3.4A11.081,11.081,0,0,1,140.5,313.7Z" fill="#fff"></path><path id="Контур_3" data-name="Контур 3" d="M213.2,313.2c-1.9-2-2.9-5-2.9-8.7V214.2c0-3.8,1-6.7,2.9-8.7s4.7-3.1,8.3-3.1h30.7c11.7,0,21.8,2.3,30.3,6.8a45.644,45.644,0,0,1,19.4,19.5c4.5,8.5,6.7,18.7,6.7,30.5s-2.2,22-6.6,30.6a45.114,45.114,0,0,1-19.3,19.6c-8.5,4.5-18.6,6.8-30.4,6.8H221.6Q216.05,316.35,213.2,313.2ZM250.5,296q34.35,0,34.4-36.7,0-36.45-34.4-36.5H234.2V296Z" fill="#fff"></path><path id="Контур_4" data-name="Контур 4" d="M417.5,306.1a10.289,10.289,0,0,1-3.3,7.7,10.628,10.628,0,0,1-7.5,3.2,9.52,9.52,0,0,1-5.3-1.7,10.149,10.149,0,0,1-3.8-5.1l-7.8-19.1L365.1,230l-32.6,80.1a10.6,10.6,0,0,1-3.7,5.1,9.279,9.279,0,0,1-5.3,1.7,10.855,10.855,0,0,1-7.6-3.2,10.385,10.385,0,0,1-3.4-7.7,14.233,14.233,0,0,1,1.2-5.2l39.5-91.6a12.4,12.4,0,0,1,11.7-7.9,12.5,12.5,0,0,1,7,2.1,14.218,14.218,0,0,1,5,5.8l39.5,91.6A17.264,17.264,0,0,1,417.5,306.1Zm-52.4-76,24.7,61.1-24.7-61.1Z" fill="#fff"></path></g></svg> 