<?xml version="1.0" encoding="UTF-8"?> <!-- Generator: Adobe Illustrator 25.1.0, SVG Export Plug-In . SVG Version: 6.00 Build 0) --> <svg xmlns="http://www.w3.org/2000/svg" xmlns:xlink="http://www.w3.org/1999/xlink" version="1.1" id="Layer_1" x="0px" y="0px" viewBox="0 0 434.7 227.8" style="enable-background:new 0 0 434.7 227.8;" xml:space="preserve"> <style type="text/css"> .st0{fill:#6D6E71;} .st1{clip-path:url(#SVGID_2_);fill:#009EDA;} .st2{clip-path:url(#SVGID_2_);} .st3{fill:#FFFFFF;} </style> <g> <path class="st0" d="M262,102.7l-8.6,1.5c-0.1-4-1.7-6.3-5.1-6.3c-2.7,0-4.8,1.4-5.2,4c-1.2,7.9,18.1,11.1,15.8,26.1 c-1.4,9-8.2,13.6-16.8,13.6c-9.2,0-13.7-5.3-13.9-14.1l9.6-2.5c0,4.2,1,8,5.8,8c2.7,0,4.9-1.6,5.4-4.4c1.3-8.7-17.9-12-15.9-25.8 c1.2-8,8.2-13.5,16.1-13.5c3.1,0,5.7,0.7,7.8,2.2c1.8,0.1,2.3,0.5,3,0.5c1.7,0,2.2-1.1,2.6-1.9h1.8C264.3,90,262.6,103.6,262,102.7 z"></path> <path class="st0" d="M255.6,156.8l-5,0.1l0.3-2.3c4.4-0.7,5.5-1.6,6.1-5.4l1.5-10.1l7.3-48.8h10l-0.8,5.3h0.2 c4.1-4.4,6.9-6.2,12.2-6.2c6.6,0,10,4.9,8.6,14.1l-3.6,24.2c-1.4,9.2-6.2,14.1-12.8,14.1c-4.6,0-6.5-1.9-10.1-5.3l-3,20.3h-10.5 L255.6,156.8z M270.3,130.4c1.8,1.5,3.5,2.6,5.6,2.6c2.8,0,5.3-1.5,6.3-8.2l2.8-18.8c1-6.7-1-8.2-3.8-8.2c-2.1,0-4.1,1.1-6.4,2.6 L270.3,130.4z"></path> <path class="st0" d="M297.2,108c1.7-11.1,7.1-18.8,19.2-18.8c12,0,15.2,7.7,13.5,18.8l-2.2,14.8c-1.7,11.1-7.1,18.8-19.2,18.8 c-12,0-15.2-7.7-13.5-18.8L297.2,108z M319.7,106.2c0.9-5.8-0.8-8.3-4.6-8.3c-3.8,0-6.2,2.4-7.1,8.3l-2.8,18.6 c-0.9,5.8,0.8,8.3,4.6,8.3c3.8,0,6.2-2.4,7.1-8.3L319.7,106.2z"></path> <path class="st0" d="M330.3,98.8l1.3-8.6h5.8l2-13.6H350l-2,13.6h7l-1.3,8.6h-7l-4.4,29.1c-0.4,2.6,0.5,4.1,2.9,4.1h3.5l-1.3,9 c-1.5,0.4-2.7,0.6-5.3,0.6c-7.9,0-11.8-3.7-10.6-11.4l4.7-31.5H330.3z"></path> <path class="st0" d="M349.4,98.8l1.3-8.6h5.8l2-13.6h10.5l-2,13.6h7l-1.3,8.6h-7l-4.4,29.1c-0.4,2.6,0.5,4.1,3,4.1h3.5l-1.3,9 c-1.5,0.4-2.7,0.6-5.3,0.6c-7.9,0-11.8-3.7-10.6-11.4l4.7-31.5H349.4z"></path> <path class="st0" d="M403.6,117.4h-22.2l-1.1,7.3c-0.9,5.8,0.8,8.3,4.6,8.3c3.8,0,6.2-2.4,7.1-8.3l0.2-1.1h10.5 c-1.8,10.7-7.3,18-19,18c-12,0-15.2-7.7-13.5-18.8l2.2-14.8c1.7-11.1,7.1-18.8,19.2-18.8c12,0,15.2,7.7,13.5,18.8L403.6,117.4z M394.4,108.8l0.4-2.6c0.9-5.8-0.8-8.3-4.6-8.3c-3.8,0-6.2,2.4-7.1,8.3l-0.4,2.6H394.4z"></path> <path class="st0" d="M410.2,90.2h10l-0.9,5.9h0.2c3.2-4.3,8-6.9,13-6.9h2.2l-1.6,11c-1.8-0.5-3.5-1-6.6-1c-3.6,0-7.4,2.3-8.1,6.8 l-5.2,34.7h-10.5h-5.2l0.3-2.3c3.1-0.6,5.2-0.9,5.9-5.6l0.8-4.5L410.2,90.2z"></path> </g> <g> <defs> <path id="SVGID_1_" d="M227.8,113.9C227.8,51,176.8,0,113.9,0C51,0,0,51,0,113.9c0,62.9,51,113.9,113.9,113.9 C176.8,227.8,227.8,176.8,227.8,113.9z"></path> </defs> <clipPath id="SVGID_2_"> <use xlink:href="#SVGID_1_" style="overflow:visible;"></use> </clipPath> <path class="st1" d="M227.8,113.9C227.8,51,176.8,0,113.9,0C51,0,0,51,0,113.9c0,62.9,51,113.9,113.9,113.9 C176.8,227.8,227.8,176.8,227.8,113.9z"></path> <g class="st2"> <g> <path class="st3" d="M26.8,139v-5.1c-2.9,4.2-7.7,6.2-12.7,6.2c-7.6,0-14.7-5.8-14.7-15.9c0-10.4,7-15.7,14.7-15.7 c5,0,9.9,1.9,12.7,6v-7.1c0-5.8-3.4-9.1-9.3-9.1c-4.3,0-8.2,1.7-12,5.6l-3.9-6.9c4.9-5,11.4-7,17.7-7c10,0,17.5,4.7,17.5,16.3 V139H26.8z M26.8,128.4v-7.8c-1.9-3.6-5.5-5.1-9.1-5.1c-5.1,0-8.3,3.8-8.3,8.9c0,5.2,3.3,8.9,8.3,8.9 C21.3,133.3,24.9,131.9,26.8,128.4z"></path> <path class="st3" d="M14.1,141.3c-7.8,0-15.8-5.8-15.8-17c0-11.5,8.2-16.8,15.8-16.8c4.6,0,8.7,1.5,11.6,4.2v-4.3 c0-5.2-2.9-8-8.2-8c-4.1,0-7.8,1.7-11.2,5.2l-1,1l-5-8.9l0.6-0.6c4.7-4.8,11.2-7.4,18.4-7.4c11.8,0,18.5,6.3,18.5,17.3v33.9H25.7 v-3.2C22.7,139.7,18.6,141.3,14.1,141.3z M14.1,109.7c-6.8,0-13.6,4.5-13.6,14.6c0,9.7,6.8,14.8,13.6,14.8 c4.9,0,9.3-2.2,11.8-5.8l2-2.9v7.4h7.8v-31.7c0-12.5-8.9-15.2-16.4-15.2c-6.3,0-12.1,2.2-16.3,6.2l2.8,5 c3.6-3.3,7.4-4.9,11.7-4.9c6.5,0,10.4,3.8,10.4,10.2v10.6l-2-2.9C23.5,111.8,19.1,109.7,14.1,109.7z M17.7,134.4 c-5.5,0-9.4-4.1-9.4-10c0-5.9,3.9-10,9.4-10c4.5,0,8.2,2.1,10.1,5.6l0.1,0.2v8.4l-0.1,0.2C25.8,132.4,22.2,134.4,17.7,134.4z M17.7,116.6c-4.3,0-7.2,3.2-7.2,7.8c0,4.7,2.9,7.8,7.2,7.8c3.6,0,6.5-1.5,8-4.2v-7.3C23.6,117.1,19.8,116.6,17.7,116.6z"></path> </g> <g> <path class="st3" d="M40.6,152.3l4.2-7.7c3.2,3.6,7.3,5.4,12.4,5.4c6.1,0,11.4-3.3,11.4-11.7v-6.9c-2.9,4.9-7.5,7.7-12.4,7.7 c-10.8,0-17.6-9-17.6-24.5c0-15.2,6.7-24.6,17.6-24.6c4.8,0,9.4,2.5,12.4,7.6v-6.4h9.8v47.1c0,15.6-10.3,20.2-20.7,20.2 C50.8,158.4,45.4,156.9,40.6,152.3z M68.5,123.7v-18.5c-1.7-3.6-5.7-6.5-9.4-6.5c-6.9,0-10.3,6.6-10.3,15.9 c0,9.2,3.4,15.8,10.3,15.8C62.9,130.3,66.8,127.3,68.5,123.7z"></path> <path class="st3" d="M57.6,159.5c-7.6,0-13.1-2-17.8-6.4l-0.6-0.6l5.3-9.8l1,1.2c2.9,3.3,6.8,5,11.6,5c3.1,0,10.3-1,10.3-10.6 v-3.6c-3,3.5-7.1,5.5-11.3,5.5c-11.5,0-18.6-9.8-18.6-25.6c0-15.8,7.1-25.7,18.6-25.7c4.4,0,8.4,1.9,11.3,5.3V90h12v48.2 C79.4,151.8,71.5,159.5,57.6,159.5z M41.9,152.1c4.2,3.7,9,5.3,15.7,5.3c7.3,0,19.6-2.5,19.6-19.1v-46h-7.7v9.4l-2-3.5 C65,93.6,60.8,91,56.1,91c-10.2,0-16.5,9-16.5,23.5c0,14.7,6.2,23.4,16.5,23.4c4.5,0,8.8-2.7,11.5-7.2l2-3.4v10.9 c0,8-4.7,12.8-12.5,12.8c-4.8,0-8.9-1.6-12.1-4.6L41.9,152.1z M59.1,131.4c-7.1,0-11.4-6.3-11.4-16.9c0-10.6,4.3-17,11.4-17 c4,0,8.5,3.1,10.4,7.2l0.1,0.5l-0.1,19C67.6,128.3,63.1,131.4,59.1,131.4z M59.1,99.7c-5.8,0-9.2,5.5-9.2,14.8 c0,4.4,0.9,14.7,9.2,14.7c3.2,0,6.7-2.4,8.3-5.7v-18C65.8,102.2,62.3,99.7,59.1,99.7z"></path> </g> <g> <path class="st3" d="M80.2,115c0-13.9,7.8-25.1,20.6-25.1c13.1,0,19.9,11,19.9,25.4v3H90.3c0.4,7.8,4.7,13.8,12.6,13.8 c3.9,0,8-1.8,10.9-5.2l4.8,6c-4.2,4.7-10.1,7.3-16.7,7.3C88.7,140.2,80.2,129.9,80.2,115z M100.8,98c-7.5,0-10.4,7.3-10.6,13.2 h21.1C111.2,105.3,108.5,98,100.8,98z"></path> <path class="st3" d="M101.9,141.3c-13.6,0-22.7-10.6-22.7-26.3c0-15.4,8.9-26.2,21.7-26.2c12.8,0,21,10.4,21,26.5v4.1H91.4 c0.7,7.3,5,11.6,11.4,11.6c3.8,0,7.5-1.8,10.1-4.8l0.9-1l6.2,7.7l-0.6,0.7C114.9,138.5,108.7,141.3,101.9,141.3z M100.9,91 c-11.5,0-19.5,9.9-19.5,24c0,14.4,8.3,24.1,20.5,24.1c5.9,0,11.3-2.2,15.2-6.3l-3.4-4.2c-2.9,2.9-6.9,4.6-10.8,4.6 c-8,0-13.2-5.7-13.7-14.8l-0.1-1.1h30.6v-1.9C119.7,103.5,114.8,91,100.9,91z M112.4,112.3H89l0-1.1c0.2-7.1,4-14.2,11.7-14.2 c8.4,0,11.5,7.7,11.6,14.3L112.4,112.3z M91.3,110.1h18.8c-0.3-3.3-1.7-11-9.4-11C94.5,99.1,91.8,104.8,91.3,110.1z"></path> </g> <g> <path class="st3" d="M149,139v-32.6c0-5.7-2.6-7.7-6.8-7.7c-4.3,0-8,3.4-9.9,6.6V139h-9.8V91.1h9.8v6.4c2.7-3.9,8.1-7.6,14.1-7.6 c8.6,0,12.6,4.8,12.6,13.1v36H149z"></path> <path class="st3" d="M160,140.1h-12.1v-33.7c0-4.7-1.7-6.7-5.8-6.7c-3.7,0-7,2.9-8.8,5.9v34.5h-12V90h12v4.6 c3.1-3.1,7.8-5.7,13-5.7c8.9,0,13.7,4.9,13.7,14.2V140.1z M150.1,137.9h7.8V103c0-8.1-3.8-12-11.5-12c-5.7,0-10.8,3.7-13.2,7.2 l-2,2.8v-8.8h-7.7v45.7h7.7V105l0.1-0.3c1.9-3.3,5.9-7.2,10.9-7.2c5.3,0,7.9,3,7.9,8.8V137.9z"></path> </g> <g> <path class="st3" d="M160.8,115c0-14.4,8.2-25.1,21-25.1c7.1,0,11.8,2.9,14.7,6.4l-5,6.7c-2.4-3.1-5.2-4.5-8.6-4.5 c-7.5,0-11.9,7.2-11.9,16.4c0,9.1,4.4,16.5,11.9,16.5c3.5,0,6.2-1.5,8.6-4.5l5,6.7c-2.9,3.7-7.5,6.4-14.7,6.4 C169,140.2,160.8,129.5,160.8,115z"></path> <path class="st3" d="M181.8,141.3c-13,0-22.1-10.8-22.1-26.3c0-15.4,9.1-26.2,22.1-26.2c8.3,0,13,3.7,15.5,6.9l0.5,0.6l-6.3,8.6 l-0.9-1.1c-2.1-2.8-4.6-4-7.8-4c-7.5,0-10.8,7.7-10.8,15.3c0,7.7,3.3,15.4,10.8,15.4c3.1,0,5.6-1.3,7.8-4.1l0.9-1.1l6.3,8.5 l-0.5,0.6C193.8,138.9,188.4,141.3,181.8,141.3z M181.8,91c-11.7,0-19.9,9.9-19.9,24c0,14.2,8.2,24.1,19.9,24.1 c5.7,0,10.2-1.8,13.3-5.4l-3.7-5c-2.4,2.6-5.2,3.8-8.6,3.8c-7.6,0-13-7.2-13-17.5c0-10.4,5.2-17.4,13-17.4c3.4,0,6.2,1.2,8.6,3.8 l3.6-4.9C191.9,92.9,187.3,91,181.8,91z"></path> </g> <g> <path class="st3" d="M193.5,149c0.8,0.5,2.2,0.7,3.1,0.7c2.7,0,4.4-1,5.5-4.1l2.1-5.8l-16.3-48.8h10.6l10.7,36l10.8-36h10.5 l-19,56.8c-2.8,8-7.3,10.4-14.1,10.5c-1.5,0-4.2-0.3-5.4-0.7L193.5,149z"></path> <path class="st3" d="M197.4,159.5L197.4,159.5c-1.4,0-4.3-0.3-5.7-0.8l-0.9-0.3l1.9-11.2l1.4,0.8c0.6,0.3,1.7,0.5,2.5,0.5 c2.1,0,3.4-0.5,4.4-3.3l2-5.4L186.4,90h12.9l9.9,33.3l10-33.3H232l-19.5,58.3C209.8,156,205.3,159.4,197.4,159.5L197.4,159.5z M193.3,156.9c1.2,0.2,3,0.4,4.1,0.4c5.8-0.1,10.3-1.8,13.1-9.8L229,92.2h-8.2l-11.6,38.7l-11.5-38.7h-8.3l15.9,47.7l-2.2,6.1 c-1.2,3.3-3.2,4.8-6.5,4.8c-0.6,0-1.5-0.1-2.2-0.3L193.3,156.9z"></path> </g> </g> </g> </svg> 