<svg xmlns="http://www.w3.org/2000/svg" width="405.1" height="392.408" viewBox="0 0 405.1 392.408">
  <g id="Illustration_2" transform="translate(-46.8 -57.692)">
    <g id="Group_218" data-name="Group 218" transform="translate(0 5)">
      <path id="Path_480" data-name="Path 480" d="M384,371.4a3.437,3.437,0,0,1-.8,2.2,8.621,8.621,0,0,1-1.7,1.5c-3.2,2.2-9,3.6-15.7,3.6-10,0-18.2-3.3-18.2-7.3,0-3.5,6-6.4,14-7.1,1.1-.1,2.2-.2,3.3-.2h.9C375.8,364,384,367.3,384,371.4Z" fill="#6ecb6b"/>
      <path id="Path_481" data-name="Path 481" d="M309.2,364.2a17.034,17.034,0,0,1-1.9,7.9,26.1,26.1,0,0,1-2.7,4.4,39.226,39.226,0,0,1-9.4,8.5c-17.8,12.3-51,20.5-88.9,20.5-56.8,0-102.9-18.5-102.9-41.4,0-8.5,6.4-16.4,17.3-22.9-9.8-3.6-15.9-8.8-15.9-14.6,0-9.4,16.2-17.2,38-19.3a87.229,87.229,0,0,1,9-.5h2.3c24,0,44,6.9,48.4,16h3.8C263.1,322.8,309.2,341.3,309.2,364.2Z" fill="#7dc456"/>
      <g id="Group_210" data-name="Group 210">
        <g id="Group_209" data-name="Group 209">
          <path id="Path_482" data-name="Path 482" d="M212.2,380.1s-2.4.1-6.5,0" fill="none" stroke="#d6e9ea" stroke-linecap="round" stroke-linejoin="round" stroke-width="1.963"/>
          <path id="Path_483" data-name="Path 483" d="M192.3,379.5C160,377,100,365.1,99.6,311.3c-.6-73.6,69.3-103.7,164.3-122.9,80.1-16.1,79.4-55.4,69.4-79.5" fill="none" stroke="#d6e9ea" stroke-linecap="round" stroke-linejoin="round" stroke-width="1.963" stroke-dasharray="13.41 13.41"/>
          <path id="Path_484" data-name="Path 484" d="M330.4,102.9q-1.65-3.15-3.3-5.7" fill="none" stroke="#d6e9ea" stroke-linecap="round" stroke-linejoin="round" stroke-width="1.963"/>
        </g>
      </g>
      <path id="Path_485" data-name="Path 485" d="M395.2,410.1a14.67,14.67,0,0,1-1.6,6.7,20.625,20.625,0,0,1-2.3,3.7,34.812,34.812,0,0,1-7.9,7.2c-15.1,10.4-43.1,17.4-75.3,17.4-48.1,0-87.1-15.7-87.1-35,0-16.6,28.6-30.4,67.1-34.1q7.8-.75,15.9-.9h4.1C356.2,375.1,395.2,390.7,395.2,410.1Z" fill="#7dc456"/>
      <path id="Path_486" data-name="Path 486" d="M337.1,427.1s11.1,5.5,12.5,6.5c0,0,43.1-14.7,48-14.4l-88-15.7Z" fill="#68c18c" opacity="0.44"/>
      <g id="Group_211" data-name="Group 211">
        <path id="Path_487" data-name="Path 487" d="M232.6,388.5s-26.4-13.7-72.7-25.1c0,0,8-5.1,13.9-2.7,0,0,10.7,10.4,23.3,9.6C216.4,369.1,229.7,386.9,232.6,388.5Z" fill="#68c18c" opacity="0.49"/>
        <path id="Path_488" data-name="Path 488" d="M161.5,355.1s56.4,21.8,71.1,33.4c0,0,18-118.6-6.2-155.2,0,0-57.5-32.9-71.1-32.4C155.4,200.8,176.3,271.9,161.5,355.1Z" fill="#eff7f9"/>
        <path id="Path_489" data-name="Path 489" d="M167.6,314s-1.5,2.2-2.6,15.8c0,0,11.5-10.3,71.3,6.1C236.3,335.9,199.5,318.3,167.6,314Z" fill="#8ba3a5" opacity="0.34"/>
        <path id="Path_490" data-name="Path 490" d="M202.1,227.8s7.3,6.7,19.7,18.7c0,0-19.9-12.5-40.5-12.7Z" fill="#8ba3a5" opacity="0.34"/>
        <path id="Path_491" data-name="Path 491" d="M232.6,388.5s41-13.8,68.6-21.4c0,0,10.3-83.5,0-150.7,0,0-67.3,16.5-76,16.7C225.2,233.1,241.3,248.3,232.6,388.5Z" fill="#d6e8ea"/>
        <path id="Path_492" data-name="Path 492" d="M175.2,244.3s26,5.7,43.5,16.6A142.221,142.221,0,0,0,175.2,243Z" fill="#d9e6e8"/>
        <path id="Path_493" data-name="Path 493" d="M293.1,278.5l10.4-2.7-10.4,4Z" fill="#c3dadb"/>
        <path id="Path_494" data-name="Path 494" d="M223.2,245.5s-20.7-13.2-41.2-13.4-1.3,0-1.3,0l-1.5-3.8,7.9-5.7,15.7,3.5S228.2,232.2,223.2,245.5Z" fill="#fafeff"/>
        <path id="Path_495" data-name="Path 495" d="M186.9,220.2s38.5,23.6,40,34.4a125.444,125.444,0,0,1,12.9-10.9c6.6-4.8,38.3-23.1,38.3-23.1l-86.4-3.9Z" fill="#8ba3a5" opacity="0.34"/>
        <path id="Path_496" data-name="Path 496" d="M187.1,218.9s38.3,22.3,39.8,33.1c0,0,5.6-2.4,12.9-10.9,5.3-6.2,38.3-23.1,38.3-23.1l-86.4-3.9Z" fill="#fafeff"/>
        <path id="Path_497" data-name="Path 497" d="M260.5,235.5s18,3.2,21,14.7a48.717,48.717,0,0,0,2.4-25.4S262.8,234.3,260.5,235.5Z" fill="#8ba3a5" opacity="0.34"/>
        <path id="Path_498" data-name="Path 498" d="M261.8,234.8s18,3.2,21,14.7a48.717,48.717,0,0,0,2.4-25.4C285.2,224.2,264.1,233.7,261.8,234.8Z" fill="#f5fcff"/>
        <path id="Path_499" data-name="Path 499" d="M155.4,202.1s49.9,19.6,74.1,41.8c2.6,2.4,5.5,5.9,5.1,9.3,0,0,58-34.3,66.7-36.8,0,0-32.8-22.6-75.1-24.5C226.1,191.9,173.3,193.5,155.4,202.1Z" fill="#8ba3a5" opacity="0.23"/>
        <path id="Path_500" data-name="Path 500" d="M151,200.7s67,21.4,86.3,46.1c0,0,55.3-27.8,63.9-30.3,0,0-30.5-26.1-72.8-28C228.4,188.4,168.9,192,151,200.7Z" fill="#eff7f9"/>
        <path id="Path_501" data-name="Path 501" d="M182.2,306.8s7.7,4,7.2-6.1c-.6-10.1-5.9-47.4,9.8-71.3,2.9-4.4,19.6-11.4,17-14.4-3.8-4.3-20.7,9.9-20.7,9.9s-14,5.2-15.2,9.3S172.3,290.7,182.2,306.8Z" fill="#8ba3a5" opacity="0.23"/>
        <path id="Path_502" data-name="Path 502" d="M234.1,382.3s-20.9-14-54.8-26.2c0,0,39.2,13.1,54.8,24.7Z" fill="#d9e6e8"/>
        <path id="Path_503" data-name="Path 503" d="M235.5,331.9s-19.2-10.6-54.8-19.1c0,0,39.6,7.6,54.8,17.7Z" fill="#d9e6e8"/>
        <path id="Path_504" data-name="Path 504" d="M163.1,345s19.3,5.3,35.1,12.8c0,0-24.9-11.8-35-14.1Z" fill="#d9e6e8"/>
        <path id="Path_505" data-name="Path 505" d="M166.5,303.8s16.1,4,36.3,9.3c0,0-26-8.3-36.1-10.6Z" fill="#d9e6e8"/>
        <path id="Path_506" data-name="Path 506" d="M166.3,312.7s-6.3,4.5-8.5,17.1c0,0,17.4-11.6,77.2,4.8C235,334.6,198.2,317,166.3,312.7Z" fill="#fafeff"/>
        <path id="Path_507" data-name="Path 507" d="M235.2,294.5s47.6-10.3,57.5,0c0,0,6.4-9.3,4.1-15.6Z" fill="#c5d6d8"/>
        <path id="Path_508" data-name="Path 508" d="M235.2,293.2s47.6-10.3,57.5,0c0,0,6.4-9.3,4.1-15.6Z" fill="#f0fdff"/>
        <path id="Path_509" data-name="Path 509" d="M234.1,277.2a151.669,151.669,0,0,0-37.7-15.4s16.2,2.9,37.5,13.1Z" fill="#d9e6e8"/>
        <path id="Path_510" data-name="Path 510" d="M218.7,379.5s-43.5-14.5-60-17.4c0,0,8-5.1,13.9-2.7,0,0,11.7,4.6,23.3,9.6C205.9,373.3,215.7,377.9,218.7,379.5Z" fill="#f0f7f7"/>
        <path id="Path_511" data-name="Path 511" d="M235.2,301s-21.1-7-24.4-8.1l24.2,6.8Z" fill="#d9e6e8"/>
        <path id="Path_512" data-name="Path 512" d="M304.8,252s-22.7,8.7-26.7,11.1l26.7-9.8Z" fill="#c3dadb"/>
        <path id="Path_513" data-name="Path 513" d="M233.2,266.8s32.1-10,41.3-13.6c0,0-31.3,13.1-41.1,15.1Z" fill="#c3dadb"/>
        <path id="Path_514" data-name="Path 514" d="M233.4,376.1l34.1-10.5-34.3,9.2Z" fill="#c3dadb"/>
        <path id="Path_515" data-name="Path 515" d="M233.5,370.2l.1-1.1,22-4.2Z" fill="#c3dadb"/>
        <path id="Path_516" data-name="Path 516" d="M304.4,330.2l-55.3,12.4,55.4-14.3Z" fill="#c3dadb"/>
        <path id="Path_517" data-name="Path 517" d="M303.4,344.7l-12.9,3.5,13-4.1Z" fill="#c3dadb"/>
        <path id="Path_518" data-name="Path 518" d="M245.5,384.2s41.1-9.8,46.3-9.1a21.066,21.066,0,0,0-11.2-2Z" fill="#f0f7f7"/>
      </g>
      <path id="Path_519" data-name="Path 519" d="M170.5,328.9s2,1.9,3.6,1.5,4.7-1.2,7.8-8.2a60.625,60.625,0,0,0,4.7-16.1,12.274,12.274,0,0,0-.6-5.7S176.4,324.8,170.5,328.9Z" fill="#8ba3a5" opacity="0.23"/>
      <g id="Group_212" data-name="Group 212">
        <path id="Path_520" data-name="Path 520" d="M364,382.3s-30.7,12.3-49.2,18.3c-.2-15.9-3.3-33.9-13.2-48.9,0,0-15.9,42-29.5,42.5a274.188,274.188,0,0,1-35.7,8.3s58.4,28.2,73.2,39.8c0,0,43.3-18.8,70.8-26.3C380.3,416,359.4,416.9,364,382.3Z" fill="#68c18c" opacity="0.44"/>
        <path id="Path_521" data-name="Path 521" d="M339.8,426.2s9.7,5.5,11.2,6.4c0,0,41.8-15,46.7-14.7l-87.3-16.4Z" fill="#eff7f9"/>
        <path id="Path_522" data-name="Path 522" d="M236.3,399.7s55.9,25.6,70.7,37.2c0,0,16.2-53.9-7.9-90.6,0,0-57.5-32.9-71.1-32.4C228,313.9,237.5,346.2,236.3,399.7Z" fill="#eff7f9"/>
        <path id="Path_523" data-name="Path 523" d="M236.8,379.6s4.3,3,3.2,16.7c0,0,13-12,65.5,5.2C305.6,401.5,268.8,383.8,236.8,379.6Z" fill="#8ba3a5" opacity="0.34"/>
        <path id="Path_524" data-name="Path 524" d="M307,436.9s41-13.8,68.6-21.4c0,0-5.7-36.9-1.8-86,0,0-67.3,16.5-76,16.7C297.7,346.2,312.4,358.6,307,436.9Z" fill="#d6e8ea"/>
        <path id="Path_525" data-name="Path 525" d="M233.4,345s26,5.7,43.5,16.6a142.221,142.221,0,0,0-43.5-17.9Z" fill="#d9e6e8"/>
        <path id="Path_526" data-name="Path 526" d="M359.4,392.9l13.7-3.1-13.7,4.4Z" fill="#c3dadb"/>
        <path id="Path_527" data-name="Path 527" d="M230.8,326.6c21.7,5.9,64.2,29,74.7,41.7,0,0,.2-3,7.6-11.5,5.3-6.2,38.3-23.1,38.3-23.1s-89.2-25.2-117.5-16.4C231.1,318.1,230.8,326.6,230.8,326.6Z" fill="#8ba3a5" opacity="0.23"/>
        <path id="Path_528" data-name="Path 528" d="M224.8,322.3c21.7,5.9,69.5,30.7,80,43.3,0,0,.2-3,7.6-11.5,5.3-6.2,38.3-23.1,38.3-23.1s-89.2-25.2-117.5-16.4C230.5,315.5,224.8,322.3,224.8,322.3Z" fill="#fafeff"/>
        <path id="Path_529" data-name="Path 529" d="M228,315.2s51.3,24.9,65.2,48.1c0,0,39.9-28.6,80.7-33.8,0,0-32.8-22.6-75.1-24.5C298.7,305,245.9,306.5,228,315.2Z" fill="#8ba3a5" opacity="0.23"/>
        <path id="Path_530" data-name="Path 530" d="M223.6,313.7s51.3,21.7,70.6,46.4c0,0,16-15.1,79.7-30.6,0,0-30.5-26.1-72.8-28C301,301.5,241.5,305.1,223.6,313.7Z" fill="#eff7f9"/>
        <path id="Path_531" data-name="Path 531" d="M235.7,369.4s16.1,4,36.3,9.3c0,0-26-8.3-36.1-10.6Z" fill="#d9e6e8"/>
        <path id="Path_532" data-name="Path 532" d="M236.2,378.3s5.6,4.5,3.4,17.1c0,0,4.9-11.5,64.6,4.8C304.3,400.2,268.1,382.5,236.2,378.3Z" fill="#fafeff"/>
        <path id="Path_533" data-name="Path 533" d="M307.8,407.5s47.6-10.3,57.5,0a47.528,47.528,0,0,0-2.3-14Z" fill="#c5d6d8"/>
        <path id="Path_534" data-name="Path 534" d="M307.8,406.2s47.6-10.3,57.5,0c0,0,4.6-12.1-4.7-13.4Z" fill="#f0fdff"/>
        <path id="Path_535" data-name="Path 535" d="M306.7,390.3A151.669,151.669,0,0,0,269,374.9s16.2,2.9,37.5,13.1Z" fill="#d9e6e8"/>
        <path id="Path_536" data-name="Path 536" d="M307.8,414.1s-21.1-7-24.4-8.1l24.2,6.8Z" fill="#d9e6e8"/>
        <path id="Path_537" data-name="Path 537" d="M372.4,367s-17.7,6.7-21.7,9.1l21.7-7.9Z" fill="#c3dadb"/>
        <path id="Path_538" data-name="Path 538" d="M307.2,378.8s30.7-8.9,39.8-12.5c0,0-29.9,12.1-39.7,14Z" fill="#c3dadb"/>
        <path id="Path_539" data-name="Path 539" d="M307.9,426.5,342.1,416l-34.4,9.2Z" fill="#c3dadb"/>
        <path id="Path_540" data-name="Path 540" d="M308.1,420.6l.1-1.1,21.9-4.2Z" fill="#c3dadb"/>
      </g>
      <path id="Path_541" data-name="Path 541" d="M334.4,347.9l38.8-10.7v2Z" fill="#c3dadb"/>
      <path id="Path_542" data-name="Path 542" d="M230,409.8s-2.3,9.8,2.3,10.7,9.8-4.8,10.9-21.9C243.8,390,230,409.8,230,409.8Z" fill="#fff"/>
      <path id="Path_543" data-name="Path 543" d="M233.9,395.5s-8.3,23.1-2.2,23.7c9.5.9,9.9-24.7,9.9-24.7a4.037,4.037,0,0,1-3.7,2.7A5.027,5.027,0,0,1,233.9,395.5Z" fill="#243956"/>
      <path id="Path_544" data-name="Path 544" d="M330.6,323.6s-1.3,4.7,2.8,6.6c8.2,3.7,12.8,2.5,16.4,2.3,3.6-.3,5.2-2.8,4-3.3-1.6-.6-11.5-5.4-15-5.5C335.8,323.7,330.6,323.6,330.6,323.6Z" fill="#ffd1b2"/>
      <path id="Path_545" data-name="Path 545" d="M331.2,328.3s3.4,6.8,6.1,7.2c4.1.5-1.8-6.1-1.8-6.1Z" fill="#ffd1b2"/>
      <path id="Path_546" data-name="Path 546" d="M252.2,319.3s-17.8,16.2-22.5,24.4,3.7,53.8,3.7,53.8,3.4,4.5,8.6.2c2.2-1.8-1.9-34.3,2.5-45,1.2-2.9,8.2-13.2,17.2-20.5,1.9-1.5,7.9,3.4,9.8,2a41.573,41.573,0,0,0,13.6-17.4S266.2,303.5,252.2,319.3Z" fill="#f39c33"/>
      <path id="Path_547" data-name="Path 547" d="M279.8,319.7s-25.5,24.5-28.3,36.3c-1.3,5.6,2.1,16,5.2,26.3,4.1,14,8.6,27.6,8.6,27.6s4.6,2.9,6.5-1.3c1.7-3.9-3.7-40.6-4.3-43-2.4-9.5,13.8-18.7,20.3-28.4C292.1,330.6,293,326.3,279.8,319.7Z" fill="#f39c33"/>
      <path id="Path_548" data-name="Path 548" d="M185.7,207.2s-22.2,17.9-22.2,28.4l11.3,49.8s-4.3,6-7.1,1.8c-4.2-6.3-15.9-33-20.9-44.2-4.8-10.8-4.6-16.4,2.4-27.6,2.9-4.6,20.1-11.6,23-12.5C175.2,202,177.2,190.1,185.7,207.2Z" fill="#183a6b"/>
      <path id="Path_549" data-name="Path 549" d="M173.8,284.4s-2.3,6.1-6.5,2c0,0,2.5,5.6,2.4,8.1s2.1,12.8,7.2,15.2l1.5-14.6Z" fill="#243956"/>
      <path id="Path_550" data-name="Path 550" d="M212.6,217.1s-22.9,9.6-27.1,29.5l-2,53.4s-7,4.8-8-.4c-1.3-6.4-6.1-37.8-8.2-51.1-2-12.8-2.7-22.5,6.9-32.5,4-4.1,10.2-13.5,13.2-13.7S208.6,196.7,212.6,217.1Z" fill="#183a6b"/>
      <path id="Path_551" data-name="Path 551" d="M249.2,210s-1,4.8,3.3,6.4c8.4,3.2,13.9.4,17.5,0a3.877,3.877,0,0,0,3.7-3.5s-14.3-.9-16.2-3.3C255.5,207.2,249.2,210,249.2,210Z" fill="#ffd1b2"/>
      <path id="Path_552" data-name="Path 552" d="M250.1,214.7s4.1,6,8.7,5.5-4.4-4.7-4.4-4.7Z" fill="#ffd1b2"/>
      <path id="Path_553" data-name="Path 553" d="M172.3,186.6s8.4-2.1,7.9-9.9c-1.3-21.6-3.8-41.8,2.9-48.1,0,0,2.8-2.2,9.9-.9,7.2,1.2,13.7,2.5,13.7,2.5s13.8.8,20.8,10.2,28.8,51.6,29.9,69.2c0,0-.7,3.3-8.2.4,0,0-13.8-38.5-27.3-48.6,0,0,2,56.4-10.5,57.4,0,0-.3-8.3-7.4-12.7-9.2-5.7-26-6.8-28.2,6.7C174.6,219.3,172.3,186.6,172.3,186.6Z" fill="#7dc456"/>
      <path id="Path_554" data-name="Path 554" d="M265.5,290.2c1.6-21.5-1.6-43.4,5.9-48.7,0,0,3-1.8,10,.4,6.9,2.2,13.3,4.3,13.3,4.3s13.5,2.7,19.2,12.9,26.3,47,25,64.6c0,0-5.8,5.2-8.7.3,0,0-12.7-33.1-24.7-44.9,0,0-3.8,56.9-16.4,56.3,0,0-4.4-8.6-10.9-14-8.4-6.9-12.1-8-24.2-3.9C253.9,317.5,264.9,298.1,265.5,290.2Z" fill="#183a6b"/>
      <path id="Path_555" data-name="Path 555" d="M221.5,164.2s1.6-7.5,5-6.8,1.4.4,1.4.4,4.6-5,8.3-4.4-.8,2.9-.8,2.9,2.6,1.4,2.2,2.6,0,4.8,0,4.8-.1,6.7-14.7,8.1C208.4,173.1,221.5,164.2,221.5,164.2Z" fill="#ffd1b2"/>
      <path id="Path_556" data-name="Path 556" d="M250.1,280.3s5.5,5.3,3.2,7.9-1,1-1,1a30.482,30.482,0,0,1-1.5,4.7c-1.8,3.9-8.7.4-8.7.4s-2.1-2.3-.1-10.1c.5-1.9-2.1-7-.9-9.5C247.6,261.5,250.1,280.3,250.1,280.3Z" fill="#ffd1b2"/>
      <path id="Path_557" data-name="Path 557" d="M178.5,145.8s-1.3,17.4,13,32.8c9.3,10,32.5-5.7,32.9-6.9,2.5-8.8-4-8.6-4-8.6s-14.1,7-20.5,4.5c-8-3-2.8-38.3-14.9-39.2C177.2,127.9,177.1,143.4,178.5,145.8Z" fill="#7dc456"/>
      <path id="Path_558" data-name="Path 558" d="M211.6,130s6.2,7.7,9,6.4c9.8-4.6,13.5-25,10.8-29.7-2.8-4.7-4.7-7.6-15.7-5.5-10.2,1.9-15.8,15.9-8.9,23.5Z" fill="#ffd1b2"/>
      <path id="Path_559" data-name="Path 559" d="M199.2,131.4c.6-3.6,2-.7,4.7-12,0,0,4.2-2.8,8.3,2.7s-.3,10.7.5,14.5C213.5,140.5,197.8,140,199.2,131.4Z" fill="#ffd1b2"/>
      <path id="Path_560" data-name="Path 560" d="M175.5,200.6l37.4,6.5c3.6.6,4.6,2,2.2,3.1L195.8,219c-2.4,1.1-7.2,1.4-10.8.8l-37.4-6.5c-3.6-.6-4.6-2-2.2-3.1l19.3-8.8C167,200.4,171.9,200,175.5,200.6Z" fill="#e0e0e0"/>
      <path id="Path_561" data-name="Path 561" d="M292.7,192.4" fill="#ffd1b2"/>
      <path id="Path_562" data-name="Path 562" d="M203.3,122s-2.1-7,0-11.8,2.1-9.6,8.2-11.4,17.6-1.3,20.9,6.2c3.3,7.6,1.6,10.5-.6,12.6,0,0-4.7-7.1-12.4-5.1-7.6,2-4.4-3.7-4.4-3.7s-4.3,4.2-3,9.6-2.8-10.2-5.4-4.6A58.978,58.978,0,0,0,203.3,122Z" fill="#2e4b5b"/>
      <path id="Path_563" data-name="Path 563" d="M288.2,240.6s-5.1-1-5.8-2.1c-5.1-8,.8-26.1,6.1-27.4s11.3-2.9,17.6,6.5c5.7,8.6-.3,22.4-10.6,22.8Z" fill="#ffd1b2"/>
      <path id="Path_564" data-name="Path 564" d="M295.9,250.6c2.1-2.9-.9-1.9,5.3-11.7,0,0-.9-4.7-7.7-4.1-8.3.8-8.2,6.8-9.8,11.8C282.4,250.3,290.7,257.5,295.9,250.6Z" fill="#ffd1b2"/>
      <path id="Path_565" data-name="Path 565" d="M299.8,241s6.5-3.4,8.5-8.2c2-4.9,5.4-8.2,2.4-13.8s-11.3-13.5-19-10.6-8.6,6.2-8.6,9.3c0,0,2.7-4,6.4-4.4,4.7-.5,10.8,3.2,13.4,9.4,1,2.3,2.7,4.6.5,10.4A50.293,50.293,0,0,1,299.8,241Z" fill="#2e4b5b"/>
      <path id="Path_566" data-name="Path 566" d="M118.2,186.6s-16.8,22.9-55.4-1.1c0,0,15.1-6.2,13.5-11.4C74.6,169.1,88.6,197.2,118.2,186.6Z" fill="#eaf5f9"/>
      <path id="Path_567" data-name="Path 567" d="M62.8,185.6l-1-5.6s29.5,27.1,56.4,6.7C118.2,186.6,100,211.2,62.8,185.6Z" fill="#fafeff"/>
      <path id="Path_568" data-name="Path 568" d="M85.2,244.7s10.7,5.6,13,12.3c0,0,9.3-6.8,11.5-16.7C109.7,240.3,93.6,246.9,85.2,244.7Z" fill="#d6e8ea"/>
      <path id="Path_569" data-name="Path 569" d="M85.2,244.7s32.9,7.3,44.5-19.9c0,0-5-6-22.2-9C107.6,215.7,118.2,247.4,85.2,244.7Z" fill="#eff7f9"/>
      <path id="Path_570" data-name="Path 570" d="M384,151.3" fill="#9cc9e2"/>
      <path id="Path_571" data-name="Path 571" d="M384,151.3s-10.7,5.8-13,8.1-14.7,13.7-15.7,27.8c0,0,8.6,19.2,39.7,10.6A53.177,53.177,0,0,1,384,151.3Z" fill="#eaf5f9"/>
      <path id="Path_572" data-name="Path 572" d="M371.2,228.3c-2.5-2.8-13.8-5.7-13.8-5.7s9.9,18.3,6.9,22.4l3.6.6S378.3,236.4,371.2,228.3Z" fill="#d6e8ea"/>
      <path id="Path_573" data-name="Path 573" d="M354,250.3s14.4-2.5,17.2-22c0,0,6.2,6.2,5.6,23C376.8,251.3,368,255.2,354,250.3Z" fill="#eaf5f9"/>
      <path id="Path_574" data-name="Path 574" d="M333.1,348.5s20.2-4,23.2,7.5a15.614,15.614,0,0,0,7.5-15.7C363.8,340.4,335.4,347.4,333.1,348.5Z" fill="#8ba3a5" opacity="0.34"/>
      <path id="Path_575" data-name="Path 575" d="M334.4,347.9s20.3-3.4,23.4,8.2c0,0,11.6-11,12.6-18.1C370.3,338,336.7,346.7,334.4,347.9Z" fill="#f5fcff"/>
      <path id="Path_576" data-name="Path 576" d="M170.5,326.9s2,1.9,3.6,1.5,4.7-1.2,7.8-8.2a60.625,60.625,0,0,0,4.7-16.1,12.274,12.274,0,0,0-.6-5.7S176.4,322.7,170.5,326.9Z" fill="#fff"/>
      <path id="Path_577" data-name="Path 577" d="M174.5,296s-.4,5.6-1.1,9.3c-1.2,6.5-4,13.4-3.7,17.3.1,1.5-.1,4.9,2.3,4.9,5.6,0,9.6-6,14-25.8,0,0-.2-6.8-2.3-8.1-1.4-.8-1.4,4.9-5.8,4.8C175.6,298.4,175.7,295.8,174.5,296Z" fill="#243956"/>
      <line id="Line_60" data-name="Line 60" x2="32.9" y2="8" transform="translate(304 77.5)" fill="none" stroke="#95989a" stroke-linecap="round" stroke-linejoin="round" stroke-miterlimit="10" stroke-width="3.926"/>
      <line id="Line_61" data-name="Line 61" y1="32.4" x2="10.9" transform="translate(314.6 64.8)" fill="none" stroke="#95989a" stroke-linecap="round" stroke-linejoin="round" stroke-miterlimit="10" stroke-width="3.926"/>
      <g id="Group_213" data-name="Group 213">
        <line id="Line_62" data-name="Line 62" y1="1.3" x2="6.3" transform="translate(205.6 87.1)" fill="none" stroke="#dbdbdb" stroke-linecap="round" stroke-linejoin="round" stroke-miterlimit="10" stroke-width="1.208"/>
        <line id="Line_63" data-name="Line 63" y1="1.1" x2="5.3" transform="translate(206.6 89.6)" fill="none" stroke="#dbdbdb" stroke-linecap="round" stroke-linejoin="round" stroke-miterlimit="10" stroke-width="1.208"/>
        <line id="Line_64" data-name="Line 64" y1="0.2" x2="1" transform="translate(209.3 92.5)" fill="none" stroke="#dbdbdb" stroke-linecap="round" stroke-linejoin="round" stroke-miterlimit="10" stroke-width="1.208"/>
        <path id="Path_578" data-name="Path 578" d="M215.9,69.9a10.572,10.572,0,0,1-4.6,11l.7,3.2-7.4,1.5-.7-3.2a10.778,10.778,0,0,1-8.7-8.3,10.588,10.588,0,0,1,8.2-12.5A10.732,10.732,0,0,1,215.9,69.9Z" fill="none" stroke="#95989a" stroke-linecap="round" stroke-linejoin="round" stroke-miterlimit="10" stroke-width="1.208"/>
        <path id="Path_579" data-name="Path 579" d="M210.7,78.6" fill="none" stroke="#dbdbdb" stroke-linecap="round" stroke-linejoin="round" stroke-miterlimit="10" stroke-width="1.208"/>
        <path id="Path_580" data-name="Path 580" d="M186.2,70" fill="none" stroke="#dbdbdb" stroke-linecap="round" stroke-linejoin="round" stroke-miterlimit="10" stroke-width="1.208"/>
        <line id="Line_65" data-name="Line 65" x1="4.6" y2="0.2" transform="translate(187.2 72.8)" fill="none" stroke="#95989a" stroke-linecap="round" stroke-linejoin="round" stroke-miterlimit="10" stroke-width="1.208"/>
        <line id="Line_66" data-name="Line 66" x1="0.9" y1="0.8" transform="translate(193.3 63.3)" fill="none" stroke="#95989a" stroke-linecap="round" stroke-linejoin="round" stroke-miterlimit="10" stroke-width="1.208"/>
        <line id="Line_67" data-name="Line 67" x1="3" y1="6.1" transform="translate(196.6 53.5)" fill="none" stroke="#95989a" stroke-linecap="round" stroke-linejoin="round" stroke-miterlimit="10" stroke-width="1.208"/>
        <line id="Line_68" data-name="Line 68" y1="3.8" x2="0.8" transform="translate(205.2 54.6)" fill="none" stroke="#95989a" stroke-linecap="round" stroke-linejoin="round" stroke-miterlimit="10" stroke-width="1.208"/>
        <line id="Line_69" data-name="Line 69" y1="1" x2="0.4" transform="translate(212.5 58.8)" fill="none" stroke="#95989a" stroke-linecap="round" stroke-linejoin="round" stroke-miterlimit="10" stroke-width="1.208"/>
        <line id="Line_70" data-name="Line 70" y1="1.6" x2="2.6" transform="translate(218.6 63.8)" fill="none" stroke="#95989a" stroke-linecap="round" stroke-linejoin="round" stroke-miterlimit="10" stroke-width="1.208"/>
        <line id="Line_71" data-name="Line 71" y1="0.9" x2="4.2" transform="translate(205.1 80.6)" fill="none" stroke="#95989a" stroke-linecap="round" stroke-linejoin="round" stroke-miterlimit="10" stroke-width="1.208"/>
        <path id="Path_581" data-name="Path 581" d="M201,74.3l.6-1.2,1.9.7.7-2.6,1.7,2.8,1.6-2.4,1.5,1.1,1-1.9" fill="none" stroke="#95989a" stroke-linecap="round" stroke-linejoin="round" stroke-miterlimit="10" stroke-width="1.208"/>
      </g>
      <path id="Path_582" data-name="Path 582" d="M96.6,348.2a4.136,4.136,0,0,1-.5,1.9,6.726,6.726,0,0,1-.7,1.1,11.979,11.979,0,0,1-2.3,2.1c-4.3,3-12.3,5-21.5,5-13.7,0-24.8-4.5-24.8-10,0-4.7,8.2-8.7,19.1-9.7l4.5-.3h1.2C85.5,338.3,96.6,342.7,96.6,348.2Z" fill="#7dc456"/>
      <path id="Path_583" data-name="Path 583" d="M281.3,241.9s-29.2-9.3-35.4-2.6-8.1,36.3-4.2,42.2c1.2,1.8,4.6,1.1,6.7.1a3.432,3.432,0,0,0,1.7-1.5s-2.4-23.7,3.7-28.4c3.4-2.6,12.8-.4,16.5,2S281.3,241.9,281.3,241.9Z" fill="#183a6b"/>
      <path id="Path_584" data-name="Path 584" d="M298.7,217.8l-2.3,7.2.3,2.7s2.1-4.6,4.9-1.1-.7,5.6-.7,5.6l1.9,5,4.8-5.8C307.7,231.5,309.4,217.2,298.7,217.8Z" fill="#2e4b5b"/>
      <path id="Path_585" data-name="Path 585" d="M264.2,423.2s-.2,10.3,4.4,10.1,6.2-5.7,5.6-13.9C273.5,411.1,264.2,423.2,264.2,423.2Z" fill="#fff"/>
      <path id="Path_586" data-name="Path 586" d="M264.7,408.9s-3,23.3,3.9,22.8c9.2-.6,3.5-25.6,3.5-25.6a4.751,4.751,0,0,1-7.4,2.8Z" fill="#243956"/>
      <path id="Path_587" data-name="Path 587" d="M194.4,216.4l16.9-7.7-24.4-4.6Z" fill="#cecece"/>
      <path id="Path_588" data-name="Path 588" d="M189.9,220.1l-42.2-4.9a12.5,12.5,0,0,1-9.5-8L128.6,175c-1.2-3.9,1.2-6.8,5.2-6.3l42.2,4.9a12.5,12.5,0,0,1,9.5,8l9.6,32.2C196.3,217.8,194,220.6,189.9,220.1Z" fill="#eaeaea"/>
      <path id="Path_589" data-name="Path 589" d="M186.6,217.7l-38-4.4a10.982,10.982,0,0,1-8.5-7.2L131.4,177c-1.1-3.6,1-6.1,4.7-5.7l38,4.4a10.982,10.982,0,0,1,8.5,7.2l8.7,29.1C192.3,215.6,190.2,218.2,186.6,217.7Z" fill="#f7f7f7"/>
      <g id="Group_214" data-name="Group 214" opacity="0.39">
        <path id="Path_590" data-name="Path 590" d="M178.5,145.8a44.332,44.332,0,0,0,1.2,8.9,49.771,49.771,0,0,0,2.8,8.5,45.022,45.022,0,0,0,4.2,7.8c.8,1.3,1.7,2.4,2.6,3.6s1.9,2.3,2.9,3.4a10.336,10.336,0,0,0,7.5,3,25.417,25.417,0,0,0,8.6-1.4,65.151,65.151,0,0,0,8.3-3.3,30.474,30.474,0,0,0,4-2.1c.7-.4,1.3-.8,1.9-1.2a7.945,7.945,0,0,0,1.8-1.4,14.25,14.25,0,0,1-3.5,2.9c-1.2.9-2.5,1.7-3.8,2.5a48.431,48.431,0,0,1-8.3,3.9,25.35,25.35,0,0,1-9.1,1.7,14.961,14.961,0,0,1-4.7-.8,11.276,11.276,0,0,1-4.1-2.7,48.228,48.228,0,0,1-9.7-15.5,45.939,45.939,0,0,1-2.4-8.8A44.977,44.977,0,0,1,178.5,145.8Z" fill="#22b77e"/>
      </g>
      <g id="Group_217" data-name="Group 217">
        <g id="Group_215" data-name="Group 215">
          <path id="Path_591" data-name="Path 591" d="M156.2,196.9c-.2-1.5-.6-2.4-1.4-2.4-.6.1-.9.8-.9,1.4v.9l.3,2.5a10.679,10.679,0,0,0,2.5,1.6Z" fill="#7dc456"/>
          <path id="Path_592" data-name="Path 592" d="M167.3,195.3a6.133,6.133,0,0,1-3,5.3.1.1,0,0,0-.1.1l-.4.2-.5-4.9c-.4-3.5-1.7-5-3.1-4.9h-.1a2.349,2.349,0,0,0-1.4.7,5.3,5.3,0,0,0-.8,1.5h0c-.5-1.2-1.4-1.9-2.3-1.8a2.428,2.428,0,0,0-2,2h0l-.3-1.5-1.4.1c.6-3.1,3.4-5.3,7.2-5.1C163.5,187.3,167.3,191.2,167.3,195.3Z" fill="#7dc456"/>
          <path id="Path_593" data-name="Path 593" d="M160.9,196.7c-.2-1.7-.7-2.7-1.5-2.6-.6,0-.9.7-1,1.4v.9l.6,5.2a5.283,5.283,0,0,0,1.3.1,4.1,4.1,0,0,0,1.1-.1Z" fill="#7dc456"/>
          <path id="Path_594" data-name="Path 594" d="M164.2,200.6h0l-.1.1-.4.2-.5-4.9c-.4-3.5-1.7-5-3.1-4.9a2.787,2.787,0,0,1,3,1.9C164.1,195.3,164.2,200.4,164.2,200.6Z" fill="#7dc456"/>
        </g>
        <g id="Group_216" data-name="Group 216">
          <path id="Path_595" data-name="Path 595" d="M156.7,200.9a9.632,9.632,0,0,1-2.5-1.6l-.3-2.5a2.719,2.719,0,0,1,0-.9c.1-.6.3-1.3.9-1.4a.756.756,0,0,1,.4.1,1.858,1.858,0,0,0-.7,1.3v.9l.3,2.5a20.28,20.28,0,0,0,1.8,1.3Z" fill="#22b77e"/>
          <path id="Path_596" data-name="Path 596" d="M160.6,201.7h-.2a6.151,6.151,0,0,1-1.3-.1l-.6-5.2v-.9c.1-.7.4-1.3,1-1.4a.6.6,0,0,1,.4.1,1.435,1.435,0,0,0-.7,1.3v.9l.6,5.2C160,201.6,160.3,201.7,160.6,201.7Z" fill="#22b77e"/>
          <path id="Path_597" data-name="Path 597" d="M158.6,187.1a6.42,6.42,0,0,0-6.4,5l-.6.1C152.1,189.2,154.9,187,158.6,187.1Z" fill="#22b77e"/>
          <path id="Path_598" data-name="Path 598" d="M153.581,193.453c-.2.334-.281.26-.381.594h0l-.3-1.936.6-.111Z" fill="#22b77e"/>
        </g>
      </g>
    </g>
    <g id="Group_219" data-name="Group 219" opacity="0.13">
      <path id="Path_599" data-name="Path 599" d="M220.3,163.1c-4.9,2.4-10,4.5-15.5,5.2a11.864,11.864,0,0,1-4.2-.1c-.3-.1-.7-.2-1-.3-.3-.2-.7-.3-.9-.6l-.4-.4-.3-.4-.6-.9a22.4,22.4,0,0,1-2.3-7.9c-.9-5.4-1.3-10.9-2.2-16.2a35.4,35.4,0,0,0-2.1-7.9,12.034,12.034,0,0,0-2.1-3.4,5.335,5.335,0,0,0-3.6-1.7,6.232,6.232,0,0,1,3.7,1.6,12.75,12.75,0,0,1,2.3,3.4,35.825,35.825,0,0,1,2.3,7.9c1,5.4,1.4,10.9,2.3,16.2a27.441,27.441,0,0,0,2.2,7.7,4.134,4.134,0,0,0,3,2.3,13.291,13.291,0,0,0,4,.2,31.183,31.183,0,0,0,7.9-1.8A68.3,68.3,0,0,0,220.3,163.1Z" fill="#68b587"/>
    </g>
    <path id="Path_600" data-name="Path 600" d="M397.7,333.5s12.8,26,54.2,20.6l-1.8-15.8C450.1,338.2,424.5,356.2,397.7,333.5Z" fill="#eaf5f9"/>
  </g>
</svg>
